<svg width="22" height="25" viewBox="0 0 22 25" fill="none" xmlns="http://www.w3.org/2000/svg">
<path d="M1.37021 2.66564L11.0478 0.354033C11.1679 0.325307 11.2884 0.327877 11.4004 0.356135L21.094 2.67147C21.4368 2.75298 21.6676 3.06102 21.6674 3.40059L21.6676 13.6454C21.6676 15.8605 20.446 17.9631 18.7458 19.7369C16.5774 21.9992 13.5943 23.7519 11.4554 24.4769C11.2963 24.5303 11.1314 24.5268 10.9837 24.4769C8.8448 23.7519 5.8617 21.9992 3.69329 19.7369C1.99307 17.9629 0.771729 15.8603 0.771729 13.6454V3.40059C0.771729 3.03743 1.02882 2.7343 1.36997 2.66564H1.37021ZM11.2197 1.85361L2.26293 3.99286V13.6456C2.26293 15.4248 3.30917 17.1812 4.76507 18.7004C6.68522 20.7037 9.28442 22.2687 11.2197 22.9766C13.1549 22.2687 15.7544 20.7037 17.6743 18.7004C19.1304 17.1812 20.1764 15.4248 20.1764 13.6456V3.99286L11.2194 1.85361H11.2197Z" fill="#374148" stroke="#F1F1F1" stroke-width="0.6"/>
<path d="M4.49301 5.30666L11.0477 3.741C11.1678 3.71227 11.2883 3.71484 11.4002 3.7431L17.9707 5.3125C18.3135 5.39401 18.5444 5.70205 18.5441 6.04162L18.5444 13.2476C18.5444 14.8198 17.6879 16.3014 16.4956 17.5452C14.9979 19.1081 12.9351 20.3192 11.4553 20.8209C11.2962 20.8744 11.1313 20.8709 10.9836 20.8209C9.50379 20.3195 7.44105 19.1081 5.94334 17.5452C4.75126 16.3014 3.89453 14.82 3.89453 13.2476V6.04162C3.89453 5.67846 4.15162 5.37533 4.49278 5.30666H4.49301ZM11.2196 5.24057L5.38574 6.63388V13.2476C5.38574 14.384 6.06689 15.5192 7.01489 16.5083C8.26456 17.8122 9.94504 18.836 11.2196 19.3187C12.4941 18.836 14.1746 17.8122 15.4242 16.5083C16.3722 15.5192 17.0534 14.384 17.0534 13.2476V6.63388L11.2196 5.24057Z" fill="#22B0F5" stroke="#F1F1F1" stroke-width="0.6"/>
</svg>
