<svg width="22" height="26" viewBox="0 0 22 26" fill="none" xmlns="http://www.w3.org/2000/svg">
<path d="M7.27438 20.5792C7.47039 20.217 7.92163 20.0834 8.28206 20.2805C8.64227 20.4776 8.77511 20.9314 8.5791 21.2938C8.42512 21.5766 6.73721 24.6757 6.73954 24.6769C6.62319 24.8904 6.45249 25.0595 6.24719 25.1716L6.24789 25.1727C6.04375 25.2841 5.80989 25.3353 5.56696 25.3168L5.56417 25.3166C5.32195 25.2977 5.09947 25.2108 4.91507 25.0704C4.88859 25.0503 4.86398 25.0289 4.84099 25.0062C4.6905 24.8717 4.57368 24.7014 4.50261 24.5036L3.9255 22.9067L2.27545 23.2806C2.0374 23.334 1.79936 23.3172 1.58314 23.2378L1.58059 23.2369C1.36205 23.157 1.16813 23.0148 1.02159 22.8193C1.00534 22.7978 0.990701 22.7756 0.977231 22.753C0.85786 22.5718 0.78935 22.3691 0.774487 22.1617C0.75823 21.9314 0.807929 21.6967 0.924977 21.4807L2.75595 18.1167C2.95196 17.7545 3.40319 17.6209 3.76363 17.818C4.12383 18.0151 4.25667 18.4689 4.06066 18.8314L2.50072 21.6974L3.8189 21.3987C4.12128 21.3305 4.42482 21.3798 4.67888 21.5194C4.93481 21.6602 5.14081 21.8912 5.24624 22.1841L5.70701 23.4595L7.27462 20.5792H7.27438Z" fill="#374148" stroke="#F1F1F1" stroke-width="0.6"/>
<path d="M8.34325 10.7608C8.05225 10.4681 8.05225 9.99334 8.34325 9.70072C8.63424 9.40809 9.10638 9.40809 9.39737 9.70072L10.3384 10.6475L12.6766 8.29619C12.9676 8.00356 13.4397 8.00356 13.7307 8.29619C14.0217 8.58882 14.0217 9.06361 13.7307 9.35624L10.8654 12.2375C10.5744 12.5301 10.1022 12.5301 9.81122 12.2375L8.34301 10.7608H8.34325Z" fill="#22B0F5" stroke="#F1F1F1" stroke-width="0.6"/>
<path d="M10.8533 4.26965C12.4815 4.26965 13.956 4.93361 15.0231 6.00697C16.0902 7.0801 16.7507 8.56286 16.7507 10.2002C16.7507 11.8376 16.0905 13.3204 15.0231 14.3935C13.956 15.4666 12.4815 16.1308 10.8533 16.1308C9.22481 16.1308 7.75033 15.4668 6.68319 14.3935C5.61606 13.3204 4.95557 11.8376 4.95557 10.2002C4.95557 8.56286 5.61582 7.0801 6.68319 6.00697C7.75033 4.93385 9.22481 4.26965 10.8533 4.26965ZM13.969 7.06679C13.1719 6.26504 12.0702 5.769 10.8533 5.769C9.63633 5.769 8.53436 6.26504 7.73732 7.06679C6.94004 7.86831 6.44677 8.97623 6.44677 10.2C6.44677 11.4238 6.94004 12.5317 7.73732 13.3332C8.53459 14.1349 9.63633 14.631 10.8533 14.631C12.0702 14.631 13.1719 14.1349 13.969 13.3332C14.7663 12.5317 15.2595 11.4238 15.2595 10.2C15.2595 8.97623 14.7663 7.86831 13.969 7.06679Z" fill="#22B0F5" stroke="#F1F1F1" stroke-width="0.6"/>
<path d="M12.5287 1.04867L12.7721 1.30067C12.8857 1.41837 13.019 1.49801 13.1606 1.53608C13.3021 1.57414 13.4579 1.57181 13.6165 1.52674L13.9523 1.43075C14.2645 1.34177 14.5731 1.31631 14.8755 1.35415C15.1769 1.39175 15.4712 1.49311 15.755 1.65799H15.758C16.039 1.82123 16.2729 2.02698 16.4577 2.2729C16.643 2.51952 16.7763 2.80258 16.8558 3.11926L16.9412 3.45976C16.9812 3.61974 17.056 3.75496 17.1575 3.85679L17.1602 3.85959C17.2615 3.96165 17.396 4.03685 17.555 4.07702L17.8937 4.16296C18.2086 4.24283 18.49 4.37689 18.7353 4.56325C18.9798 4.74915 19.1847 4.98433 19.3468 5.26691L19.3732 5.31713C19.5214 5.5878 19.6136 5.86759 19.6489 6.15414C19.6863 6.45821 19.661 6.76906 19.5725 7.08271L19.4771 7.42064C19.432 7.58015 19.4299 7.73686 19.4678 7.87909C19.5056 8.02155 19.5848 8.1556 19.7019 8.26957L19.9524 8.51432C20.1833 8.73969 20.3598 8.99705 20.4806 9.28408C20.602 9.5732 20.6633 9.87914 20.6633 10.2C20.6633 10.5207 20.602 10.8269 20.4806 11.1157C20.3598 11.4025 20.1835 11.6601 19.9524 11.8855L19.7019 12.1303C19.5848 12.2445 19.5056 12.3785 19.4678 12.521C19.4299 12.6632 19.4322 12.8199 19.4771 12.9794L19.5725 13.3171C19.661 13.631 19.6863 13.9414 19.6487 14.2454C19.6113 14.5486 19.5103 14.8445 19.3465 15.1299V15.1329C19.1842 15.4155 18.9796 15.6507 18.7351 15.8366C18.4898 16.0229 18.2083 16.157 17.8934 16.2369L17.5548 16.3228C17.3957 16.363 17.2613 16.4382 17.16 16.5402L17.1572 16.543C17.0557 16.6449 16.981 16.7801 16.941 16.9401L16.8555 17.2806C16.7761 17.5972 16.6428 17.8803 16.4575 18.1269C16.2726 18.3728 16.0388 18.5788 15.7578 18.7418L15.7078 18.7685C15.4387 18.9175 15.1604 19.0102 14.8755 19.0457C14.5731 19.0833 14.264 19.0578 13.9521 18.9688L13.616 18.8729C13.4574 18.8275 13.3016 18.8254 13.1602 18.8635C13.0185 18.9016 12.8852 18.9812 12.7719 19.0989L12.5285 19.3509C12.3044 19.5831 12.0484 19.7605 11.763 19.882C11.4755 20.0041 11.1713 20.0658 10.8522 20.0658C10.5333 20.0658 10.2289 20.0041 9.94157 19.882C9.65639 19.7605 9.40023 19.5833 9.17612 19.3509L8.93273 19.0989C8.81917 18.9812 8.68586 18.9016 8.5442 18.8635C8.40276 18.8254 8.24693 18.8278 8.08831 18.8729L7.7525 18.9688C7.44037 19.0578 7.13172 19.0833 6.82935 19.0454C6.5279 19.0078 6.23366 18.9063 5.94986 18.7416H5.94684C5.66583 18.5784 5.43197 18.3726 5.24711 18.1267C5.06178 17.8801 4.92848 17.597 4.84905 17.2803L4.76359 16.9398C4.72364 16.7799 4.64886 16.6446 4.54737 16.5428L4.54459 16.54C4.44333 16.4379 4.30887 16.3627 4.14978 16.3226L3.81118 16.2366C3.49626 16.1568 3.21479 16.0227 2.96955 15.8363C2.725 15.6504 2.52016 15.4153 2.35806 15.1327L2.33159 15.0825C2.18342 14.8118 2.09122 14.5318 2.05592 14.2452C2.01853 13.9411 2.04384 13.6303 2.13233 13.3167L2.22778 12.9787C2.27283 12.8192 2.27492 12.6625 2.23707 12.5203C2.19921 12.3778 2.12002 12.2438 2.00297 12.1298L1.75239 11.885C1.52154 11.6597 1.34504 11.4023 1.22428 11.1153C1.10282 10.8262 1.0415 10.5202 1.0415 10.1993C1.0415 9.87867 1.10282 9.5725 1.22428 9.28361C1.34481 8.99682 1.52131 8.73922 1.75239 8.51385L2.00297 8.2691C2.12002 8.1549 2.19921 8.02085 2.23707 7.87838C2.27492 7.73616 2.2726 7.57945 2.22778 7.41994L2.13233 7.08224C2.04384 6.76836 2.01853 6.45798 2.05615 6.15391C2.09354 5.85077 2.19433 5.55487 2.35829 5.26948V5.26645C2.52063 4.98386 2.72523 4.74868 2.96978 4.56278C3.21502 4.37642 3.4965 4.24237 3.81141 4.16249L4.15002 4.07655C4.3091 4.03638 4.44357 3.96118 4.54482 3.85912L4.54761 3.85632C4.64909 3.75449 4.72388 3.61927 4.76382 3.4593L4.84928 3.11879C4.92871 2.80211 5.06202 2.51906 5.24734 2.27244C5.4322 2.02652 5.66607 1.82053 5.94707 1.65752L5.99701 1.6309C6.26617 1.4819 6.54462 1.38918 6.82958 1.35368C7.13195 1.31608 7.44106 1.34154 7.75296 1.43052L8.08901 1.5265C8.24763 1.57181 8.40346 1.57391 8.5449 1.53584C8.68656 1.49778 8.81986 1.41814 8.9332 1.30043L9.17658 1.04844C9.40069 0.8163 9.65662 0.638808 9.94204 0.517366C10.2249 0.397325 10.5291 0.336604 10.8529 0.336837V0.333801C11.1717 0.333801 11.4762 0.395456 11.7635 0.517599C12.0484 0.638808 12.3048 0.8163 12.5289 1.04844L12.5287 1.04867ZM11.7061 2.34297L11.4627 2.09097C11.3759 2.00106 11.2835 1.93497 11.1868 1.89386C11.0923 1.85369 10.9806 1.83338 10.8526 1.83338V1.83034C10.7293 1.83034 10.6174 1.85159 10.5182 1.89363C10.4216 1.93473 10.3292 2.00083 10.2423 2.09074L9.99894 2.34273C9.69354 2.65918 9.32684 2.87497 8.92902 2.98217C8.53119 3.08937 8.10689 3.0868 7.68701 2.96722L7.35095 2.87124C7.23321 2.83761 7.11895 2.8278 7.01003 2.84111C6.91133 2.85349 6.81425 2.88478 6.72066 2.93453L6.69256 2.95158C6.58643 3.01323 6.5005 3.08773 6.4357 3.17414C6.37114 3.26009 6.32354 3.36308 6.29381 3.48195L6.20834 3.82246C6.10198 4.24704 5.8918 4.61813 5.59988 4.9124L5.59617 4.91613C5.30308 5.21016 4.93359 5.42175 4.51115 5.52895L4.17254 5.61489C4.05457 5.64479 3.95192 5.69266 3.86645 5.75759C3.78076 5.82275 3.70644 5.90939 3.64513 6.01588L3.64397 6.01518C3.58521 6.11794 3.54875 6.22537 3.53528 6.33514C3.52181 6.4449 3.53157 6.55957 3.56501 6.67774L3.66046 7.01545C3.77959 7.43769 3.78192 7.86437 3.67532 8.26443C3.56873 8.66472 3.3539 9.03372 3.03945 9.34059L2.78887 9.58535C2.69922 9.67269 2.6335 9.76587 2.59286 9.86303C2.55291 9.95785 2.53271 10.0704 2.53271 10.1989C2.53271 10.3273 2.55291 10.4399 2.59286 10.5352C2.63373 10.6323 2.69945 10.7253 2.78887 10.8126L3.03945 11.0574C3.35413 11.3645 3.56873 11.7332 3.67532 12.1333C3.78192 12.5333 3.77936 12.96 3.66046 13.3823L3.56501 13.7202C3.53157 13.8386 3.52181 13.9535 3.53505 14.0631C3.54736 14.1623 3.57848 14.2599 3.62795 14.354L3.6449 14.3823C3.70621 14.489 3.78029 14.5754 3.86622 14.6406C3.95169 14.7055 4.0541 14.7534 4.17231 14.7833L4.51092 14.8692C4.93289 14.9762 5.30215 15.1876 5.59477 15.4811L5.59848 15.4849C5.89087 15.7796 6.10128 16.1512 6.20788 16.576L6.29335 16.9165C6.32307 17.0351 6.37068 17.1383 6.43524 17.2243C6.50027 17.3107 6.5862 17.3852 6.6921 17.4468L6.6914 17.448C6.79382 17.5071 6.90041 17.5438 7.00956 17.5573C7.11872 17.5709 7.23275 17.561 7.35026 17.5274L7.68608 17.4314C8.10597 17.3116 8.53026 17.3093 8.92809 17.4165C9.32615 17.5237 9.69308 17.7397 9.99824 18.0559L10.2416 18.3079C10.3285 18.3981 10.4211 18.4642 10.5178 18.505C10.612 18.5452 10.724 18.5655 10.8517 18.5655C10.9794 18.5655 11.0914 18.5452 11.1861 18.505C11.2828 18.4639 11.3752 18.3978 11.462 18.3079L11.7054 18.0559C12.0106 17.7397 12.3775 17.5237 12.7753 17.4165C13.1732 17.3093 13.5975 17.3116 14.0174 17.4314L14.3534 17.5274C14.4712 17.561 14.5854 17.5709 14.6943 17.5575C14.7933 17.5452 14.8901 17.5139 14.9837 17.4641L15.0118 17.4471C15.1179 17.3854 15.2039 17.3107 15.2687 17.2245C15.3332 17.1386 15.3808 17.0356 15.4106 16.9167L15.496 16.5762C15.6024 16.1519 15.8126 15.7805 16.1045 15.4863L16.1082 15.4825C16.4013 15.1885 16.7705 14.9769 17.1932 14.8697L17.5318 14.7838C17.6498 14.7539 17.7524 14.706 17.8379 14.6411C17.9238 14.5757 17.9979 14.4893 18.0592 14.3828L18.0604 14.3835C18.1192 14.2805 18.1556 14.1733 18.1691 14.0635C18.1826 13.9538 18.1728 13.8391 18.1394 13.7209L18.0439 13.3832C17.9248 12.961 17.9224 12.5343 18.029 12.1342C18.1356 11.7339 18.3505 11.3649 18.6649 11.0581L18.9155 10.8133C19.0051 10.726 19.0709 10.6328 19.1115 10.5356C19.1515 10.4408 19.1717 10.3282 19.1717 10.1998C19.1717 10.0713 19.1515 9.95878 19.1115 9.86349C19.0706 9.76634 19.0049 9.67339 18.9155 9.58605L18.6649 9.34129C18.3502 9.03419 18.1356 8.66542 18.029 8.26536C17.9224 7.86531 17.9248 7.43862 18.0439 7.01638L18.1394 6.67844C18.1728 6.56004 18.1826 6.44514 18.1693 6.3356C18.157 6.23612 18.1259 6.13873 18.0764 6.04461L18.0595 6.01635C17.9982 5.90962 17.9241 5.82321 17.8381 5.75805C17.7527 5.69313 17.6503 5.64525 17.5321 5.61536L17.1934 5.52942C16.7712 5.42245 16.4022 5.2111 16.1096 4.91754L16.1059 4.9138C15.8135 4.61907 15.6031 4.24774 15.4965 3.82269L15.411 3.48218C15.3813 3.36355 15.3337 3.26032 15.2691 3.17438C15.2041 3.08797 15.1182 3.01347 15.0123 2.95181L15.013 2.95064C14.9105 2.89156 14.804 2.85489 14.6948 2.84134C14.5856 2.8278 14.4716 2.83761 14.3541 2.87124L14.0183 2.96722C13.5984 3.08703 13.1741 3.08937 12.7763 2.98217C12.3782 2.87497 12.0113 2.65895 11.7061 2.34273V2.34297Z" fill="#374148" stroke="#F1F1F1" stroke-width="0.6"/>
<path d="M13.1262 21.2941C12.9301 20.9318 13.063 20.4781 13.4232 20.2807C13.7834 20.0836 14.2346 20.2172 14.4309 20.5794L15.9985 23.4595L16.4592 22.1841C16.5647 21.8912 16.7707 21.6602 17.0268 21.5194C17.2809 21.3798 17.5844 21.3303 17.8866 21.3987L19.2048 21.6974L17.6448 18.8314C17.4488 18.4691 17.5816 18.0154 17.9419 17.818C18.3021 17.6209 18.7533 17.7545 18.9495 18.1167L20.7803 21.4807C20.898 21.6969 20.9477 21.9316 20.9308 22.1617C20.9138 22.3959 20.8307 22.6231 20.6837 22.8193C20.5369 23.015 20.3432 23.1573 20.1251 23.2381C19.9082 23.3182 19.6692 23.3352 19.43 23.2808L17.78 22.9069L17.2029 24.5039C17.1195 24.7358 16.9757 24.9294 16.7902 25.0707L16.7888 25.0688C16.6021 25.2108 16.3784 25.2981 16.1383 25.3171C15.8975 25.336 15.6645 25.2841 15.4604 25.1732L15.4574 25.1702C15.2537 25.059 15.083 24.8899 14.9657 24.6743L13.1259 21.2941H13.1262Z" fill="#374148" stroke="#F1F1F1" stroke-width="0.6"/>
</svg>
