<svg width="24" height="27" viewBox="0 0 24 27" fill="none" xmlns="http://www.w3.org/2000/svg">
<path d="M12.0583 4.44598C15.1062 4.44598 17.8661 5.68866 19.8636 7.69759C21.8611 9.70652 23.0968 12.4817 23.0968 15.5469C23.0968 18.6122 21.8611 21.3876 19.8636 23.3963C17.8661 25.405 15.1062 26.6479 12.0583 26.6479C9.00991 26.6479 6.24999 25.4052 4.25274 23.3965C2.25526 21.3878 1.01929 18.6124 1.01929 15.5472C1.01929 12.4819 2.25503 9.70652 4.25274 7.69783C6.25046 5.68913 9.01015 4.44645 12.0583 4.44645V4.44598ZM18.8094 8.75764C17.0818 7.02032 14.6946 5.94556 12.0583 5.94556C9.42144 5.94556 7.03449 7.02032 5.30664 8.75741C3.57902 10.4947 2.51026 12.8953 2.51026 15.5469C2.51026 18.1986 3.57902 20.5989 5.30664 22.3365C7.03426 24.0738 9.42144 25.1483 12.0583 25.1483C14.6946 25.1483 17.0818 24.0736 18.8094 22.3363C20.5371 20.5989 21.6056 18.1986 21.6056 15.5469C21.6056 12.8955 20.5368 10.495 18.8094 8.75764Z" fill="white" stroke="#0A6397" stroke-width="0.6"/>
<path d="M10.1224 2.32985C9.71068 2.32985 9.37695 1.99401 9.37695 1.58018C9.37695 1.16611 9.71091 0.830505 10.1224 0.830505H13.9945C14.4063 0.830505 14.74 1.16634 14.74 1.58018C14.74 1.99425 14.4061 2.32985 13.9945 2.32985H10.1224Z" fill="white" stroke="#0A6397" stroke-width="0.6"/>
<path d="M12.8035 3.21204C12.8035 3.62611 12.4695 3.96171 12.058 3.96171C11.6462 3.96171 11.3125 3.62587 11.3125 3.21204V1.57981C11.3125 1.16574 11.6465 0.830139 12.058 0.830139C12.4697 0.830139 12.8035 1.16597 12.8035 1.57981V3.21204Z" fill="white" stroke="#0A6397" stroke-width="0.6"/>
<path d="M11.3127 10.4458C11.3127 10.0317 11.6467 9.69611 12.0582 9.69611C12.47 9.69611 12.8037 10.0319 12.8037 10.4458V14.7969H15.7202C16.1319 14.7969 16.4656 15.1327 16.4656 15.5466C16.4656 15.9606 16.1317 16.2962 15.7202 16.2962H12.058C11.6462 16.2962 11.3125 15.9604 11.3125 15.5466V10.4455L11.3127 10.4458Z" fill="white" stroke="#0A6397" stroke-width="0.6"/>
<path d="M18.5836 17.5305C18.7009 17.1344 19.1156 16.9088 19.5095 17.0268C19.9034 17.1447 20.1277 17.5618 20.0105 17.9579C19.4812 19.7212 18.408 21.2067 17.0092 22.2514C15.61 23.2965 13.887 23.9004 12.0582 23.9004C9.76457 23.9004 7.68766 22.9653 6.18438 21.4536C4.6811 19.9419 3.75122 17.8533 3.75122 15.5468C3.75122 13.7707 4.31231 12.0892 5.29119 10.7055C6.26799 9.32479 7.66444 8.24138 9.33702 7.65776C9.72439 7.52371 10.1471 7.73063 10.2806 8.12041C10.4139 8.50996 10.2081 8.935 9.82054 9.06929C8.45126 9.54712 7.30586 10.4369 6.50255 11.5726C5.70156 12.7051 5.24242 14.0851 5.24242 15.5473C5.24242 17.4401 6.00556 19.1541 7.23851 20.394C8.4717 21.6341 10.1759 22.4013 12.0582 22.4013C13.5635 22.4013 14.9783 21.9069 16.124 21.0512C17.2698 20.1952 18.1495 18.9773 18.5836 17.5308V17.5305Z" fill="white" stroke="#0A6397" stroke-width="0.6"/>
<path d="M12.058 8.6924C11.6462 8.6924 11.3125 8.35656 11.3125 7.94273C11.3125 7.52865 11.6465 7.19305 12.058 7.19305C14.3451 7.19305 16.418 8.12489 17.9213 9.63217C19.4237 11.1385 20.3556 13.2215 20.3621 15.5249C20.3621 15.9373 20.0296 16.2718 19.6194 16.2718C19.2093 16.2718 18.8767 15.9373 18.8767 15.5249C18.8716 13.6374 18.1062 11.9291 16.8728 10.6922C15.6405 9.45631 13.9382 8.6924 12.058 8.6924Z" fill="white" stroke="#0A6397" stroke-width="0.6"/>
</svg>
