<svg width="22" height="27" viewBox="0 0 22 27" fill="none" xmlns="http://www.w3.org/2000/svg">
<path d="M18.0365 8.67915C17.6247 8.67915 17.291 8.34332 17.291 7.92948C17.291 7.51541 17.625 7.17981 18.0365 7.17981C18.7657 7.17981 19.4302 7.48108 19.9132 7.96615L19.9146 7.96474C20.396 8.44888 20.6952 9.11774 20.6952 9.85364V10.8929C20.6952 11.6288 20.396 12.2974 19.9146 12.7818L19.867 12.8257C19.3884 13.2841 18.7427 13.5667 18.0365 13.5667C17.6247 13.5667 17.291 13.2309 17.291 12.8171C17.291 12.403 17.625 12.0674 18.0365 12.0674C18.3437 12.0674 18.6234 11.948 18.831 11.7535L18.8605 11.722C19.0723 11.509 19.2042 11.2154 19.2042 10.8931V9.85387C19.2042 9.53181 19.0725 9.23825 18.8605 9.02503V9.02222C18.6505 8.81087 18.3586 8.67962 18.0365 8.67962V8.67915Z" fill="#22B0F5" stroke="#F1F1F1" stroke-width="0.6"/>
<path d="M21.1931 25.6497C21.1931 26.0638 20.8592 26.3994 20.4476 26.3994C20.0359 26.3994 19.7021 26.0635 19.7021 25.6497V24.3619C19.7021 23.3892 19.4448 22.4782 18.9959 21.6944C18.5279 20.8777 17.8521 20.1937 17.0423 19.7168C16.6886 19.5082 16.5699 19.0507 16.7773 18.6948C16.9847 18.3391 17.4397 18.2198 17.7936 18.4283C18.8245 19.0353 19.6859 19.9078 20.2832 20.9506C20.8617 21.9604 21.1933 23.1263 21.1933 24.3617V25.6495L21.1931 25.6497ZM2.26197 25.6497C2.26197 26.0638 1.92801 26.3994 1.51648 26.3994C1.10472 26.3994 0.770996 26.0635 0.770996 25.6497V24.3619C0.770996 22.4712 1.53994 20.7523 2.77847 19.5068C4.01699 18.2614 5.72627 17.4881 7.60647 17.4881H12.4384C12.8502 17.4881 13.1839 17.8239 13.1839 18.2378C13.1839 18.6518 12.8499 18.9874 12.4384 18.9874H7.60647C6.13756 18.9874 4.80126 19.5923 3.8326 20.5667C2.8637 21.541 2.2622 22.8848 2.2622 24.3617V25.6495L2.26197 25.6497Z" fill="#374148" stroke="#F1F1F1" stroke-width="0.6"/>
<path d="M15.8645 10.164C15.8645 8.79151 15.3181 7.55093 14.4346 6.65483C13.5519 5.75966 12.3313 5.2057 10.9819 5.2057C9.63311 5.2057 8.412 5.75966 7.52926 6.65483C6.64583 7.5507 6.09937 8.79128 6.09937 10.1638C6.09937 11.5361 6.64583 12.7764 7.52926 13.6723C8.412 14.5675 9.63288 15.1214 10.9819 15.1214C12.3313 15.1214 13.5519 14.5675 14.4346 13.6723C15.3181 12.7764 15.8645 11.5361 15.8645 10.1636V10.164ZM15.4888 5.60062C16.6421 6.77043 17.3555 8.38421 17.3555 10.164C17.3555 11.9436 16.6418 13.5576 15.4888 14.727C14.3348 15.8973 12.7414 16.6212 10.9819 16.6212C9.22298 16.6212 7.62935 15.8973 6.47513 14.727C5.32183 13.5574 4.6084 11.9439 4.6084 10.164C4.6084 8.38398 5.32183 6.77043 6.47513 5.60062C7.62935 4.43034 9.22274 3.70636 10.9819 3.70636C12.7414 3.70636 14.3348 4.43034 15.4888 5.60062Z" fill="#374148" stroke="#F1F1F1" stroke-width="0.6"/>
<path d="M19.2438 5.51111C19.4415 5.87334 19.31 6.32851 18.9496 6.52726C18.5894 6.726 18.1367 6.59382 17.9391 6.23136C17.2368 4.95015 16.2194 3.91205 15.0169 3.19484C13.8157 2.47833 12.4272 2.08131 10.981 2.08131C9.54392 2.08131 8.16489 2.47156 6.97095 3.17756C5.77608 3.88402 4.76097 4.90928 4.05265 6.17788C3.85153 6.53847 3.39773 6.66691 3.03939 6.46467C2.68081 6.26242 2.55308 5.80608 2.7542 5.44572C3.59165 3.94591 4.7972 2.73056 6.21989 1.88934C7.64375 1.04742 9.28126 0.58197 10.9812 0.58197C12.6961 0.58197 14.3452 1.05396 15.7742 1.90639C17.2022 2.75835 18.4103 3.99052 19.2438 5.51088V5.51111Z" fill="#22B0F5" stroke="#F1F1F1" stroke-width="0.6"/>
<path d="M17.2768 17.31C16.9714 17.5865 16.5004 17.5615 16.2255 17.2544C15.9505 16.9473 15.9753 16.4737 16.2807 16.1972C16.5706 15.9349 16.8414 15.6509 17.0905 15.3485C17.3469 15.0374 17.575 14.7168 17.7722 14.3903C17.9844 14.0379 18.4408 13.9251 18.7912 14.1383C19.1417 14.3517 19.2538 14.8106 19.0418 15.1631C18.7945 15.5725 18.5256 15.9538 18.2378 16.303C17.9431 16.6608 17.6217 16.9975 17.2768 17.3098V17.31Z" fill="#22B0F5" stroke="#F1F1F1" stroke-width="0.6"/>
<path d="M15.1827 18.7435C14.8162 18.9278 14.3701 18.7783 14.1869 18.4095C14.0036 18.041 14.1523 17.5924 14.519 17.4081L14.6957 17.3161V17.3133L14.8738 17.2187C15.2308 17.0164 15.6834 17.1437 15.8843 17.5027C16.0854 17.8616 15.9588 18.3168 15.6019 18.5188L15.3945 18.6368L15.3933 18.6344L15.1829 18.7435H15.1827Z" fill="#22B0F5" stroke="#F1F1F1" stroke-width="0.6"/>
<path d="M3.92722 7.17918C4.33898 7.17918 4.6727 7.51501 4.6727 7.92885C4.6727 8.34292 4.33875 8.67852 3.92722 8.67852C3.6051 8.67852 3.31318 8.80977 3.10324 9.02113V9.02393C2.89144 9.23692 2.75952 9.53048 2.75952 9.85277V10.892C2.75952 11.2141 2.8912 11.5077 3.10324 11.7209L3.13273 11.7524C3.34035 11.9469 3.61997 12.0663 3.92722 12.0663C4.33898 12.0663 4.6727 12.4021 4.6727 12.816C4.6727 13.23 4.33875 13.5656 3.92722 13.5656C3.22098 13.5656 2.57536 13.283 2.09672 12.8246L2.04911 12.7807C1.56768 12.2966 1.26855 11.6277 1.26855 10.8918V9.85254C1.26855 9.11665 1.56768 8.44801 2.04911 7.96365L2.0505 7.96505C2.53356 7.47998 3.19799 7.17871 3.92722 7.17871V7.17918Z" fill="#22B0F5" stroke="#F1F1F1" stroke-width="0.6"/>
<path d="M11.9225 25.3771C11.9225 25.9289 11.4773 26.3766 10.9285 26.3766C10.3798 26.3766 9.93457 25.9289 9.93457 25.3771V22.3013C9.93457 21.7495 10.3798 21.3018 10.9285 21.3018C11.4773 21.3018 11.9225 21.7495 11.9225 22.3013V25.3771Z" fill="#374148" stroke="#F1F1F1" stroke-width="0.6"/>
<path d="M10.3805 20.9939C9.96874 20.9939 9.63501 20.6581 9.63501 20.2442C9.63501 19.8302 9.96897 19.4946 10.3805 19.4946H11.5542C11.966 19.4946 12.2997 19.8304 12.2997 20.2442C12.2997 20.6583 11.9658 20.9939 11.5542 20.9939H10.3805Z" fill="#374148" stroke="#F1F1F1" stroke-width="0.6"/>
</svg>
