<svg width="20" height="26" viewBox="0 0 20 26" fill="none" xmlns="http://www.w3.org/2000/svg">
<path d="M16.0038 15.5675C15.6115 15.4446 15.3925 15.0249 15.5147 14.6305C15.6368 14.236 16.0542 14.0158 16.4464 14.1386C17.1311 14.3537 17.6736 14.6055 18.0565 14.8811C18.5821 15.2592 18.8566 15.7083 18.8566 16.2102C18.8566 17.1927 17.6991 17.9797 15.828 18.458C14.2473 18.8618 12.0761 19.1117 9.69012 19.1117C7.30411 19.1117 5.13291 18.8618 3.55229 18.458C1.68115 17.9799 0.523682 17.1927 0.523682 16.2102C0.523682 15.7319 0.77403 15.301 1.25592 14.9329C1.60753 14.6643 2.10337 14.4187 2.72948 14.2064C3.11871 14.0754 3.53976 14.2865 3.67005 14.6779C3.80033 15.0693 3.59039 15.4927 3.20116 15.6237C2.72646 15.7846 2.37369 15.953 2.15283 16.1219C2.06203 16.1912 2.01488 16.1987 2.01488 16.2102C2.01488 16.4159 2.74272 16.7048 3.91924 17.0056C5.38629 17.3804 7.42603 17.6124 9.69012 17.6124C11.9544 17.6124 13.9942 17.3804 15.461 17.0056C16.6375 16.705 17.3654 16.4159 17.3654 16.2102C17.3654 16.2025 17.3066 16.1798 17.1945 16.0992C16.9397 15.9159 16.5386 15.7356 16.0038 15.5677V15.5675Z" fill="#374148" stroke="#F1F1F1" stroke-width="0.6"/>
<path d="M17.5629 19.1913C17.9215 18.991 18.3739 19.1206 18.5734 19.4812C18.7727 19.8418 18.6438 20.2967 18.2852 20.4973C17.4596 20.9586 16.199 21.3308 14.6881 21.583C13.2138 21.829 11.4892 21.967 9.69539 21.967C7.88834 21.967 6.15423 21.8273 4.67533 21.5788C3.16183 21.3245 1.90031 20.9476 1.07796 20.4805C0.721007 20.2782 0.594433 19.8233 0.795551 19.4644C0.99667 19.1054 1.44907 18.9781 1.80602 19.1804C2.47115 19.5582 3.56499 19.8754 4.91987 20.1031C6.30936 20.3364 7.95825 20.4677 9.69539 20.4677C11.4244 20.4677 13.0654 20.338 14.4495 20.1073C15.7968 19.8826 16.8895 19.568 17.5632 19.1916L17.5629 19.1913Z" fill="#374148" stroke="#F1F1F1" stroke-width="0.6"/>
<path d="M9.54171 1.08514C11.6816 1.08514 13.6198 1.95789 15.0225 3.36825C16.4252 4.77885 17.2929 6.72753 17.2929 8.87985C17.2929 11.0319 16.425 12.9809 15.0225 14.3912C13.6198 15.8018 11.6818 16.6743 9.54194 16.6743C7.40187 16.6743 5.4636 15.8016 4.06088 14.3912C2.65816 12.9806 1.79053 11.0319 1.79053 8.87985C1.79053 6.72776 2.6584 4.77862 4.06088 3.36825C5.4636 1.95789 7.40164 1.08514 9.54194 1.08514H9.54171ZM13.9684 4.4283C12.8358 3.28932 11.2705 2.58449 9.54171 2.58449C7.81269 2.58449 6.2474 3.28908 5.11478 4.42807C3.98215 5.56705 3.28126 7.14113 3.28126 8.87985C3.28126 10.6181 3.98192 12.1922 5.11478 13.3312C6.2474 14.4702 7.81292 15.1748 9.54171 15.1748C11.2705 15.1748 12.8358 14.4702 13.9682 13.3312C15.1008 12.1922 15.8017 10.6181 15.8017 8.87985C15.8017 7.14113 15.101 5.56729 13.9684 4.4283Z" fill="#374148" stroke="#F1F1F1" stroke-width="0.6"/>
<path d="M8.80459 4.50086C8.80621 4.08842 9.13993 3.75562 9.55006 3.75702C9.9602 3.75866 10.2911 4.09426 10.2897 4.50669L10.2879 4.74678C10.2863 5.15921 9.95254 5.49201 9.54241 5.49061C9.13228 5.48897 8.80133 5.15337 8.80273 4.74094L8.80459 4.50086ZM7.02146 11.165C6.79642 10.8191 6.8928 10.3548 7.23698 10.1283C7.58093 9.90199 8.04261 9.99891 8.26788 10.345C8.33244 10.4443 8.41907 10.5255 8.51893 10.5802C8.61159 10.6309 8.72191 10.6598 8.84244 10.6598H10.3046C10.4407 10.6598 10.5654 10.6031 10.6558 10.5122C10.7461 10.4214 10.8025 10.296 10.8025 10.1591C10.8025 10.1201 10.8016 10.0947 10.7997 10.0827C10.7958 10.0571 10.79 10.0318 10.7826 10.0087C10.6971 9.73804 10.1056 9.70324 9.51314 9.66868C8.50221 9.60936 7.48873 9.54981 6.99313 8.52782C6.9288 8.39798 6.87864 8.25528 6.84404 8.10371C6.81036 7.95541 6.79224 7.80571 6.79224 7.65788C6.79224 7.10695 7.01588 6.60671 7.37609 6.24472C7.73605 5.88273 8.23375 5.65782 8.78136 5.65782H10.2435C10.6133 5.65782 10.9663 5.75498 11.2777 5.925C11.5972 6.09945 11.8685 6.35051 12.0643 6.65201C12.2893 6.99789 12.1929 7.46217 11.8488 7.68871C11.5048 7.91501 11.0431 7.81809 10.8179 7.47198C10.7533 7.37272 10.6667 7.29145 10.5668 7.23704C10.4739 7.18636 10.3638 7.1574 10.2433 7.1574H8.78113C8.6448 7.1574 8.52032 7.21392 8.42998 7.305C8.33964 7.39585 8.28321 7.52126 8.28321 7.65811C8.28321 7.70155 8.28693 7.73915 8.29413 7.77021C8.30156 7.80244 8.31433 7.83747 8.33152 7.87274V7.87577C8.44369 8.10792 9.01987 8.14178 9.59466 8.17541C10.6994 8.23987 11.8023 8.30503 12.1978 9.55775C12.2285 9.6542 12.2517 9.75369 12.2675 9.85458C12.2847 9.96668 12.2937 10.069 12.2937 10.1594C12.2937 10.7098 12.0701 11.2105 11.7099 11.5725C11.3497 11.9347 10.852 12.1596 10.3046 12.1596H8.84244C8.47272 12.1596 8.11948 12.0625 7.80828 11.8925C7.48849 11.7178 7.21747 11.4665 7.0217 11.1655L7.02146 11.165ZM10.2921 13.2129C10.2921 13.627 9.95811 13.9626 9.54658 13.9626C9.13482 13.9626 8.8011 13.6268 8.8011 13.2129V13.052C8.8011 12.6379 9.13506 12.3023 9.54658 12.3023C9.95834 12.3023 10.2921 12.6382 10.2921 13.052V13.2129Z" fill="#22B0F5" stroke="#F1F1F1" stroke-width="0.6"/>
<path d="M17.5632 22.0478C17.9218 21.8475 18.3742 21.9771 18.5737 22.3377C18.7729 22.6983 18.644 23.1532 18.2854 23.3538C17.4598 23.8153 16.1992 24.1873 14.6881 24.4396C13.2138 24.6855 11.4894 24.8235 9.6954 24.8235C7.88835 24.8235 6.15423 24.6838 4.6751 24.4354C3.1616 24.1813 1.90008 23.8041 1.07796 23.337C0.721007 23.1348 0.594433 22.6798 0.795551 22.3209C0.99667 21.9619 1.44908 21.8346 1.80603 22.0369C2.47093 22.4147 3.56477 22.7321 4.91965 22.9596C6.30913 23.1931 7.95803 23.3242 9.6954 23.3242C11.4244 23.3242 13.0654 23.1945 14.4493 22.9638C15.7968 22.7389 16.8895 22.4246 17.5632 22.0481V22.0478Z" fill="#374148" stroke="#F1F1F1" stroke-width="0.6"/>
</svg>
