<svg width="296" height="99" viewBox="0 0 296 99" fill="none" xmlns="http://www.w3.org/2000/svg">
<path d="M51.4483 61.118H246.37C247.924 61.118 249.132 59.8231 249.132 58.3556V2.7624C249.132 1.20855 247.837 0 246.37 0H51.4483C49.8945 0 48.6859 1.20855 48.6859 2.7624V58.2693C48.6859 59.9095 49.9808 61.118 51.4483 61.118ZM58.6996 50.9317H55.8509C55.2466 50.9317 54.7287 50.4137 54.7287 49.8095V6.12907C54.7287 5.52479 55.2466 5.00684 55.8509 5.00684H58.6996C59.3039 5.00684 59.8218 5.52479 59.8218 6.12907V49.7231C59.8218 50.4137 59.3039 50.9317 58.6996 50.9317ZM241.363 51.018H238.514C237.91 51.018 237.392 50.5001 237.392 49.8958V6.21539C237.392 5.61112 237.91 5.09317 238.514 5.09317H241.363C241.967 5.09317 242.485 5.61112 242.485 6.21539V49.8095C242.485 50.5001 241.967 51.018 241.363 51.018ZM229.882 50.8454H227.033C226.429 50.8454 225.911 50.3274 225.911 49.7231V6.04274C225.911 5.43847 226.429 4.92052 227.033 4.92052H229.882C230.486 4.92052 231.004 5.43847 231.004 6.04274V49.6368C231.09 50.3274 230.572 50.8454 229.882 50.8454ZM218.401 51.018H215.552C214.948 51.018 214.43 50.5001 214.43 49.8958V6.21539C214.43 5.61112 214.948 5.09317 215.552 5.09317H218.401C219.005 5.09317 219.523 5.61112 219.523 6.21539V49.8095C219.523 50.5001 219.005 51.018 218.401 51.018ZM207.092 51.1043H204.243C203.639 51.1043 203.121 50.5864 203.121 49.9821V6.30172C203.121 5.69744 203.639 5.17949 204.243 5.17949H207.092C207.696 5.17949 208.214 5.69744 208.214 6.30172V49.8958C208.214 50.5864 207.696 51.1043 207.092 51.1043ZM195.611 50.9317H192.762C192.158 50.9317 191.64 50.4137 191.64 49.8095V6.12907C191.64 5.52479 192.158 5.00684 192.762 5.00684H195.611C196.215 5.00684 196.733 5.52479 196.733 6.12907V49.7231C196.733 50.4137 196.215 50.9317 195.611 50.9317ZM184.043 51.1043H181.195C180.59 51.1043 180.072 50.5864 180.072 49.9821V6.30172C180.072 5.69744 180.59 5.17949 181.195 5.17949H184.043C184.648 5.17949 185.166 5.69744 185.166 6.30172V49.8958C185.252 50.5864 184.734 51.1043 184.043 51.1043ZM173.08 50.9317H170.231C169.627 50.9317 169.109 50.4137 169.109 49.8095V6.12907C169.109 5.52479 169.627 5.00684 170.231 5.00684H173.08C173.684 5.00684 174.202 5.52479 174.202 6.12907V49.7231C174.202 50.4137 173.684 50.9317 173.08 50.9317ZM162.03 51.1043H159.182C158.577 51.1043 158.06 50.5864 158.06 49.9821V6.30172C158.06 5.69744 158.577 5.17949 159.182 5.17949H162.03C162.635 5.17949 163.153 5.69744 163.153 6.30172V49.8958C163.239 50.5864 162.721 51.1043 162.03 51.1043ZM150.981 50.9317H148.132C147.528 50.9317 147.01 50.4137 147.01 49.8095V6.12907C147.01 5.52479 147.528 5.00684 148.132 5.00684H150.981C151.585 5.00684 152.103 5.52479 152.103 6.12907V49.7231C152.103 50.4137 151.585 50.9317 150.981 50.9317ZM138.895 50.9317H136.047C135.442 50.9317 134.924 50.4137 134.924 49.8095V6.12907C134.924 5.52479 135.442 5.00684 136.047 5.00684H138.895C139.5 5.00684 140.018 5.52479 140.018 6.12907V49.7231C140.104 50.4137 139.586 50.9317 138.895 50.9317ZM127.328 50.9317H124.479C123.875 50.9317 123.357 50.4137 123.357 49.8095V6.12907C123.357 5.52479 123.875 5.00684 124.479 5.00684H127.328C127.932 5.00684 128.45 5.52479 128.45 6.12907V49.7231C128.45 50.4137 127.932 50.9317 127.328 50.9317ZM115.242 50.9317H112.394C111.789 50.9317 111.271 50.4137 111.271 49.8095V6.12907C111.271 5.52479 111.789 5.00684 112.394 5.00684H115.242C115.847 5.00684 116.365 5.52479 116.365 6.12907V49.7231C116.451 50.4137 115.847 50.9317 115.242 50.9317ZM103.675 51.1043H100.826C100.222 51.1043 99.7039 50.5864 99.7039 49.9821V6.30172C99.7039 5.69744 100.222 5.17949 100.826 5.17949H103.675C104.279 5.17949 104.797 5.69744 104.797 6.30172V49.8958C104.797 50.5864 104.279 51.1043 103.675 51.1043ZM92.1073 50.9317H89.2586C88.6543 50.9317 88.1364 50.4137 88.1364 49.8095V6.12907C88.1364 5.52479 88.6543 5.00684 89.2586 5.00684H92.1073C92.7116 5.00684 93.2295 5.52479 93.2295 6.12907V49.7231C93.2295 50.4137 92.7116 50.9317 92.1073 50.9317ZM80.7988 50.9317H77.9501C77.3458 50.9317 76.8278 50.4137 76.8278 49.8095V6.12907C76.8278 5.52479 77.3458 5.00684 77.9501 5.00684H80.7988C81.4031 5.00684 81.921 5.52479 81.921 6.12907V49.7231C82.0073 50.4137 81.4894 50.9317 80.7988 50.9317ZM69.9218 50.9317H67.0731C66.4688 50.9317 65.9509 50.4137 65.9509 49.8095V6.12907C65.9509 5.52479 66.4688 5.00684 67.0731 5.00684H69.9218C70.5261 5.00684 71.0441 5.52479 71.0441 6.12907V49.7231C71.0441 50.4137 70.5261 50.9317 69.9218 50.9317Z" fill="url(#paint0_linear)"/>
<path d="M120.077 85.0298C120.077 87.9649 118.868 90.5546 116.969 92.4538C115.07 94.3529 112.394 95.5615 109.545 95.5615H220.559C218.487 95.5615 216.502 94.9572 214.861 93.9213C213.48 92.9717 212.272 91.7632 211.408 90.2956H199.15C198.287 91.7632 197.165 92.9717 195.697 93.9213C194.057 94.9572 192.072 95.5615 190 95.5615C187.065 95.5615 184.475 94.3529 182.576 92.4538C180.677 90.5546 179.468 87.8785 179.468 85.0298C179.468 82.0948 180.677 79.505 182.576 77.6059L182.662 77.5196C184.561 75.7067 187.151 74.4982 190 74.4982C191.122 74.4982 192.331 74.6708 193.367 75.0161C194.316 75.3614 195.179 75.7931 195.956 76.311H200.014C199.755 76.1384 199.496 75.9657 199.409 75.7067C199.323 75.5341 199.15 75.3614 199.064 75.1888C198.891 75.0161 198.719 74.8435 198.632 74.6708C197.597 73.5486 196.388 72.6854 195.007 72.0811C193.626 71.4768 192.158 71.1315 190.604 71.1315C189.05 71.1315 187.583 71.4768 186.202 72.0811C184.82 72.6854 183.526 73.6349 182.576 74.6708C181.713 75.6204 170.922 87.1016 170.836 87.1879C170.49 87.5332 170.145 87.7059 169.714 87.7059H129.573C129.055 87.7059 128.623 87.4469 128.364 87.1016C127.414 86.0657 117.573 75.5341 116.71 74.6708C115.674 73.5486 114.466 72.6854 113.084 72.0811C111.703 71.4768 110.236 71.1315 108.682 71.1315C107.128 71.1315 105.661 71.4768 104.279 72.0811C102.898 72.6854 101.603 73.6349 100.654 74.6708C100.481 74.8435 100.395 75.0161 100.222 75.1888C100.049 75.3614 99.9631 75.6204 99.7904 75.7931C99.7041 75.9657 99.5314 76.052 99.4451 76.1384H103.934C104.711 75.6204 105.488 75.2751 106.437 74.9298C107.473 74.5845 108.509 74.4119 109.631 74.4119C112.566 74.4119 115.156 75.6204 117.055 77.5196C118.868 79.505 120.077 82.1811 120.077 85.0298ZM10.0988 95.5615C10.9621 95.5615 11.6527 96.2521 11.6527 97.1153C11.6527 97.9786 10.9621 98.6692 10.0988 98.6692H1.81168C0.948427 98.6692 0.257812 97.9786 0.257812 97.1153C0.257812 96.2521 0.948427 95.5615 1.81168 95.5615H10.0988ZM43.3339 95.5615C44.1972 95.5615 44.8878 96.2521 44.8878 97.1153C44.8878 97.9786 44.1972 98.6692 43.3339 98.6692H16.6596C15.7963 98.6692 15.1057 97.9786 15.1057 97.1153C15.1057 96.2521 15.7963 95.5615 16.6596 95.5615H43.3339ZM109.545 95.5615C107.387 95.5615 105.488 94.9572 103.761 93.835C102.38 92.8854 101.172 91.6768 100.308 90.123H88.1366C87.2733 91.5905 86.1511 92.8854 84.6836 93.835C83.0434 94.9572 81.0579 95.5615 78.8998 95.5615C75.9647 95.5615 73.375 94.3529 71.4759 92.4538C69.5767 90.5546 68.3681 87.9649 68.3681 85.0298C68.3681 82.0948 69.5767 79.505 71.4759 77.6059C73.375 75.7067 75.9647 74.4982 78.8998 74.4982C80.022 74.4982 81.0579 74.6708 82.0938 75.0161C82.9571 75.2751 83.8203 75.7067 84.5972 76.2247H88.6545C88.4818 76.1384 88.3092 75.9657 88.2229 75.7931C88.0502 75.6204 87.9639 75.3614 87.8776 75.2751C87.7049 75.1025 87.6186 74.9298 87.446 74.7572C86.4101 73.5486 85.2015 72.599 83.734 71.9084C82.3528 71.3042 80.7989 70.9589 79.1588 70.9589C77.5186 70.9589 75.9647 71.3042 74.5835 71.9084C73.116 72.599 71.9075 73.5486 70.8716 74.7572C70.5263 75.1888 70.0947 75.7067 69.8357 76.2247C69.4904 76.7426 69.2314 77.2606 69.0587 77.7785V77.8649C68.7134 78.7281 68.1092 79.4187 67.3322 79.9367C66.5553 80.4546 65.6921 80.7999 64.6562 80.7999H62.0664C61.4622 80.7999 60.9442 80.4546 60.6853 79.9367L57.8365 75.2751H25.8963C25.033 75.2751 24.3424 74.5845 24.3424 73.7213V73.5486V65.5204C24.3424 64.6572 25.033 63.9666 25.8963 63.9666H271.491C272.354 63.9666 273.044 64.6572 273.044 65.5204V65.6067L273.217 73.6349C273.217 74.4982 272.527 75.1888 271.75 75.1888H241.191L238.255 79.9367C237.997 80.4546 237.479 80.7136 236.961 80.7136H234.371C233.421 80.7136 232.472 80.3683 231.695 79.8503C230.918 79.3324 230.314 78.5555 229.968 77.6922C229.796 77.1743 229.45 76.6563 229.191 76.1384C228.846 75.6204 228.501 75.1025 228.156 74.6708C227.12 73.4623 225.911 72.5127 224.444 71.8221C223.062 71.2178 221.508 70.8725 219.868 70.8725C218.228 70.8725 216.674 71.2178 215.293 71.8221C213.826 72.5127 212.617 73.4623 211.581 74.6708C211.408 74.8435 211.322 75.0161 211.15 75.1888C211.063 75.3614 210.891 75.5341 210.718 75.7931C210.545 76.052 210.373 76.2247 210.114 76.311H214.603C215.379 75.7931 216.243 75.3614 217.192 75.0161C218.228 74.6708 219.35 74.4982 220.559 74.4982C223.494 74.4982 226.084 75.7067 227.983 77.6059C229.882 79.505 231.091 82.1811 231.091 85.0298C231.091 87.9649 229.882 90.5546 227.983 92.4538C226.084 94.3529 223.408 95.5615 220.559 95.5615H293.849C294.712 95.5615 295.403 96.2521 295.403 97.1153C295.403 97.9786 294.712 98.6692 293.849 98.6692H50.2399C49.3767 98.6692 48.6861 97.9786 48.6861 97.1153C48.6861 96.2521 49.3767 95.5615 50.2399 95.5615H109.545ZM223.149 84.5119L220.732 87.6196C221.422 87.6196 222.026 87.2743 222.458 86.8426C222.89 86.411 223.235 85.7204 223.235 85.0298C223.235 84.8572 223.235 84.6845 223.149 84.5119ZM187.928 79.8503C188.014 79.5914 188.101 79.3324 188.273 79.0734V78.9871L188.36 78.9008C188.446 78.8144 188.446 78.7281 188.532 78.7281L188.619 78.6418L188.705 78.5555C187.065 78.7281 185.597 79.505 184.475 80.6273L184.389 80.7136C183.008 82.0948 182.231 83.9076 182.231 85.9794C182.231 88.0512 183.094 89.864 184.389 91.2452C185.77 92.6264 187.583 93.4033 189.655 93.4033C191.122 93.4033 192.503 92.9717 193.626 92.1948C194.057 91.9358 194.489 91.5905 194.92 91.1589C194.661 91.3315 194.402 91.5042 194.144 91.6768C193.367 92.0221 192.503 92.2811 191.64 92.2811C190.086 92.2811 188.705 91.6768 187.669 90.6409C186.633 89.605 186.029 88.2238 186.029 86.67C186.029 85.3751 186.461 84.0802 187.238 83.1307C186.288 80.7999 187.065 80.1956 187.928 79.8503ZM221.336 81.7495V81.6632H216.674H197.079H193.971C193.885 81.6632 193.798 81.7495 193.798 81.7495C193.712 81.8358 193.539 81.9221 193.453 82.0085C193.194 82.2674 192.935 82.699 192.935 83.0443V83.1307V83.217L195.007 85.8931L196.302 87.6196L196.388 87.7059C196.388 87.7059 196.388 87.7059 196.474 87.7922H198.805H212.962H216.847C217.02 87.7922 217.192 87.7922 217.365 87.7059H217.451C217.451 87.7059 217.538 87.7059 217.538 87.6196L220.645 83.5623L220.991 83.0443L221.077 82.958V82.8717L221.336 81.7495ZM101.344 87.1016H104.711C104.797 87.0153 104.884 87.0153 104.97 86.929C105.056 86.929 105.056 86.8426 105.056 86.8426L101.344 87.1016ZM105.919 86.5837L109.459 82.0085L109.545 81.9221C109.545 81.8358 109.631 81.8358 109.631 81.7495C109.631 81.6632 109.631 81.5768 109.718 81.4905C109.718 81.4042 109.718 81.4042 109.718 81.3179C109.718 81.2315 109.718 81.2315 109.718 81.1452V81.0589V80.9726V80.8862H109.631C109.545 80.8862 109.545 80.8862 109.459 80.8862C109.372 80.8862 109.372 80.8862 109.286 80.8862H81.9212V80.9726C81.9212 81.0589 81.9212 81.0589 81.9212 81.1452L82.0075 81.2315L82.0938 81.3179L85.5468 85.7204L85.6331 85.8931L85.7195 85.9794H88.6545H101.344L105.919 86.5837ZM104.711 90.2093H104.107C104.538 90.6409 104.97 90.9862 105.402 91.3315C106.524 92.1085 107.991 92.5401 109.459 92.5401C111.531 92.5401 113.343 91.6768 114.725 90.382C116.106 89.0008 116.883 87.1879 116.883 85.1161C116.883 83.0443 116.019 81.2315 114.725 79.8503C113.948 79.0734 112.912 78.4691 111.876 78.0375V78.1238V78.2102V78.2965V78.3828C111.876 78.4691 111.876 78.4691 111.962 78.5555C112.049 78.7281 112.049 78.9008 112.049 79.0734C112.049 79.1597 112.049 79.2461 112.049 79.2461C112.567 79.6777 113.084 80.1956 113.43 80.7999C113.948 81.6632 114.293 82.6991 114.293 83.735C114.293 85.2888 113.689 86.67 112.653 87.7059C111.617 88.7418 110.236 89.3461 108.682 89.3461C107.991 89.3461 107.214 89.1734 106.61 88.9144C106.351 88.8281 106.006 88.6555 105.747 88.4828L104.711 90.2093ZM84.4246 90.2093H84.3382C84.0793 90.382 83.8203 90.5546 83.475 90.7273C82.7844 91.0726 81.9211 91.2452 81.1442 91.2452C79.5904 91.2452 78.2092 90.6409 77.1733 89.605C76.1374 88.5691 75.5331 87.1879 75.5331 85.6341C75.5331 84.4255 75.9647 83.3033 76.569 82.3538C77.087 81.6632 77.6913 81.1452 78.3819 80.7136C77.0007 81.0589 75.7921 81.7495 74.8425 82.699C73.4613 84.0802 72.6844 85.8931 72.6844 87.9649C72.6844 90.0367 73.5476 91.8495 74.8425 93.2307C76.2237 94.6119 78.0366 95.3888 80.1084 95.3888C81.5759 95.3888 83.0434 94.9572 84.1656 94.1803C83.5613 90.9862 83.993 90.6409 84.4246 90.2093ZM77.087 83.9076L77.0006 83.8213C76.7417 84.2529 76.569 84.7708 76.569 85.2888C76.569 85.9794 76.828 86.67 77.3459 87.1016C77.7776 87.5332 78.4681 87.8785 79.1588 87.8785C79.5041 87.8785 79.763 87.7922 80.022 87.7059L77.087 83.9076ZM226.343 85.0298C226.343 86.5837 225.738 87.9649 224.703 89.0008C223.667 90.0367 222.285 90.6409 220.732 90.6409C220.127 90.6409 219.437 90.5546 218.832 90.2956C218.573 90.2093 218.314 90.123 218.056 89.9503H217.969C217.796 90.0367 217.538 90.0367 217.279 90.123H217.192H216.243C216.588 90.4683 217.02 90.8136 217.451 91.0726C218.573 91.8495 219.955 92.2811 221.422 92.2811C223.494 92.2811 225.307 91.4179 226.688 90.123C228.069 88.7418 228.846 86.929 228.846 84.8572C228.846 82.7854 227.983 80.9726 226.688 79.5914C226.084 78.9871 225.307 78.3828 224.444 78.0375V78.1238V78.2102V78.2965C224.875 78.7281 225.307 79.2461 225.566 79.764C226.084 83.1307 226.343 84.0802 226.343 85.0298ZM190.173 87.5332C190.604 87.5332 190.949 87.4469 191.295 87.2743L188.705 83.9939L188.619 83.9076C188.532 83.8213 188.532 83.8213 188.446 83.735V83.6486V83.5623L188.36 83.6486C188.014 84.0803 187.842 84.5982 187.842 85.2888C187.842 85.9794 188.101 86.67 188.619 87.1016C188.791 87.2743 189.482 87.5332 190.173 87.5332ZM240.414 72.1674H270.282L270.196 67.1606H27.6228V72.1674H58.8724C59.3904 72.1674 59.9083 72.4264 60.1673 72.9443L63.1023 77.6922H64.8288C65.1741 77.6922 65.4331 77.6059 65.6921 77.4332C65.9511 77.2606 66.1237 77.0016 66.2964 76.6563C66.5554 75.9657 66.9006 75.2751 67.3322 74.5845C67.7639 73.8939 68.1955 73.2896 68.7135 72.6854C70.0083 71.1315 71.6485 69.923 73.4613 69.0597C75.2742 68.1965 77.2596 67.7648 79.3314 67.7648C81.4032 67.7648 83.3887 68.1965 85.2015 69.0597C87.0143 69.923 88.6545 71.1315 89.9494 72.6854C90.122 72.9443 90.2947 73.117 90.5536 73.376L90.6399 73.4623H97.805L97.8913 73.376C98.0639 73.117 98.2366 72.9443 98.4955 72.6854C99.7904 71.2178 101.431 70.0956 103.157 69.3187C104.884 68.5418 106.783 68.1101 108.768 68.1101C110.754 68.1101 112.653 68.5418 114.379 69.3187C116.192 70.0956 117.746 71.3042 119.041 72.6854C119.818 73.5486 128.191 82.4401 130.263 84.6845H169.023C171.095 82.5264 179.468 73.5486 180.245 72.6854C181.54 71.2178 183.18 70.0956 184.907 69.3187C186.633 68.5418 188.532 68.1101 190.518 68.1101C192.503 68.1101 194.402 68.5418 196.129 69.3187C197.942 70.0956 199.496 71.3042 200.791 72.6854C200.963 72.9443 201.222 73.117 201.395 73.376L201.481 73.4623H208.646V73.376C208.819 73.117 208.991 72.9443 209.164 72.6854C210.459 71.1315 212.099 69.923 213.912 69.0597C215.725 68.1965 217.71 67.7648 219.782 67.7648C221.854 67.7648 223.839 68.1965 225.652 69.0597C227.465 69.923 229.105 71.1315 230.4 72.6854C230.918 73.2896 231.35 73.8939 231.781 74.5845C232.213 75.1888 232.472 75.8794 232.817 76.6563C232.99 77.0016 233.162 77.2606 233.421 77.4332C233.68 77.6059 233.939 77.6922 234.285 77.6922H236.011L238.86 73.0307C239.291 72.5127 239.809 72.1674 240.414 72.1674ZM111.272 86.8426C111.703 86.411 112.049 85.7204 112.049 85.0298C112.049 84.6845 111.962 84.3392 111.876 83.9939L109.113 87.5332C109.2 87.5332 109.372 87.5332 109.459 87.5332C110.149 87.5332 110.84 87.2743 111.272 86.8426Z" fill="#374148"/>
<defs>
<linearGradient id="paint0_linear" x1="48.6813" y1="30.6141" x2="249.165" y2="30.6141" gradientUnits="userSpaceOnUse">
<stop stop-color="#008DD2"/>
<stop offset="1" stop-color="#003C5F"/>
</linearGradient>
</defs>
</svg>
