<svg width="316" height="95" viewBox="0 0 316 95" fill="none" xmlns="http://www.w3.org/2000/svg">
<path d="M174.548 65.4343L169.109 73.5488C168.85 73.9805 168.332 74.2394 167.814 74.2394H131.99L128.278 79.16C127.932 79.5916 127.501 79.7642 127.069 79.7642H124.048C123.012 79.7642 122.062 79.4189 121.199 78.901C120.336 78.383 119.731 77.5198 119.3 76.5702C119.041 76.0523 118.782 75.5343 118.523 75.1027C118.178 74.5847 117.832 74.1531 117.487 73.7215C116.451 72.5993 115.243 71.736 113.861 71.1317C112.48 70.5275 111.013 70.1822 109.459 70.1822C107.905 70.1822 106.437 70.5275 105.056 71.1317C103.675 71.736 102.38 72.6856 101.431 73.7215L101.344 73.8078C100.999 74.2394 100.654 74.6711 100.308 75.1027C99.9631 75.6206 99.7041 76.1386 99.4451 76.6565C99.0135 77.6061 98.4092 78.383 97.546 78.901C96.769 79.4189 95.8195 79.7642 94.7836 79.7642H94.6972C93.6613 79.7642 92.7118 79.4189 91.8485 78.901L91.7622 78.8147C90.9853 78.2967 90.381 77.4334 89.9494 76.5702C89.6904 76.0523 89.4314 75.5343 89.1724 75.1027C88.9135 74.6711 88.5682 74.1531 88.1365 73.7215C87.1006 72.5129 85.8921 71.5634 84.4246 70.8728C83.0434 70.2685 81.4895 69.9232 79.8493 69.9232C78.2092 69.9232 76.6553 70.2685 75.2741 70.8728C73.8066 71.5634 72.5981 72.5129 71.5622 73.7215C71.2169 74.1531 70.7852 74.6711 70.5263 75.189C70.181 75.707 69.922 76.2249 69.7493 76.8292C69.404 77.6924 68.7998 78.4694 68.0228 78.9873C67.2459 79.5053 66.3827 79.8506 65.3468 79.8506H62.757C62.1528 79.8506 61.6348 79.5053 61.3758 78.9873L58.5271 74.3258H35.1331C34.2698 74.3258 33.5792 73.6352 33.5792 72.7719V64.6574C33.5792 63.7941 34.2698 63.1035 35.1331 63.1035H76.6553V59.3916C76.6553 58.5283 77.3459 57.8377 78.2092 57.8377H88.3092C89.1724 57.8377 89.863 58.5283 89.863 59.3916V63.1035H155.47V59.3916C155.47 58.5283 156.161 57.8377 157.024 57.8377H166.692C167.555 57.8377 168.246 58.5283 168.246 59.3916V63.1035H173.426C174.289 63.1035 174.979 63.7941 174.979 64.6574C174.807 64.9164 174.72 65.1753 174.548 65.4343ZM10.0988 90.9865C10.9621 90.9865 11.6527 91.6771 11.6527 92.5403C11.6527 93.4036 10.9621 94.0942 10.0988 94.0942H1.81166C0.948412 94.0942 0.257812 93.4036 0.257812 92.5403C0.257812 91.6771 0.948412 90.9865 1.81166 90.9865H10.0988ZM46.4416 90.9865C47.3049 90.9865 47.9955 91.6771 47.9955 92.5403C47.9955 93.4036 47.3049 94.0942 46.4416 94.0942H16.6595C15.7963 94.0942 15.1057 93.4036 15.1057 92.5403C15.1057 91.6771 15.7963 90.9865 16.6595 90.9865H46.4416ZM313.962 90.9865C314.826 90.9865 315.516 91.6771 315.516 92.5403C315.516 93.4036 314.826 94.0942 313.962 94.0942H53.2613C52.398 94.0942 51.7074 93.4036 51.7074 92.5403C51.7074 91.6771 52.398 90.9865 53.2613 90.9865H194.575C191.985 90.9001 189.655 89.7779 187.842 88.0514C186.029 86.2386 184.907 83.6488 184.907 80.8864C184.907 78.1241 186.029 75.5343 187.842 73.7215C189.655 71.9087 192.244 70.7864 195.007 70.7864C197.769 70.7864 200.359 71.9087 202.172 73.7215C203.985 75.5343 205.107 78.1241 205.107 80.8864C205.107 83.6488 203.985 86.2386 202.172 88.0514C200.445 89.7779 198.114 90.9001 195.438 90.9865H263.376C260.786 90.9001 258.456 89.7779 256.643 88.0514C254.83 86.2386 253.708 83.6488 253.708 80.8864C253.708 78.1241 254.83 75.5343 256.643 73.7215C258.456 71.9087 261.045 70.7864 263.808 70.7864C266.57 70.7864 269.16 71.9087 270.973 73.7215C272.785 75.5343 273.908 78.1241 273.908 80.8864C273.908 83.6488 272.785 86.2386 270.973 88.0514C269.246 89.7779 266.915 90.9001 264.239 90.9865H313.962ZM85.5468 80.7138C85.5468 82.1813 84.9425 83.5625 83.9066 84.5984C82.9571 85.548 81.5759 86.2386 80.022 86.2386C78.5545 86.2386 77.1733 85.6343 76.1374 84.5984C75.1878 83.6489 74.4972 82.2677 74.4972 80.7138C74.4972 79.2463 75.1015 77.8651 76.1374 76.8292C77.1733 75.7933 78.4682 75.189 80.022 75.189C81.4895 75.189 82.8707 75.7933 83.9066 76.8292C84.9425 77.7788 85.5468 79.16 85.5468 80.7138ZM81.8348 82.354C82.2664 81.9224 82.5254 81.3181 82.5254 80.6275C82.5254 79.9369 82.2664 79.3326 81.8348 78.901C81.4032 78.4694 80.7989 78.2104 80.1083 78.2104C79.4177 78.2104 78.8135 78.4694 78.3818 78.901C77.9502 79.3326 77.6912 79.9369 77.6912 80.6275C77.6912 81.3181 77.9502 81.9224 78.3818 82.354C78.8135 82.7856 79.4177 83.0446 80.1083 83.0446C80.7989 83.0446 81.4032 82.7856 81.8348 82.354ZM90.2947 80.7138C90.2947 83.4762 89.1724 86.0659 87.3596 87.8788C85.5468 89.6916 82.957 90.8138 80.1946 90.8138C77.4323 90.8138 74.8425 89.6916 73.0297 87.8788C71.2169 86.0659 70.0946 83.4762 70.0946 80.7138C70.0946 77.9514 71.2169 75.3617 73.0297 73.5488C74.8425 71.736 77.4323 70.6138 80.1946 70.6138C82.957 70.6138 85.5468 71.736 87.3596 73.5488C89.1724 75.448 90.2947 77.9514 90.2947 80.7138ZM85.1152 85.7206C86.41 84.4258 87.187 82.6993 87.187 80.7138C87.187 78.8147 86.41 77.0018 85.1152 75.707C83.8203 74.4121 82.0938 73.6352 80.1083 73.6352C78.2092 73.6352 76.3964 74.4121 75.1015 75.707C73.8066 77.0018 73.0297 78.7283 73.0297 80.7138C73.0297 82.613 73.8066 84.4258 75.1015 85.7206C76.3964 87.0155 78.1229 87.7924 80.1083 87.7924C82.0938 87.7924 83.9066 87.0155 85.1152 85.7206ZM114.725 80.7138C114.725 82.2677 114.12 83.5625 113.084 84.5984L112.998 84.6848C112.049 85.6343 110.667 86.2386 109.2 86.2386C107.732 86.2386 106.351 85.6343 105.315 84.5984C104.279 83.5625 103.675 82.2677 103.675 80.7138C103.675 79.2463 104.279 77.8651 105.315 76.8292C106.351 75.8796 107.646 75.189 109.2 75.189C110.667 75.189 112.049 75.7933 113.084 76.8292C114.12 77.7788 114.725 79.16 114.725 80.7138ZM110.926 82.354C111.358 81.9224 111.617 81.3181 111.617 80.6275C111.617 79.9369 111.358 79.3326 110.926 78.901C110.495 78.4694 109.89 78.2104 109.2 78.2104C108.509 78.2104 107.905 78.4694 107.473 78.901C107.042 79.3326 106.783 79.9369 106.783 80.6275C106.783 81.3181 107.042 81.9224 107.473 82.354C107.905 82.7856 108.509 83.0446 109.2 83.0446C109.89 83.0446 110.495 82.8719 110.926 82.354ZM119.472 80.7138C119.472 83.4762 118.35 86.0659 116.537 87.8788C114.725 89.6916 112.135 90.8138 109.372 90.8138C106.61 90.8138 104.02 89.6916 102.207 87.8788C100.395 86.0659 99.2725 83.4762 99.2725 80.7138C99.2725 77.9514 100.395 75.3617 102.207 73.5488C104.02 71.736 106.61 70.6138 109.372 70.6138C112.135 70.6138 114.725 71.736 116.537 73.5488C118.35 75.448 119.472 77.9514 119.472 80.7138ZM114.293 85.7206C115.588 84.4258 116.365 82.6993 116.365 80.7138C116.365 78.8147 115.588 77.0018 114.293 75.707C112.998 74.4121 111.272 73.6352 109.286 73.6352C107.301 73.6352 105.574 74.4121 104.279 75.707C102.984 77.0018 102.207 78.7283 102.207 80.7138C102.207 82.613 102.984 84.4258 104.279 85.7206C105.574 87.0155 107.301 87.7924 109.286 87.7924C111.272 87.7924 112.998 87.0155 114.293 85.7206ZM269.332 80.8001C269.332 82.2677 268.728 83.6489 267.692 84.6848C266.743 85.6343 265.362 86.3249 263.808 86.3249C262.34 86.3249 260.959 85.7207 259.923 84.6848C258.887 83.6489 258.283 82.354 258.283 80.8001C258.283 79.2463 258.887 77.9514 259.923 76.9155L260.009 76.8292C260.959 75.8796 262.34 75.2753 263.808 75.2753C265.362 75.2753 266.656 75.8796 267.692 76.9155C268.728 77.9514 269.332 79.3326 269.332 80.8001ZM265.534 82.5266C265.966 82.095 266.225 81.4907 266.225 80.8001C266.225 80.1095 265.966 79.5053 265.534 79.0736C265.103 78.642 264.498 78.383 263.808 78.383C263.203 78.383 262.599 78.642 262.168 78.9873L262.081 79.0736C261.65 79.5053 261.391 80.1095 261.391 80.8001C261.391 81.4907 261.65 82.095 262.081 82.5266C262.513 82.9583 263.117 83.2172 263.808 83.2172C264.498 83.2172 265.103 82.9583 265.534 82.5266ZM268.901 85.8933C270.196 84.5984 270.973 82.8719 270.973 80.8864C270.973 78.9873 270.196 77.1745 268.901 75.8796C267.606 74.5847 265.879 73.8078 263.894 73.8078C261.995 73.8078 260.182 74.5847 258.887 75.8796C257.592 77.1745 256.815 78.901 256.815 80.8864C256.815 82.7856 257.592 84.5984 258.887 85.8933C260.182 87.1882 261.909 87.9651 263.894 87.9651C265.879 87.9651 267.606 87.1019 268.901 85.8933ZM200.532 80.8001C200.532 82.2677 199.927 83.6489 198.891 84.6848C197.942 85.6343 196.561 86.3249 195.007 86.3249C193.453 86.3249 192.158 85.7207 191.122 84.6848L191.036 84.5984C190.086 83.6489 189.482 82.2677 189.482 80.8001C189.482 79.3326 190.086 77.9514 191.122 76.9155C192.072 75.966 193.453 75.2753 195.007 75.2753C196.561 75.2753 197.855 75.8796 198.891 76.9155C199.927 77.9514 200.532 79.3326 200.532 80.8001ZM196.733 82.5266C197.165 82.095 197.424 81.4907 197.424 80.8001C197.424 80.1095 197.165 79.5053 196.733 79.0736C196.302 78.642 195.697 78.383 195.007 78.383C194.316 78.383 193.712 78.642 193.28 79.0736C192.849 79.5053 192.59 80.1095 192.59 80.8001C192.59 81.4044 192.849 82.0087 193.194 82.4403L193.28 82.5266C193.712 82.9583 194.316 83.2172 195.007 83.2172C195.697 83.2172 196.302 82.9583 196.733 82.5266ZM200.1 85.8933C201.395 84.5984 202.172 82.8719 202.172 80.8864C202.172 78.9873 201.395 77.1745 200.1 75.8796C198.805 74.5847 197.079 73.8078 195.093 73.8078C193.194 73.8078 191.381 74.5847 190.086 75.8796C188.791 77.1745 188.014 78.901 188.014 80.8864C188.014 82.7856 188.791 84.5984 190.086 85.8933C191.381 87.1882 193.108 87.9651 195.093 87.9651C196.992 87.9651 198.805 87.1019 200.1 85.8933ZM266.743 46.4428V31.2496C266.743 30.3864 267.433 29.6958 268.297 29.6958H274.685C276.756 29.6958 278.742 30.4727 280.296 31.6813C281.85 32.8898 282.972 34.7027 283.403 36.7745L284.957 44.2847C285.044 44.5437 285.044 44.7163 285.044 44.889C285.044 45.5796 284.785 46.2702 284.353 46.7881C283.921 47.3061 283.317 47.7377 282.626 47.824C282.368 47.9104 282.195 47.9104 282.022 47.9104H268.469C267.433 47.9967 266.743 47.3061 266.743 46.4428ZM269.85 32.8035V44.889H281.85C281.332 42.3856 280.9 39.8821 280.296 37.3787C280.037 36.0838 279.26 34.8753 278.31 34.0984C277.274 33.3215 276.066 32.8035 274.685 32.8035H269.85ZM284.008 83.2172H284.18C285.216 83.1309 286.166 82.6993 286.856 82.0087C287.547 81.3181 287.979 80.3685 287.979 79.3326V79.16L286.338 42.1266C285.821 35.9975 283.231 30.5591 279.346 26.4155C275.548 22.4445 270.368 19.8548 264.498 19.3368L241.709 17.4377C241.536 17.4377 241.363 17.524 241.277 17.6103C241.191 17.6966 241.104 17.8693 241.104 18.0419L240.327 64.1394C240.327 65.0027 239.637 65.6933 238.773 65.6933H184.648C183.353 65.6933 182.144 66.2112 181.281 67.0745C180.418 67.9377 179.9 69.1463 179.9 70.4412V83.2172H179.986C180.159 83.2172 180.332 83.1309 180.418 83.0446C180.504 82.9582 180.59 82.7856 180.59 82.6129V81.7497C180.59 77.7788 182.231 74.1531 184.82 71.477C187.41 68.801 191.036 67.1608 195.007 67.0745C195.266 67.0745 195.179 67.0745 195.266 67.0745C199.323 67.0745 202.949 68.801 205.625 71.477C208.301 74.1531 209.941 77.8651 210.027 81.836C210.027 82.1813 210.027 82.0087 210.027 82.095V83.2172H248.873V79.6779C248.873 75.707 250.514 72.0813 253.103 69.4052C255.693 66.7292 259.319 65.089 263.29 65.0027C263.549 65.0027 263.462 65.0027 263.549 65.0027C267.606 65.0027 271.232 66.7292 273.908 69.4052C276.584 72.0813 278.224 75.7933 278.31 79.7642C278.31 80.0232 278.31 79.9369 278.31 80.0232V83.2172H284.008ZM284.353 86.3249H284.008H276.756C275.893 86.3249 275.203 85.6343 275.203 84.7711V80.0232C275.203 79.6779 275.203 79.9369 275.203 79.7642C275.116 76.5702 273.821 73.6352 271.663 71.477C269.591 69.3189 266.656 68.024 263.549 68.024C263.29 68.024 263.462 68.024 263.376 68.024C260.182 68.1104 257.333 69.4052 255.348 71.477C253.276 73.5488 252.068 76.3976 252.068 79.5916V84.6848C252.068 85.548 251.377 86.2386 250.514 86.2386H208.56C207.697 86.2386 207.006 85.548 207.006 84.6848V82.0087C207.006 81.6634 207.006 81.9223 207.006 81.7497C206.92 78.5557 205.625 75.6206 203.467 73.4625C201.395 71.3044 198.546 70.0095 195.352 70.0095C195.093 70.0095 195.266 70.0095 195.093 70.0095C191.899 70.0959 189.05 71.3907 187.065 73.4625C184.993 75.5343 183.785 78.383 183.785 81.5771V82.4403C183.785 83.4762 183.353 84.4258 182.662 85.1164C181.972 85.807 181.022 86.2386 179.986 86.2386H178.346C177.483 86.2386 176.792 85.548 176.792 84.6848V70.3548C176.792 68.1967 177.655 66.2112 179.123 64.7437C180.59 63.2762 182.49 62.4129 184.734 62.4129H191.554V60.8591H201.913V62.4129H237.133L237.824 17.8693C237.824 16.8334 238.256 15.9701 238.946 15.2795C239.637 14.5889 240.5 14.2437 241.536 14.2437H241.622L264.498 16.1428C271.232 16.6607 277.015 19.6821 281.332 24.171C285.734 28.7462 288.583 34.8753 289.187 41.695C289.187 41.7813 289.187 41.7813 289.187 41.8676L290.827 78.901V79.2463C290.827 81.1454 290.05 82.7856 288.842 84.0805C287.892 85.3754 286.166 86.2386 284.353 86.3249ZM167.037 71.1317L170.404 66.1249H166.606C165.743 66.1249 165.052 65.4343 165.052 64.571V60.8591H158.405V64.571C158.405 65.4343 157.714 66.1249 156.851 66.1249H88.1365C87.2733 66.1249 86.5827 65.4343 86.5827 64.571V60.8591H79.5904V64.571C79.5904 65.4343 78.8998 66.1249 78.0365 66.1249H36.6869V71.1317H59.6493C60.1673 71.1317 60.6852 71.3907 60.9442 71.9087L63.8792 76.6565H65.6057C65.951 76.6565 66.21 76.5702 66.469 76.3976C66.728 76.2249 66.9869 75.966 67.0733 75.6206C67.3322 74.93 67.6775 74.2394 68.1092 73.5488C68.5408 72.8582 68.9724 72.254 69.4904 71.6497C70.7852 70.0959 72.4254 68.8873 74.2382 68.024C76.0511 67.1608 78.0365 66.7292 80.1083 66.7292C82.1801 66.7292 84.1656 67.1608 85.9784 68.024C87.7912 68.8873 89.4314 70.0959 90.7263 71.6497C91.1579 72.1676 91.5895 72.7719 92.0212 73.3762C92.3665 73.9805 92.7118 74.6711 93.0571 75.2753C93.2297 75.6206 93.4887 75.9659 93.7477 76.2249C94.093 76.3976 94.4383 76.5702 94.7836 76.5702H94.8699C95.3015 76.5702 95.6468 76.4839 95.9058 76.2249C96.2511 75.9659 96.5101 75.707 96.6827 75.2753C96.9417 74.5847 97.3733 73.8941 97.7186 73.2899C98.0639 72.6856 98.4955 72.1676 99.0135 71.5634L99.0998 71.477C100.395 70.0095 102.035 68.8873 103.761 68.1104C105.488 67.3335 107.387 66.9018 109.372 66.9018C111.358 66.9018 113.257 67.3335 114.984 68.1104C116.796 68.8873 118.35 70.0958 119.645 71.477C120.163 72.0813 120.595 72.5993 121.026 73.2035C121.458 73.8078 121.803 74.4984 122.062 75.1027C122.235 75.5343 122.494 75.8796 122.925 76.0523C123.271 76.3112 123.616 76.3976 124.048 76.3976H126.292L129.918 71.5634C130.177 71.1317 130.695 70.8728 131.213 70.8728L167.037 71.1317Z" fill="#374148"/>
<path d="M36.7736 61.0317H231.609C233.163 61.0317 234.371 59.7368 234.371 58.2693V2.76238C234.371 1.20853 233.076 0 231.609 0H36.7736C35.2197 0 34.0112 1.20853 34.0112 2.76238V58.2693C33.9248 59.8231 35.2197 61.0317 36.7736 61.0317ZM43.9385 50.8454H41.0898C40.4855 50.8454 39.9676 50.3274 39.9676 49.7231V6.12907C39.9676 5.5248 40.4855 5.00683 41.0898 5.00683H43.9385C44.5428 5.00683 45.0607 5.5248 45.0607 6.12907V49.7231C45.0607 50.3274 44.5428 50.8454 43.9385 50.8454ZM226.602 50.9317H223.753C223.149 50.9317 222.631 50.4137 222.631 49.8094V6.21538C222.631 5.6111 223.149 5.09316 223.753 5.09316H226.602C227.206 5.09316 227.724 5.6111 227.724 6.21538V49.8094C227.811 50.4137 227.293 50.9317 226.602 50.9317ZM215.121 50.759H212.272C211.668 50.759 211.15 50.2411 211.15 49.6368V6.04274C211.15 5.43847 211.668 4.9205 212.272 4.9205H215.121C215.725 4.9205 216.243 5.43847 216.243 6.04274V49.5505C216.329 50.2411 215.811 50.759 215.121 50.759ZM203.64 50.9317H200.791C200.187 50.9317 199.669 50.4137 199.669 49.8094V6.21538C199.669 5.6111 200.187 5.09316 200.791 5.09316H203.64C204.244 5.09316 204.762 5.6111 204.762 6.21538V49.8094C204.762 50.4137 204.244 50.9317 203.64 50.9317ZM192.331 51.018H189.482C188.878 51.018 188.36 50.5 188.36 49.8958V6.30171C188.36 5.69743 188.878 5.17949 189.482 5.17949H192.331C192.935 5.17949 193.453 5.69743 193.453 6.30171V49.8958C193.453 50.5 192.935 51.018 192.331 51.018ZM180.85 50.8454H178.001C177.397 50.8454 176.879 50.3274 176.879 49.7231V6.12907C176.879 5.5248 177.397 5.00683 178.001 5.00683H180.85C181.454 5.00683 181.972 5.5248 181.972 6.12907V49.7231C181.972 50.3274 181.454 50.8454 180.85 50.8454ZM169.369 51.018H166.52C165.916 51.018 165.398 50.5 165.398 49.8958V6.30171C165.398 5.69743 165.916 5.17949 166.52 5.17949H169.369C169.973 5.17949 170.491 5.69743 170.491 6.30171V49.8958C170.491 50.5 169.973 51.018 169.369 51.018ZM158.319 50.8454H155.47C154.866 50.8454 154.348 50.3274 154.348 49.7231V6.12907C154.348 5.5248 154.866 5.00683 155.47 5.00683H158.319C158.923 5.00683 159.441 5.5248 159.441 6.12907V49.7231C159.441 50.3274 158.923 50.8454 158.319 50.8454ZM147.356 51.018H144.507C143.903 51.018 143.385 50.5 143.385 49.8958V6.30171C143.385 5.69743 143.903 5.17949 144.507 5.17949H147.356C147.96 5.17949 148.478 5.69743 148.478 6.30171V49.8958C148.478 50.5 147.96 51.018 147.356 51.018ZM136.22 50.8454H133.371C132.767 50.8454 132.249 50.3274 132.249 49.7231V6.12907C132.249 5.5248 132.767 5.00683 133.371 5.00683H136.22C136.824 5.00683 137.342 5.5248 137.342 6.12907V49.7231C137.428 50.3274 136.91 50.8454 136.22 50.8454ZM124.221 50.8454H121.372C120.768 50.8454 120.25 50.3274 120.25 49.7231V6.12907C120.25 5.5248 120.768 5.00683 121.372 5.00683H124.221C124.825 5.00683 125.343 5.5248 125.343 6.12907V49.7231C125.343 50.3274 124.825 50.8454 124.221 50.8454ZM112.567 50.8454H109.718C109.114 50.8454 108.596 50.3274 108.596 49.7231V6.12907C108.596 5.5248 109.114 5.00683 109.718 5.00683H112.567C113.171 5.00683 113.689 5.5248 113.689 6.12907V49.7231C113.775 50.3274 113.257 50.8454 112.567 50.8454ZM100.481 50.8454H97.6326C97.0283 50.8454 96.5104 50.3274 96.5104 49.7231V6.12907C96.5104 5.5248 97.0283 5.00683 97.6326 5.00683H100.481C101.086 5.00683 101.604 5.5248 101.604 6.12907V49.7231C101.69 50.3274 101.172 50.8454 100.481 50.8454ZM88.9138 51.018H86.0651C85.4608 51.018 84.9428 50.5 84.9428 49.8958V6.30171C84.9428 5.69743 85.4608 5.17949 86.0651 5.17949H88.9138C89.5181 5.17949 90.036 5.69743 90.036 6.30171V49.8958C90.1223 50.5 89.5181 51.018 88.9138 51.018ZM77.3462 50.8454H74.4975C73.8933 50.8454 73.3753 50.3274 73.3753 49.7231V6.12907C73.3753 5.5248 73.8933 5.00683 74.4975 5.00683H77.3462C77.9505 5.00683 78.4685 5.5248 78.4685 6.12907V49.7231C78.4685 50.3274 77.9505 50.8454 77.3462 50.8454ZM66.124 50.8454H63.2753C62.671 50.8454 62.1531 50.3274 62.1531 49.7231V6.12907C62.1531 5.5248 62.671 5.00683 63.2753 5.00683H66.124C66.7283 5.00683 67.2462 5.5248 67.2462 6.12907V49.7231C67.2462 50.3274 66.7283 50.8454 66.124 50.8454ZM55.1608 50.8454H52.312C51.7078 50.8454 51.1898 50.3274 51.1898 49.7231V6.12907C51.1898 5.5248 51.7078 5.00683 52.312 5.00683H55.1608C55.765 5.00683 56.283 5.5248 56.283 6.12907V49.7231C56.3693 50.3274 55.8514 50.8454 55.1608 50.8454Z" fill="url(#paint0_linear)"/>
<defs>
<linearGradient id="paint0_linear" x1="34.0024" y1="30.5708" x2="234.404" y2="30.5708" gradientUnits="userSpaceOnUse">
<stop stop-color="#008DD2"/>
<stop offset="1" stop-color="#003C5F"/>
</linearGradient>
</defs>
</svg>
