<svg width="316" height="95" viewBox="0 0 316 95" fill="none" xmlns="http://www.w3.org/2000/svg">
<path d="M140.795 65.6507L146.234 73.7652C146.493 74.1969 147.011 74.4558 147.529 74.4558H183.353L186.979 79.3764C187.324 79.808 187.756 79.9806 188.188 79.9806H191.295C192.331 79.9806 193.281 79.6353 194.144 79.1174C195.007 78.5994 195.612 77.7362 196.043 76.7866C196.302 76.2687 196.561 75.7507 196.906 75.3191C197.252 74.8011 197.597 74.3695 197.942 73.9379C198.978 72.8157 200.187 71.9524 201.568 71.3481C202.949 70.7439 204.417 70.3985 205.971 70.3985C207.524 70.3985 208.992 70.7439 210.373 71.3481C211.754 71.9524 213.049 72.902 213.999 73.9379C214.43 74.3695 214.776 74.8011 215.035 75.3191C215.38 75.837 215.639 76.355 215.898 76.8729C216.329 77.8225 216.934 78.5994 217.797 79.1174C218.574 79.6353 219.524 79.9806 220.559 79.9806H220.646C221.682 79.9806 222.631 79.6353 223.494 79.1174C224.271 78.5994 224.962 77.7362 225.394 76.7866C225.653 76.2687 225.912 75.7507 226.171 75.3191C226.43 74.8874 226.775 74.3695 227.206 73.9379C228.242 72.7293 229.451 71.7798 230.918 71.0892C232.3 70.4849 233.853 70.1396 235.494 70.1396C237.134 70.1396 238.688 70.4849 240.069 71.0892C241.536 71.7798 242.745 72.7293 243.781 73.9379C244.126 74.3695 244.558 74.8875 244.817 75.4054C245.162 75.9234 245.421 76.4413 245.594 76.9593C245.939 77.8225 246.543 78.5994 247.32 79.1174C248.097 79.6353 248.96 79.9806 249.996 79.9806H252.586C253.19 79.9806 253.708 79.6353 253.967 79.1174L256.816 74.4558H280.296C281.159 74.4558 281.85 73.7652 281.85 72.902V64.7874C281.85 63.9242 281.159 63.2336 280.296 63.2336H238.774V59.5216C238.774 58.6584 238.083 57.9678 237.22 57.9678H227.12C226.257 57.9678 225.566 58.6584 225.566 59.5216V63.2336H159.959V59.5216C159.959 58.6584 159.269 57.9678 158.405 57.9678H148.737C147.874 57.9678 147.183 58.6584 147.183 59.5216V63.2336H142.004C141.141 63.2336 140.45 63.9242 140.45 64.7874C140.536 65.1327 140.623 65.3917 140.795 65.6507ZM305.417 91.1165C304.554 91.1165 303.863 91.8072 303.863 92.6704C303.863 93.5337 304.554 94.2242 305.417 94.2242H313.704C314.567 94.2242 315.258 93.5337 315.258 92.6704C315.258 91.8072 314.567 91.1165 313.704 91.1165H305.417ZM269.074 91.1165C268.211 91.1165 267.52 91.8072 267.52 92.6704C267.52 93.5337 268.211 94.2242 269.074 94.2242H298.856C299.719 94.2242 300.41 93.5337 300.41 92.6704C300.41 91.8072 299.719 91.1165 298.856 91.1165H269.074ZM1.55319 91.1165C0.689941 91.1165 -0.000671387 91.8072 -0.000671387 92.6704C-0.000671387 93.5337 0.689941 94.2242 1.55319 94.2242H262.254C263.118 94.2242 263.808 93.5337 263.808 92.6704C263.808 91.8072 263.118 91.1165 262.254 91.1165H121.89C124.652 91.1165 127.242 89.9943 129.055 88.1815C130.868 86.3687 131.99 83.7789 131.99 81.0165C131.99 78.2542 130.868 75.6644 129.055 73.8515C127.242 72.0387 124.652 70.9165 121.89 70.9165C119.128 70.9165 116.538 72.0387 114.725 73.8515C112.912 75.6644 111.79 78.2542 111.79 81.0165C111.79 83.7789 112.912 86.3687 114.725 88.1815C116.538 89.9943 119.128 91.1165 121.89 91.1165H53.0028C55.7652 91.1165 58.3549 89.9943 60.1678 88.1815C61.9806 86.3687 63.1028 83.7789 63.1028 81.0165C63.1028 78.2542 61.9806 75.6644 60.1678 73.8515C58.3549 72.0387 55.7652 70.9165 53.0028 70.9165C50.2404 70.9165 47.6507 72.0387 45.8379 73.8515C44.025 75.6644 42.9028 78.2542 42.9028 81.0165C42.9028 83.7789 44.025 86.3687 45.8379 88.1815C47.6507 89.9943 50.2404 91.1165 53.0028 91.1165H1.55319ZM229.796 80.9302C229.796 82.3977 230.4 83.7789 231.436 84.8148C232.472 85.8507 233.767 86.455 235.321 86.455C236.875 86.455 238.17 85.8507 239.206 84.8148L239.292 84.7285C240.241 83.7789 240.846 82.3977 240.846 80.9302C240.846 79.3763 240.241 78.0815 239.206 77.0456L239.119 76.9593C238.17 76.0097 236.788 75.4054 235.321 75.4054C233.767 75.4054 232.472 76.0097 231.436 77.0456C230.4 77.9951 229.796 79.3763 229.796 80.9302ZM233.594 82.5704C233.163 82.1388 232.904 81.5345 232.904 80.8439C232.904 80.1533 233.163 79.549 233.594 79.1174C234.026 78.6858 234.63 78.4268 235.321 78.4268C235.925 78.4268 236.53 78.6857 236.961 79.031L237.047 79.1174C237.479 79.549 237.738 80.1533 237.738 80.8439C237.738 81.4482 237.479 82.0524 237.134 82.484L237.047 82.5704C236.616 83.002 236.012 83.261 235.321 83.261C234.63 83.261 234.026 83.002 233.594 82.5704ZM225.135 81.0165C225.135 83.7789 226.257 86.3687 228.07 88.1815C229.883 89.9943 232.472 91.1165 235.235 91.1165C237.997 91.1165 240.587 89.9943 242.4 88.1815C244.212 86.3687 245.335 83.7789 245.335 81.0165C245.335 78.2542 244.212 75.6644 242.4 73.8515C240.587 72.0387 237.997 70.9165 235.235 70.9165C232.472 70.9165 229.883 72.0387 228.07 73.8515C226.257 75.6644 225.135 78.1678 225.135 81.0165ZM230.228 85.937C228.933 84.6422 228.156 82.9157 228.156 80.9302C228.156 79.031 228.933 77.2182 230.228 75.9234C231.523 74.6285 233.249 73.8515 235.235 73.8515C237.134 73.8515 238.947 74.6285 240.241 75.9234C241.536 77.2182 242.313 78.9447 242.313 80.9302C242.313 82.8293 241.536 84.6422 240.241 85.937C238.947 87.2319 237.22 88.0088 235.235 88.0088C233.249 88.0088 231.523 87.2319 230.228 85.937ZM200.618 80.9302C200.618 82.3977 201.223 83.7789 202.259 84.8148C203.208 85.7644 204.589 86.455 206.143 86.455C207.611 86.455 208.992 85.8507 210.028 84.8148C210.977 83.8652 211.668 82.484 211.668 80.9302C211.668 79.3763 211.064 78.0815 210.028 77.0456C209.078 76.096 207.697 75.4054 206.143 75.4054C204.676 75.4054 203.294 76.0097 202.259 77.0456C201.223 77.9951 200.618 79.3763 200.618 80.9302ZM204.417 82.5704C203.985 82.1388 203.726 81.5345 203.726 80.8439C203.726 80.1533 203.985 79.549 204.417 79.1174C204.848 78.6858 205.453 78.4268 206.143 78.4268C206.834 78.4268 207.438 78.6858 207.87 79.1174C208.301 79.549 208.56 80.1533 208.56 80.8439C208.56 81.5345 208.301 82.1388 207.87 82.5704C207.438 83.002 206.834 83.261 206.143 83.261C205.453 83.261 204.848 83.002 204.417 82.5704ZM195.957 81.0165C195.957 83.7789 197.079 86.3687 198.892 88.1815C200.705 89.9943 203.294 91.1165 206.057 91.1165C208.819 91.1165 211.409 89.9943 213.222 88.1815C215.035 86.3687 216.157 83.7789 216.157 81.0165C216.157 78.2542 215.035 75.6644 213.222 73.8515C211.409 72.0387 208.819 70.9165 206.057 70.9165C203.294 70.9165 200.705 72.0387 198.892 73.8515C197.079 75.6644 195.957 78.1678 195.957 81.0165ZM201.05 85.937C199.755 84.6422 198.978 82.9157 198.978 80.9302C198.978 79.031 199.755 77.2182 201.05 75.9234C202.345 74.6285 204.071 73.8515 206.057 73.8515C207.956 73.8515 209.769 74.6285 211.064 75.9234C212.359 77.2182 213.135 78.9447 213.135 80.9302C213.135 82.8293 212.359 84.6422 211.064 85.937C209.769 87.2319 208.042 88.0088 206.057 88.0088C204.158 88.0088 202.345 87.2319 201.05 85.937ZM47.5644 80.9302C47.5644 82.3977 48.1686 83.7789 49.2045 84.8148C50.1541 85.7644 51.5353 86.455 53.0891 86.455C54.643 86.455 55.9379 85.8507 56.9738 84.8148C57.9233 83.8652 58.6139 82.484 58.6139 80.9302C58.6139 79.3763 58.0096 78.0815 56.9738 77.0456L56.8874 76.9593C55.9378 76.0097 54.5567 75.4054 53.0891 75.4054C51.6216 75.4054 50.2404 76.0097 49.2045 77.0456C48.1686 78.0815 47.5644 79.4627 47.5644 80.9302ZM51.3626 82.6567C50.931 82.2251 50.6721 81.6208 50.6721 80.9302C50.6721 80.2396 50.931 79.6353 51.3626 79.2037C51.7943 78.7721 52.3985 78.5131 53.0891 78.5131C53.6934 78.5131 54.2977 78.7721 54.7293 79.1174L54.8156 79.2037C55.2473 79.6353 55.5063 80.2396 55.5063 80.9302C55.5063 81.6208 55.2473 82.2251 54.8156 82.6567C54.384 83.0883 53.7797 83.3473 53.0891 83.3473C52.3985 83.3473 51.7943 83.0883 51.3626 82.6567ZM47.996 86.0234C46.7011 84.7285 45.9242 83.002 45.9242 81.0165C45.9242 79.0311 46.7011 77.3045 47.996 76.0097C49.2908 74.7148 51.0173 73.9379 53.0028 73.9379C54.9019 73.9379 56.7148 74.7148 58.0097 76.0097C59.3045 77.3045 60.0815 79.0311 60.0815 81.0165C60.0815 83.002 59.3045 84.7285 58.0097 86.0234C56.7148 87.3183 54.9883 88.0951 53.0028 88.0951C51.0173 88.0951 49.2908 87.2319 47.996 86.0234ZM116.452 80.9302C116.452 82.3977 117.056 83.7789 118.092 84.8148C119.041 85.7644 120.423 86.455 121.976 86.455C123.53 86.455 124.825 85.8507 125.861 84.8148C126.811 83.8652 127.501 82.484 127.501 80.9302C127.501 79.3763 126.897 78.0815 125.861 77.0456L125.775 76.9593C124.825 76.0097 123.444 75.4054 121.976 75.4054C120.509 75.4054 119.128 76.0097 118.092 77.0456C117.056 78.0815 116.452 79.4627 116.452 80.9302ZM120.25 82.6567C119.818 82.2251 119.559 81.6208 119.559 80.9302C119.559 80.2396 119.818 79.6353 120.25 79.2037C120.682 78.7721 121.286 78.5131 121.976 78.5131C122.581 78.5131 123.185 78.7721 123.617 79.1174L123.703 79.2037C124.135 79.6353 124.393 80.2396 124.393 80.9302C124.393 81.6208 124.135 82.2251 123.703 82.6567C123.271 83.0883 122.667 83.3473 121.976 83.3473C121.199 83.3473 120.682 83.0883 120.25 82.6567ZM116.883 86.0234C115.588 84.7285 114.811 83.002 114.811 81.0165C114.811 79.0311 115.588 77.3045 116.883 76.0097C118.178 74.7148 119.905 73.9379 121.89 73.9379C123.789 73.9379 125.602 74.7148 126.897 76.0097C128.192 77.3045 128.969 79.0311 128.969 81.0165C128.969 83.002 128.192 84.7285 126.897 86.0234C125.602 87.3183 123.876 88.0951 121.89 88.0951C119.905 88.0951 118.178 87.2319 116.883 86.0234ZM123.876 62.7157V59.0037H113.43V62.7157H79.7635L79.0729 18.172C79.0729 17.1361 78.6413 16.2728 77.9507 15.5822C77.2601 14.8916 76.3969 14.5464 75.361 14.5464H75.2746L52.3122 16.3592C45.5789 16.8771 39.7951 19.8985 35.4789 24.3874C31.0763 28.9626 28.2276 35.0917 27.6233 41.9113C27.6233 41.9977 27.6233 41.9977 27.6233 42.084L25.9831 79.1174V79.4627C25.9831 81.3618 26.76 83.002 27.9686 84.2969C29.1771 85.5918 30.8173 86.3687 32.7165 86.455H33.0618H40.2267C41.09 86.455 41.7806 85.7644 41.7806 84.9012V80.1533C41.7806 79.808 41.7806 80.0669 41.7806 79.8943C41.8669 76.7003 43.1618 73.7652 45.3199 71.6071C47.3917 69.449 50.3267 68.1541 53.4344 68.1541C53.6934 68.1541 53.5208 68.1541 53.6071 68.1541C56.8011 68.2404 59.6498 69.5353 61.6353 71.6071C63.7071 73.6789 64.9156 76.5277 64.9156 79.7217V84.8148C64.9156 85.6781 65.6062 86.3686 66.4695 86.3686H108.423C109.287 86.3686 109.977 85.6781 109.977 84.8148V82.1388C109.977 81.7935 109.977 82.0524 109.977 81.8798C110.064 78.6858 111.358 75.7507 113.517 73.5926C115.588 71.4345 118.523 70.1396 121.631 70.1396C121.89 70.1396 121.717 70.1396 121.804 70.1396C124.998 70.2259 127.846 71.5208 129.832 73.5926C131.904 75.6644 133.112 78.5131 133.112 81.7071V82.5704C133.112 83.6063 133.544 84.5558 134.235 85.2464C134.925 85.937 135.875 86.3686 136.911 86.3686H138.637C139.5 86.3686 140.191 85.6781 140.191 84.8148V70.4849C140.191 68.3268 139.328 66.3413 137.86 64.8738C136.393 63.4063 134.494 62.543 132.249 62.543L123.876 62.7157ZM50.1541 46.5729V31.3797C50.1541 30.5165 49.4635 29.8258 48.6003 29.8258H42.2122C40.1404 29.8258 38.1549 30.6028 36.6011 31.8114C35.0472 33.1062 33.925 34.8327 33.4934 36.9045L31.9395 44.4148C31.8532 44.6737 31.8532 44.8464 31.8532 45.0191C31.8532 45.7097 32.1122 46.4003 32.5438 46.9182C32.9754 47.4362 33.5797 47.8677 34.2703 47.9541C34.5293 48.0404 34.7019 48.0404 34.8746 48.0404H48.4276C49.4635 48.1268 50.1541 47.4361 50.1541 46.5729ZM47.0464 32.9336V45.0191H35.0472C35.5652 42.5156 35.9968 40.0122 36.6011 37.5088C36.86 36.2139 37.637 35.0054 38.5866 34.2284C39.6225 33.4515 40.831 32.9336 42.2122 32.9336H47.0464ZM35.0472 45.0191C35.0472 45.1054 35.0472 45.1054 35.0472 45.0191V45.0191ZM32.8891 83.3473H32.7165C31.6806 83.2609 30.731 82.8294 30.0404 82.1388C29.3498 81.4482 28.9182 80.4986 28.9182 79.4627V79.29L30.5583 42.2567C31.0763 36.1276 33.666 30.6891 37.5507 26.5455C41.3489 22.5746 46.5284 19.9848 52.3986 19.4669L75.1883 17.5678C75.361 17.5678 75.5336 17.654 75.6199 17.7404C75.7063 17.8267 75.7926 17.9993 75.7926 18.172L76.5695 64.2695C76.5695 65.1327 77.2601 65.8233 78.1234 65.8233H132.163C133.458 65.8233 134.666 66.3413 135.529 67.2046C136.393 68.0678 136.911 69.2763 136.911 70.5712V83.3473H136.824C136.652 83.3473 136.479 83.261 136.393 83.1747C136.306 83.0883 136.22 82.9157 136.22 82.743V81.8798C136.22 77.9089 134.58 74.2832 131.99 71.6071C129.4 68.931 125.775 67.2909 121.804 67.2046C121.545 67.2046 121.631 67.2046 121.545 67.2046C117.488 67.2046 113.862 68.931 111.186 71.6071C108.51 74.2832 106.87 77.9952 106.783 81.9661C106.783 82.2251 106.783 82.1387 106.783 82.2251V83.3473H67.937V79.808C67.937 75.837 66.2969 72.2114 63.7071 69.5353C61.1174 66.8592 57.4917 65.2191 53.5208 65.1327C53.2618 65.1327 53.3481 65.1327 53.2618 65.1327C49.2045 65.1327 45.5789 66.8592 42.9028 69.5353C40.2267 72.2114 38.5865 75.9233 38.5002 79.8943C38.5002 80.1533 38.5002 80.067 38.5002 80.1533V83.3473H32.8891ZM148.305 71.3481L144.939 66.3413H148.737C149.6 66.3413 150.291 65.6507 150.291 64.7874V61.0755H156.938V64.7874C156.938 65.6507 157.629 66.3413 158.492 66.3413H227.206C228.07 66.3413 228.76 65.6507 228.76 64.7874V61.0755H235.753V64.7874C235.753 65.6507 236.443 66.3413 237.306 66.3413H278.742V71.3481H255.78C255.262 71.3481 254.744 71.6071 254.485 72.125L251.55 76.8729H249.824C249.478 76.8729 249.219 76.7866 248.96 76.6139C248.701 76.4413 248.442 76.1824 248.356 75.8371C248.097 75.0601 247.752 74.4558 247.32 73.7652C246.889 73.0746 246.457 72.4704 245.939 71.8661C244.644 70.3122 243.004 69.1037 241.191 68.2404C239.378 67.3772 237.393 66.9455 235.321 66.9455C233.249 66.9455 231.264 67.3772 229.451 68.2404C227.638 69.1037 225.998 70.3122 224.703 71.8661C224.271 72.384 223.84 72.9883 223.408 73.5926C223.063 74.1968 222.718 74.8875 222.372 75.4917C222.2 75.9234 221.941 76.1823 221.595 76.4413C221.25 76.6139 220.905 76.7866 220.559 76.7866H220.473C220.041 76.7866 219.696 76.7003 219.437 76.4413C219.092 76.1823 218.833 75.9234 218.66 75.4917C218.401 74.8011 217.97 74.1105 217.624 73.5063C217.193 72.902 216.761 72.2977 216.243 71.6934C214.948 70.2259 213.308 69.1037 211.582 68.3268C209.855 67.5499 207.956 67.1182 205.971 67.1182C203.985 67.1182 202.086 67.5499 200.359 68.3268C198.547 69.1037 196.993 70.3122 195.698 71.6934C195.18 72.2977 194.748 72.8156 194.317 73.4199C193.885 74.0242 193.54 74.6285 193.281 75.3191C193.108 75.7507 192.849 76.096 192.418 76.2687C192.072 76.5277 191.727 76.6139 191.295 76.6139H189.051L185.425 71.8661C185.166 71.4345 184.648 71.1755 184.13 71.1755L148.305 71.3481Z" fill="#374148"/>
<path d="M232.299 0.389108C244.299 2.97885 260.441 3.49681 274.081 1.42502C277.965 0.820743 281.418 3.84208 281.418 7.81303V54.7738C281.418 58.3131 278.569 61.1618 275.03 61.1618H238.428H149.945H123.875H113.43H87.3599C83.8206 61.1618 80.9718 58.3131 80.9718 54.7738C80.9718 44.0695 81.0582 22.4883 80.9718 7.89938C80.9718 4.01476 84.4248 0.993372 88.2231 1.51132C100.481 3.23782 118.868 2.89253 130.091 0.389108C130.954 0.216459 131.904 0.216459 132.767 0.389108C144.248 2.8062 166.433 2.89253 179.555 0.389108C180.504 0.216459 181.454 0.302762 182.404 0.475412C196.82 4.10106 214.775 3.32415 229.537 0.389108C229.969 0.302783 230.4 0.302804 230.832 0.302804C231.35 0.21648 231.868 0.216459 232.299 0.389108ZM230.832 46.4003C231.609 46.4003 232.213 45.796 232.213 45.0191V8.15835C232.213 7.38142 231.609 6.77717 230.832 6.77717C230.055 6.77717 229.451 7.38142 229.451 8.15835V45.0191C229.451 45.796 230.141 46.4003 230.832 46.4003ZM87.6189 53.9968C87.6189 55.1191 88.4821 55.9824 89.6043 55.9824C90.7266 55.9824 91.5898 55.1191 91.5898 53.9968C91.5898 52.8746 90.7266 52.0114 89.6043 52.0114C88.4821 52.0114 87.6189 52.9609 87.6189 53.9968ZM97.8915 53.9968C97.8915 55.1191 98.7548 55.9824 99.877 55.9824C100.999 55.9824 101.862 55.1191 101.862 53.9968C101.862 52.8746 100.999 52.0114 99.877 52.0114C98.7548 52.0114 97.8915 52.8746 97.8915 53.9968ZM108.423 53.9968C108.423 55.1191 109.286 55.9824 110.409 55.9824C111.531 55.9824 112.394 55.1191 112.394 53.9968C112.394 52.8746 111.531 52.0114 110.409 52.0114C109.373 52.0114 108.423 52.8746 108.423 53.9968ZM118.437 53.9968C118.437 55.1191 119.3 55.9824 120.422 55.9824C121.545 55.9824 122.408 55.1191 122.408 53.9968C122.408 52.8746 121.545 52.0114 120.422 52.0114C119.3 52.0114 118.437 52.8746 118.437 53.9968ZM129.055 53.9968C129.055 55.1191 129.918 55.9824 131.04 55.9824C132.162 55.9824 133.026 55.1191 133.026 53.9968C133.026 52.8746 132.162 52.0114 131.04 52.0114C129.918 52.0114 129.055 52.8746 129.055 53.9968ZM139.673 53.9968C139.673 55.1191 140.536 55.9824 141.658 55.9824C142.78 55.9824 143.644 55.1191 143.644 53.9968C143.644 52.8746 142.78 52.0114 141.658 52.0114C140.536 52.0977 139.673 52.9609 139.673 53.9968ZM150.204 53.9968C150.204 55.1191 151.068 55.9824 152.19 55.9824C153.312 55.9824 154.175 55.1191 154.175 53.9968C154.175 52.8746 153.312 52.0114 152.19 52.0114C151.154 52.0114 150.204 52.8746 150.204 53.9968ZM160.391 53.9968C160.391 55.1191 161.254 55.9824 162.376 55.9824C163.498 55.9824 164.362 55.1191 164.362 53.9968C164.362 52.8746 163.498 52.0114 162.376 52.0114C161.254 52.0114 160.391 52.9609 160.391 53.9968ZM171.699 53.9968C171.699 55.1191 172.563 55.9824 173.685 55.9824C174.807 55.9824 175.67 55.1191 175.67 53.9968C175.67 52.8746 174.807 52.0114 173.685 52.0114C172.563 52.0977 171.699 52.9609 171.699 53.9968ZM182.576 53.9968C182.576 55.1191 183.439 55.9824 184.562 55.9824C185.684 55.9824 186.547 55.1191 186.547 53.9968C186.547 52.8746 185.684 52.0114 184.562 52.0114C183.439 52.0977 182.576 52.9609 182.576 53.9968ZM194.057 54.0832C194.057 55.2054 194.921 56.0687 196.043 56.0687C197.165 56.0687 198.028 55.2054 198.028 54.0832C198.028 52.961 197.165 52.0977 196.043 52.0977C194.921 52.1841 194.057 53.0473 194.057 54.0832ZM205.539 54.0832C205.539 55.2054 206.402 56.0687 207.524 56.0687C208.646 56.0687 209.51 55.2054 209.51 54.0832C209.51 52.961 208.646 52.0977 207.524 52.0977C206.488 52.1841 205.539 53.0473 205.539 54.0832ZM217.192 54.1695C217.192 55.2917 218.056 56.155 219.178 56.155C220.3 56.155 221.163 55.2917 221.163 54.1695C221.163 53.0473 220.3 52.184 219.178 52.184C218.056 52.2704 217.192 53.1336 217.192 54.1695ZM228.674 54.1695C228.674 55.2917 229.537 56.155 230.659 56.155C231.781 56.155 232.645 55.2917 232.645 54.1695C232.645 53.0473 231.781 52.184 230.659 52.184C229.537 52.2704 228.674 53.1336 228.674 54.1695ZM239.723 53.9968C239.723 55.1191 240.587 55.9824 241.709 55.9824C242.831 55.9824 243.694 55.1191 243.694 53.9968C243.694 52.8746 242.831 52.0114 241.709 52.0114C240.587 52.0114 239.723 52.9609 239.723 53.9968ZM250.341 54.0832C250.341 55.2054 251.205 56.0687 252.327 56.0687C253.449 56.0687 254.312 55.2054 254.312 54.0832C254.312 52.961 253.449 52.0977 252.327 52.0977C251.205 52.1841 250.341 53.0473 250.341 54.0832ZM260.787 53.9968C260.787 55.1191 261.65 55.9824 262.772 55.9824C263.894 55.9824 264.758 55.1191 264.758 53.9968C264.758 52.8746 263.894 52.0114 262.772 52.0114C261.65 52.0977 260.787 52.9609 260.787 53.9968ZM270.714 53.9968C270.714 55.1191 271.577 55.9824 272.699 55.9824C273.822 55.9824 274.685 55.1191 274.685 53.9968C274.685 52.8746 273.822 52.0114 272.699 52.0114C271.577 52.0977 270.714 52.9609 270.714 53.9968ZM131.817 46.4003C132.594 46.4003 133.198 45.796 133.198 45.0191V8.15835C133.198 7.38142 132.594 6.77717 131.817 6.77717C131.04 6.77717 130.436 7.38142 130.436 8.15835V45.0191C130.436 45.796 131.04 46.4003 131.817 46.4003ZM181.022 46.4003C181.799 46.4003 182.404 45.796 182.404 45.0191V8.15835C182.404 7.38142 181.799 6.77717 181.022 6.77717C180.245 6.77717 179.641 7.38142 179.641 8.15835V45.0191C179.641 45.796 180.245 46.4003 181.022 46.4003ZM228.328 61.1618H159.614H228.328Z" fill="url(#paint0_linear)"/>
<defs>
<linearGradient id="paint0_linear" x1="281.423" y1="30.7589" x2="80.9391" y2="30.7589" gradientUnits="userSpaceOnUse">
<stop stop-color="#008DD2"/>
<stop offset="1" stop-color="#003C5F"/>
</linearGradient>
</defs>
</svg>
