<svg width="16" height="16" fill="none" xmlns="http://www.w3.org/2000/svg"><path fill-rule="evenodd" clip-rule="evenodd" d="M7.732 15.333a7.333 7.333 0 110-14.666 7.333 7.333 0 010 14.666zm4.933-3.917a6 6 0 10-9.866 0C3.55 10.426 5.313 10 7.732 10c2.42 0 4.183.425 4.933 1.416zm-.956 1.077c-.195-.701-1.597-1.16-3.976-1.16-2.38 0-3.782.459-3.977 1.16A5.977 5.977 0 007.733 14a5.98 5.98 0 003.976-1.507zM7.733 4C6.119 4 5.066 5.17 5.066 6.667 5.066 8.952 6.24 10 7.733 10c1.478 0 2.666-1.014 2.666-3.2C10.4 5.281 9.342 4 7.733 4zM6.399 6.667c0 1.513.546 2 1.333 2 .786 0 1.334-.468 1.334-1.867 0-.833-.523-1.467-1.334-1.467-.844 0-1.333.544-1.333 1.334z" fill="#000"/></svg>