<svg width="16" height="16" fill="none" xmlns="http://www.w3.org/2000/svg"><path fill-rule="evenodd" clip-rule="evenodd" d="M10.667 1.333H5.333a4 4 0 00-4 4v5.334a4 4 0 004 4h5.334a4 4 0 004-4V5.333a4 4 0 00-4-4zm-8 4a2.667 2.667 0 012.666-2.666h5.334a2.667 2.667 0 012.666 2.666v5.334a2.667 2.667 0 01-2.666 2.666H5.333a2.667 2.667 0 01-2.666-2.666V5.333zm5.333 6a3.333 3.333 0 110-6.666 3.333 3.333 0 010 6.666zM8 10a2 2 0 100-4 2 2 0 000 4zm4-5.333a.667.667 0 11-1.333 0 .667.667 0 011.333 0z" fill="#70787C"/></svg>