<svg width="16" height="16" fill="none" xmlns="http://www.w3.org/2000/svg"><path fill-rule="evenodd" clip-rule="evenodd" d="M14.08 3.005l.943.11-.424.85-.621 1.243a.983.983 0 01-.132.265 7.675 7.675 0 01-.122.182 1.378 1.378 0 00-.054.087v1.592c0 4.075-3.944 6.664-7.668 6.664-.762 0-1.34-.036-2.004-.181-1.09-.238-1.903-.711-2.274-1.538l-.383-.852.93-.085c.84-.078 1.57-.238 2.13-.453-1.537-.247-2.399-.922-2.399-2.19v-.666h.667c.146 0 .279-.012.397-.034-1.154-.69-1.732-1.797-1.732-3.331v-.136c-.005-.773.037-1.187.249-1.714.135-.338.331-.651.596-.938l.503-.547.489.56c1.612 1.841 3.205 2.959 4.832 3.094.007-1.7 1.291-2.986 3-2.986.796 0 1.519.302 2.087.847.31.064.64.117.99.157zm-1.474 1.103l-.205-.046-.14-.155c-.342-.375-.77-.573-1.258-.573-.976 0-1.667.695-1.667 1.667 0 .159-.004.259-.024.39-.079.523-.372.943-.976.943-1.999 0-3.802-1.07-5.56-2.9-.09.276-.112.56-.11 1.09l.001.144c0 1.365.554 2.112 1.863 2.528l.465.148v.487c0 .592-.56 1.148-1.38 1.398.376.285 1.144.439 2.388.439h.666v.666c0 .955-1.097 1.703-2.755 2.094.54.165 1.26.237 2.088.237 3.077 0 6.334-2.14 6.334-5.33V5.667c0-.196.057-.366.151-.543.037-.07.078-.135.128-.21l.072-.107.053-.105.257-.514a11.222 11.222 0 01-.391-.081z" fill="#70787C"/></svg>