<svg width="16" height="16" viewBox="0 0 16 16" fill="none" xmlns="http://www.w3.org/2000/svg">
<path fill-rule="evenodd" clip-rule="evenodd" d="M10.6666 1.33325H5.33325C3.12411 1.33325 1.33325 3.12411 1.33325 5.33325V10.6666C1.33325 12.8757 3.12411 14.6666 5.33325 14.6666H10.6666C12.8757 14.6666 14.6666 12.8757 14.6666 10.6666V5.33325C14.6666 3.12411 12.8757 1.33325 10.6666 1.33325ZM2.66659 5.33325C2.66659 3.86049 3.86049 2.66659 5.33325 2.66659H10.6666C12.1393 2.66659 13.3333 3.86049 13.3333 5.33325V10.6666C13.3333 12.1393 12.1393 13.3333 10.6666 13.3333H5.33325C3.86049 13.3333 2.66659 12.1393 2.66659 10.6666V5.33325ZM7.99992 11.3333C6.15897 11.3333 4.66658 9.84087 4.66658 7.99992C4.66658 6.15897 6.15897 4.66658 7.99992 4.66658C9.84087 4.66658 11.3333 6.15897 11.3333 7.99992C11.3333 9.84087 9.84087 11.3333 7.99992 11.3333ZM7.99992 9.99992C9.10449 9.99992 9.99992 9.10449 9.99992 7.99992C9.99992 6.89535 9.10449 5.99992 7.99992 5.99992C6.89535 5.99992 5.99992 6.89535 5.99992 7.99992C5.99992 9.10449 6.89535 9.99992 7.99992 9.99992ZM11.9999 4.66659C11.9999 5.03478 11.7014 5.33325 11.3333 5.33325C10.9651 5.33325 10.6666 5.03478 10.6666 4.66659C10.6666 4.2984 10.9651 3.99992 11.3333 3.99992C11.7014 3.99992 11.9999 4.2984 11.9999 4.66659Z" fill="#70787C"/>
</svg>
