<svg width="247" height="76" viewBox="0 0 247 76" fill="none" xmlns="http://www.w3.org/2000/svg">
<path d="M23.2399 70.4621H80.0933C80.0933 72.4174 81.7239 74.1554 83.6806 74.1554H127.489C129.446 74.1554 131.076 72.526 131.076 70.5707V70.4621C131.076 70.4621 153.035 71.2225 166.841 67.7465C174.668 65.6827 177.385 64.705 185.429 61.5549C215.215 49.7149 233.586 45.3699 233.586 45.3699C233.586 45.3699 221.411 43.5233 225.216 34.6161C227.173 29.8366 239.674 1.81152 239.674 1.81152L228.042 2.68051C223.477 3.00638 219.346 5.17887 215.867 8.22036C179.885 39.5042 183.255 40.9163 163.688 40.9163C138.795 40.9163 81.7238 41.1335 54.1125 41.1335C42.1548 41.1335 19.6527 40.0473 12.2606 50.9097L6.28181 53.1908C0.955209 55.1461 -2.95824 69.3759 23.2399 70.4621Z" stroke="#074F79" stroke-width="3" stroke-miterlimit="10" stroke-linejoin="round"/>
<path d="M10.521 51.561H23.1309C23.7832 51.561 24.3267 50.9093 24.3267 50.1489V48.3023C24.3267 47.9765 24.1092 47.6506 23.7831 47.6506H15.5214" stroke="#074F79" stroke-width="3" stroke-miterlimit="10" stroke-linejoin="round"/>
<path d="M107.27 62.6413L113.901 61.4464V55.6893L107.27 54.6031" stroke="#074F79" stroke-width="3" stroke-miterlimit="10" stroke-linejoin="round"/>
<path d="M89.877 65.4656H102.161C105.857 65.4656 108.792 62.5327 108.792 58.8395C108.792 55.1463 105.857 52.2134 102.161 52.2134H89.877C87.4854 52.2134 85.6374 54.1687 85.6374 56.4498V61.2292C85.5287 63.5103 87.4854 65.4656 89.877 65.4656Z" stroke="#074F79" stroke-width="3" stroke-miterlimit="10" stroke-linejoin="round"/>
<path d="M92.7032 52.105H100.421V65.3572H92.7032V52.105Z" stroke="#074F79" stroke-width="3" stroke-miterlimit="10" stroke-linejoin="round"/>
<path d="M152.382 58.5134L107.161 41.0248" stroke="#074F79" stroke-width="3" stroke-miterlimit="10" stroke-linejoin="round"/>
<path d="M189.669 54.9289C188.8 54.7116 187.93 54.8203 187.169 55.0375C181.951 57.1014 163.254 65.8999 143.034 65.7913C140.643 65.7913 138.904 68.181 139.012 70.4621C139.012 70.4621 155.753 70.6794 171.298 66.443C181.951 63.6188 190.43 59.817 195.322 57.7531C195.974 57.4272 195.974 56.4496 195.213 56.2324L189.669 54.9289Z" stroke="#074F79" stroke-width="3" stroke-miterlimit="10"/>
<path d="M129.881 67.7465L128.576 66.7689C127.272 65.7913 125.967 65.3568 124.337 65.3568H90.0943" stroke="#074F79" stroke-width="3" stroke-miterlimit="10" stroke-linecap="round" stroke-linejoin="round"/>
<path d="M138.36 53.1911H129.446C129.011 53.1911 128.577 53.0825 128.142 52.9739L104.553 43.8494H114.336" stroke="#074F79" stroke-width="3" stroke-miterlimit="10" stroke-linejoin="round"/>
<path d="M123.902 60.7946C102.378 54.8203 81.2893 50.5839 57.9175 47.3252C53.0258 46.6735 54.2216 40.5905 58.3524 41.1336H58.2436C84.007 45.1527 105.64 50.8012 125.098 57.5359" stroke="#074F79" stroke-width="3" stroke-miterlimit="10" stroke-linejoin="round"/>
<path d="M234.131 45.37L224.782 44.2837L191.409 43.3061C182.278 42.9803 181.191 47.5424 190.866 47.8683C194.779 47.9769 209.889 48.6287 223.043 48.3028C230.326 48.0856 232.718 47.3252 232.718 47.3252L234.131 45.37Z" stroke="#074F79" stroke-width="3" stroke-miterlimit="10" stroke-linejoin="round"/>
<path d="M164.015 58.839C156.08 57.3183 132.382 55.6889 125.425 57.3183C122.163 58.0786 121.729 61.3374 127.273 61.7719C132.925 62.2064 151.731 61.3374 164.015 58.839Z" stroke="#074F79" stroke-width="3" stroke-miterlimit="10" stroke-linejoin="round"/>
<path fill-rule="evenodd" clip-rule="evenodd" d="M244.783 46.8905C240.218 44.9352 224.564 43.849 220.107 44.8266C218.041 45.2611 217.607 47.5422 221.194 47.9767C224.673 48.4112 236.739 48.3026 244.783 46.8905Z" stroke="#074F79" stroke-width="3" stroke-miterlimit="10" stroke-linejoin="round"/>
<path d="M45.0899 55.0376H41.8287C41.0677 55.0376 40.5242 55.5807 40.5242 56.3411V62.9672C40.5242 63.7275 41.0677 64.2707 41.8287 64.2707H45.0899C45.8509 64.2707 46.3944 63.7275 46.3944 62.9672V56.3411C46.3944 55.5807 45.8509 55.0376 45.0899 55.0376Z" stroke="#074F79" stroke-width="3" stroke-miterlimit="10" stroke-linejoin="round"/>
<path d="M237.499 6.69968L224.128 36.5714H211.301C210.214 36.5714 209.562 35.3765 210.105 34.5075L225.433 9.08941C226.194 7.89454 227.39 7.13417 228.803 7.13417L237.499 6.69968Z" stroke="#074F79" stroke-width="3" stroke-miterlimit="10" stroke-linejoin="round"/>
<path d="M214.346 28.3156H216.411" stroke="#074F79" stroke-width="3" stroke-miterlimit="10" stroke-linecap="round" stroke-linejoin="round"/>
<path d="M221.737 15.607H223.802" stroke="#074F79" stroke-width="3" stroke-miterlimit="10" stroke-linecap="round" stroke-linejoin="round"/>
</svg>
