<svg width="296" height="99" fill="none" xmlns="http://www.w3.org/2000/svg"><path d="M51.448 61.118H246.37c1.554 0 2.762-1.295 2.762-2.762V2.762c0-1.553-1.295-2.762-2.762-2.762H51.448a2.727 2.727 0 00-2.762 2.762V58.27c0 1.64 1.295 2.849 2.762 2.849zM58.7 50.932h-2.85a1.143 1.143 0 01-1.121-1.123V6.13c0-.604.518-1.122 1.122-1.122H58.7c.604 0 1.122.518 1.122 1.122v43.594c0 .69-.518 1.209-1.122 1.209zm182.663.086h-2.849a1.143 1.143 0 01-1.122-1.122V6.216c0-.605.518-1.123 1.122-1.123h2.849c.604 0 1.122.518 1.122 1.122V49.81c0 .69-.518 1.208-1.122 1.208zm-11.481-.173h-2.849a1.143 1.143 0 01-1.122-1.122V6.043c0-.605.518-1.122 1.122-1.122h2.849c.604 0 1.122.517 1.122 1.122v43.594c.086.69-.432 1.208-1.122 1.208zm-11.481.173h-2.849a1.143 1.143 0 01-1.122-1.122V6.216c0-.605.518-1.123 1.122-1.123h2.849c.604 0 1.122.518 1.122 1.122V49.81c0 .69-.518 1.208-1.122 1.208zm-11.309.086h-2.849a1.143 1.143 0 01-1.122-1.122V6.302c0-.605.518-1.123 1.122-1.123h2.849c.604 0 1.122.518 1.122 1.123v43.594c0 .69-.518 1.208-1.122 1.208zm-11.481-.172h-2.849a1.143 1.143 0 01-1.122-1.123V6.13c0-.604.518-1.122 1.122-1.122h2.849c.604 0 1.122.518 1.122 1.122v43.594c0 .69-.518 1.209-1.122 1.209zm-11.568.172h-2.848a1.143 1.143 0 01-1.123-1.122V6.302c0-.605.518-1.123 1.123-1.123h2.848c.605 0 1.123.518 1.123 1.123v43.594c.086.69-.432 1.208-1.123 1.208zm-10.963-.172h-2.849a1.143 1.143 0 01-1.122-1.123V6.13c0-.604.518-1.122 1.122-1.122h2.849c.604 0 1.122.518 1.122 1.122v43.594c0 .69-.518 1.209-1.122 1.209zm-11.05.172h-2.848a1.142 1.142 0 01-1.122-1.122V6.302c0-.605.517-1.123 1.122-1.123h2.848c.605 0 1.123.518 1.123 1.123v43.594c.086.69-.432 1.208-1.123 1.208zm-11.049-.172h-2.849a1.143 1.143 0 01-1.122-1.123V6.13c0-.604.518-1.122 1.122-1.122h2.849c.604 0 1.122.518 1.122 1.122v43.594c0 .69-.518 1.209-1.122 1.209zm-12.086 0h-2.848a1.143 1.143 0 01-1.123-1.123V6.13c0-.604.518-1.122 1.123-1.122h2.848c.605 0 1.123.518 1.123 1.122v43.594c.086.69-.432 1.209-1.123 1.209zm-11.567 0h-2.849a1.143 1.143 0 01-1.122-1.123V6.13c0-.604.518-1.122 1.122-1.122h2.849c.604 0 1.122.518 1.122 1.122v43.594c0 .69-.518 1.209-1.122 1.209zm-12.086 0h-2.848a1.143 1.143 0 01-1.123-1.123V6.13c0-.604.518-1.122 1.123-1.122h2.848c.605 0 1.123.518 1.123 1.122v43.594c.086.69-.518 1.209-1.123 1.209zm-11.567.172h-2.849a1.143 1.143 0 01-1.122-1.122V6.302c0-.605.518-1.123 1.122-1.123h2.849c.604 0 1.122.518 1.122 1.123v43.594c0 .69-.518 1.208-1.122 1.208zm-11.568-.172H89.26a1.143 1.143 0 01-1.123-1.123V6.13c0-.604.518-1.122 1.123-1.122h2.848c.605 0 1.123.518 1.123 1.122v43.594c0 .69-.518 1.209-1.123 1.209zm-11.308 0H77.95a1.143 1.143 0 01-1.122-1.123V6.13c0-.604.518-1.122 1.122-1.122h2.85c.604 0 1.122.518 1.122 1.122v43.594c.086.69-.432 1.209-1.122 1.209zm-10.877 0h-2.849a1.143 1.143 0 01-1.122-1.123V6.13c0-.604.518-1.122 1.122-1.122h2.849c.604 0 1.122.518 1.122 1.122v43.594c0 .69-.518 1.209-1.122 1.209z" fill="url(#paint0_linear)"/><path d="M120.077 85.03c0 2.935-1.209 5.525-3.108 7.424s-4.575 3.108-7.424 3.108h111.014a10.72 10.72 0 01-5.698-1.64c-1.381-.95-2.589-2.159-3.453-3.626H199.15c-.863 1.467-1.985 2.676-3.453 3.625a10.714 10.714 0 01-5.697 1.64c-2.935 0-5.525-1.208-7.424-3.107-1.899-1.9-3.108-4.575-3.108-7.424 0-2.935 1.209-5.525 3.108-7.424l.086-.086c1.899-1.813 4.489-3.022 7.338-3.022 1.122 0 2.331.173 3.367.518.949.345 1.812.777 2.589 1.295h4.058c-.259-.173-.518-.345-.605-.604-.086-.173-.259-.346-.345-.518-.173-.173-.345-.345-.432-.518a10.744 10.744 0 00-3.625-2.59c-1.381-.604-2.849-.95-4.403-.95-1.554 0-3.021.346-4.402.95a11.098 11.098 0 00-3.626 2.59c-.863.95-11.654 12.43-11.74 12.517-.346.345-.691.518-1.122.518h-40.141c-.518 0-.95-.26-1.209-.604-.95-1.036-10.791-11.568-11.654-12.431a10.747 10.747 0 00-3.626-2.59c-1.381-.604-2.848-.95-4.402-.95-1.554 0-3.021.346-4.403.95a11.094 11.094 0 00-3.625 2.59c-.173.172-.259.345-.432.518-.173.172-.259.431-.432.604-.086.173-.259.259-.345.345h4.489c.777-.518 1.554-.863 2.503-1.208a9.908 9.908 0 013.194-.518c2.935 0 5.525 1.208 7.424 3.108 1.813 1.985 3.022 4.661 3.022 7.51zM10.099 95.56c.863 0 1.554.691 1.554 1.554 0 .864-.69 1.554-1.554 1.554H1.812c-.864 0-1.554-.69-1.554-1.554 0-.863.69-1.553 1.554-1.553h8.287zm33.235 0c.863 0 1.554.691 1.554 1.554 0 .864-.69 1.554-1.554 1.554H16.66c-.864 0-1.554-.69-1.554-1.554 0-.863.69-1.553 1.554-1.553h26.674zm66.211 0c-2.158 0-4.057-.604-5.784-1.726-1.381-.95-2.589-2.158-3.453-3.712H88.137c-.864 1.468-1.986 2.762-3.453 3.712-1.64 1.122-3.626 1.727-5.784 1.727-2.935 0-5.525-1.21-7.424-3.108-1.9-1.9-3.108-4.49-3.108-7.424 0-2.935 1.209-5.525 3.108-7.424 1.899-1.9 4.489-3.108 7.424-3.108 1.122 0 2.158.173 3.194.518.863.26 1.726.69 2.503 1.209h4.058a1.04 1.04 0 01-.432-.432c-.173-.173-.26-.432-.345-.518-.173-.172-.26-.345-.432-.518-1.036-1.208-2.245-2.158-3.712-2.849a11.414 11.414 0 00-4.575-.95c-1.64 0-3.194.346-4.576.95a10.952 10.952 0 00-3.711 2.85c-.346.43-.777.949-1.036 1.467a6.538 6.538 0 00-.777 1.553v.087c-.346.863-.95 1.554-1.727 2.072-.777.518-1.64.863-2.676.863h-2.59a1.538 1.538 0 01-1.38-.863l-2.85-4.662h-31.94c-.863 0-1.554-.69-1.554-1.554v-8.2c0-.863.691-1.553 1.554-1.553h245.595c.863 0 1.553.69 1.553 1.553v.087l.173 8.028c0 .863-.69 1.554-1.467 1.554h-30.559l-2.936 4.748c-.258.518-.776.777-1.294.777h-2.59c-.95 0-1.899-.346-2.676-.864a4.714 4.714 0 01-1.727-2.158c-.172-.518-.518-1.036-.777-1.554-.345-.518-.69-1.035-1.035-1.467a10.965 10.965 0 00-3.712-2.849 11.42 11.42 0 00-4.576-.95c-1.64 0-3.194.346-4.575.95-1.467.69-2.676 1.64-3.712 2.849-.173.172-.259.345-.431.518-.087.172-.259.345-.432.604s-.345.432-.604.518h4.489c.776-.518 1.64-.95 2.589-1.295 1.036-.345 2.158-.518 3.367-.518 2.935 0 5.525 1.209 7.424 3.108s3.108 4.575 3.108 7.424c0 2.935-1.209 5.525-3.108 7.424s-4.575 3.108-7.424 3.108h73.29c.863 0 1.554.69 1.554 1.553 0 .864-.691 1.554-1.554 1.554H50.239c-.862 0-1.553-.69-1.553-1.554 0-.863.69-1.553 1.554-1.553h59.305zm113.604-11.05l-2.417 3.109c.69 0 1.294-.346 1.726-.777.432-.432.777-1.123.777-1.813 0-.173 0-.346-.086-.518zm-35.221-4.66c.086-.26.173-.519.345-.778v-.086l.087-.086c.086-.087.086-.173.172-.173l.087-.086.086-.087c-1.64.173-3.108.95-4.23 2.072l-.086.087c-1.381 1.38-2.158 3.194-2.158 5.265 0 2.072.863 3.885 2.158 5.266 1.381 1.381 3.194 2.158 5.266 2.158 1.467 0 2.848-.431 3.971-1.208a6.806 6.806 0 001.294-1.036l-.776.518c-.777.345-1.641.604-2.504.604a5.542 5.542 0 01-3.971-1.64 5.541 5.541 0 01-1.64-3.971c0-1.295.432-2.59 1.209-3.54-.95-2.33-.173-2.934.69-3.28zm33.408 1.898v-.086h-27.365c-.086 0-.173.087-.173.087-.086.086-.259.172-.345.258-.259.26-.518.691-.518 1.036v.173l2.072 2.676 1.295 1.727.086.086.086.086h20.373c.173 0 .345 0 .518-.086h.086s.087 0 .087-.086l3.107-4.058.346-.518.086-.086v-.086l.259-1.123zm-119.992 5.353h3.367c.086-.087.173-.087.259-.173.086 0 .086-.086.086-.086l-3.712.259zm4.575-.518l3.54-4.576.086-.086c0-.086.086-.086.086-.172 0-.087 0-.173.087-.26v-.603H81.921v.259l.086.087.087.086 3.453 4.402.086.173.087.086h15.623l4.575.605zm-1.208 3.625h-.604c.431.432.863.777 1.295 1.123 1.122.777 2.589 1.208 4.057 1.208 2.072 0 3.884-.863 5.266-2.158 1.381-1.381 2.158-3.194 2.158-5.266s-.864-3.885-2.158-5.266c-.777-.777-1.813-1.38-2.849-1.813v.346c0 .086 0 .086.086.172.087.173.087.346.087.518v.173c.518.432 1.035.95 1.381 1.554.518.863.863 1.9.863 2.935a5.541 5.541 0 01-1.64 3.97 5.542 5.542 0 01-3.971 1.641 5.554 5.554 0 01-2.072-.432 4.027 4.027 0 01-.863-.431l-1.036 1.726zm-20.286 0h-.087a7.584 7.584 0 01-.863.518c-.69.346-1.554.518-2.33.518a5.542 5.542 0 01-3.972-1.64 5.542 5.542 0 01-1.64-3.97c0-1.21.432-2.332 1.036-3.281a6.528 6.528 0 011.813-1.64 7.574 7.574 0 00-3.54 1.985c-1.38 1.381-2.158 3.194-2.158 5.266s.864 3.885 2.159 5.266c1.38 1.38 3.194 2.158 5.265 2.158 1.468 0 2.935-.432 4.058-1.209-.605-3.194-.173-3.54.259-3.97zm-7.338-6.301l-.086-.087c-.26.432-.432.95-.432 1.468 0 .69.259 1.381.777 1.813.432.431 1.122.776 1.813.776.345 0 .604-.086.863-.172l-2.935-3.798zm149.256 1.122a5.545 5.545 0 01-1.64 3.97 5.544 5.544 0 01-3.971 1.64c-.605 0-1.295-.085-1.9-.344-.259-.087-.518-.173-.776-.346h-.087c-.173.087-.431.087-.69.173h-1.036c.345.345.777.69 1.208.95 1.122.777 2.504 1.208 3.971 1.208 2.072 0 3.885-.863 5.266-2.158 1.381-1.381 2.158-3.194 2.158-5.266s-.863-3.884-2.158-5.266c-.604-.604-1.381-1.208-2.244-1.553v.259c.431.431.863.95 1.122 1.467.518 3.367.777 4.316.777 5.266zm-36.17 2.503c.431 0 .776-.086 1.122-.259l-2.59-3.28-.086-.086-.173-.173v-.173l-.086.087c-.346.431-.518.95-.518 1.64s.259 1.381.777 1.813c.172.172.863.431 1.554.431zm50.241-15.366h29.868l-.086-5.006H27.623v5.006h31.25c.517 0 1.035.26 1.294.777l2.935 4.748h1.727c.345 0 .604-.086.863-.259.26-.172.432-.431.604-.777.26-.69.605-1.38 1.036-2.072.432-.69.864-1.294 1.382-1.899 1.294-1.553 2.934-2.762 4.747-3.625 1.813-.864 3.799-1.295 5.87-1.295 2.072 0 4.058.431 5.87 1.295 1.813.863 3.454 2.072 4.748 3.625.173.26.346.432.605.691l.086.086h7.165l.086-.086c.173-.259.346-.432.605-.69 1.294-1.468 2.935-2.59 4.661-3.367a13.638 13.638 0 0111.222 0c1.813.777 3.367 1.985 4.662 3.366.777.864 9.15 9.755 11.222 12h38.76c2.072-2.159 10.445-11.136 11.222-12 1.295-1.467 2.935-2.59 4.662-3.366a13.638 13.638 0 0111.222 0c1.813.777 3.367 1.985 4.662 3.366.172.26.431.432.604.691l.086.086h7.165v-.086c.173-.259.345-.432.518-.69 1.295-1.555 2.935-2.763 4.748-3.626 1.813-.864 3.798-1.295 5.87-1.295s4.057.431 5.87 1.295c1.813.863 3.453 2.072 4.748 3.625.518.605.95 1.209 1.381 1.9.432.604.691 1.294 1.036 2.071.173.346.345.605.604.777.259.173.518.26.864.26h1.726l2.849-4.662c.431-.518.949-.864 1.554-.864zM111.272 86.843c.431-.432.777-1.123.777-1.813 0-.346-.087-.69-.173-1.036l-2.763 3.54h.346c.69 0 1.381-.26 1.813-.691z" fill="#374148"/><defs><linearGradient id="paint0_linear" x1="48.681" y1="30.614" x2="249.165" y2="30.614" gradientUnits="userSpaceOnUse"><stop stop-color="#008DD2"/><stop offset="1" stop-color="#003C5F"/></linearGradient></defs></svg>