<svg width="296" height="95" fill="none" xmlns="http://www.w3.org/2000/svg"><path d="M109.711 65.693h18.819c1.295 0 2.503.518 3.366 1.381a4.763 4.763 0 011.382 3.367v12.776h-.087a.658.658 0 01-.431-.172.656.656 0 01-.173-.432v-.863c0-3.971-1.64-7.597-4.23-10.273-2.59-2.676-6.215-4.316-10.186-4.403h-.259c-4.058 0-7.683 1.727-10.359 4.403a15.157 15.157 0 00-4.403 10.359v1.381H64.304v-3.54c0-3.97-1.64-7.596-4.23-10.272-2.59-2.676-6.215-4.316-10.186-4.402h-.26c-4.056 0-7.682 1.726-10.358 4.402a15.153 15.153 0 00-4.403 10.36v3.452h-5.87c-1.036-.086-1.985-.518-2.676-1.208a3.787 3.787 0 01-1.122-2.676v-.173l1.64-37.033a26.105 26.105 0 016.992-15.712c3.799-3.97 8.978-6.56 14.848-7.078l22.79-1.9c.173 0 .259.087.432.173a.66.66 0 01.172.432l.777 46.097c0 .864.69 1.554 1.554 1.554h35.307zm176.448 25.293c-.863 0-1.554.691-1.554 1.554 0 .863.691 1.554 1.554 1.554h8.287c.863 0 1.554-.69 1.554-1.554 0-.863-.691-1.554-1.554-1.554h-8.287zm-33.235 0c-.863 0-1.554.691-1.554 1.554 0 .863.691 1.554 1.554 1.554h26.674c.863 0 1.554-.69 1.554-1.554 0-.863-.691-1.554-1.554-1.554h-26.674zm-250.515 0c-.863 0-1.554.691-1.554 1.554 0 .863.69 1.554 1.554 1.554h243.609c.863 0 1.554-.69 1.554-1.554 0-.863-.691-1.554-1.554-1.554h-13.121a10.109 10.109 0 006.819-2.935c1.813-1.813 2.935-4.402 2.935-7.165 0-2.762-1.122-5.352-2.935-7.164-1.813-1.813-4.402-2.936-7.165-2.936-2.762 0-5.352 1.123-7.165 2.936-1.813 1.812-2.935 4.402-2.935 7.164 0 2.763 1.122 5.353 2.935 7.165a10.113 10.113 0 006.82 2.935h-28.487a10.109 10.109 0 006.819-2.935c1.813-1.813 2.935-4.402 2.935-7.165 0-2.762-1.122-5.352-2.935-7.164-1.812-1.813-4.402-2.936-7.165-2.936-2.762 0-5.352 1.123-7.165 2.936-1.812 1.812-2.935 4.402-2.935 7.164 0 2.763 1.123 5.353 2.935 7.165a10.113 10.113 0 006.82 2.935h-84.944c2.763 0 5.353-1.122 7.165-2.935 1.813-1.813 2.935-4.402 2.935-7.165 0-2.762-1.122-5.352-2.935-7.164-1.812-1.813-4.402-2.936-7.165-2.936-2.762 0-5.352 1.123-7.165 2.936-1.812 1.812-2.935 4.402-2.935 7.164 0 2.763 1.123 5.353 2.935 7.165 1.813 1.813 4.403 2.935 7.165 2.935H49.197c2.763 0 5.352-1.122 7.165-2.935 1.813-1.813 2.935-4.402 2.935-7.165 0-2.762-1.122-5.352-2.935-7.164-1.813-1.813-4.402-2.936-7.165-2.936-2.762 0-5.352 1.123-7.165 2.936-1.813 1.812-2.935 4.402-2.935 7.164 0 2.763 1.122 5.353 2.935 7.165 1.813 1.813 4.403 2.935 7.165 2.935H2.41zm220.56-29.954v2.158h-65.607v-2.158h-3.107v3.712c0 .863.69 1.553 1.553 1.553h68.715c.863 0 1.554-.69 1.554-1.553v-3.712h-3.108zm-78.383 0v2.158h-5.179c-.864 0-1.554.69-1.554 1.554 0 .345.086.604.259.863l5.438 8.115c.259.431.777.69 1.295.69h35.825l3.712 4.92c.345.432.777.605 1.208.605h3.022c1.036 0 1.985-.346 2.849-.863.863-.518 1.467-1.382 1.899-2.331.259-.518.518-1.036.863-1.468.345-.518.691-.95 1.036-1.38a10.752 10.752 0 013.625-2.59c1.382-.605 2.849-.95 4.403-.95 1.554 0 3.021.345 4.403.95a11.092 11.092 0 013.625 2.59l.087.085 1.036 1.295c.345.518.604 1.036.863 1.554.431.95 1.036 1.727 1.899 2.245.777.517 1.726.863 2.762.863h.087c1.036 0 1.985-.346 2.848-.863.777-.518 1.468-1.382 1.899-2.331.259-.518.518-1.036.777-1.468.259-.431.605-.95 1.036-1.38a10.956 10.956 0 013.712-2.85 11.412 11.412 0 014.576-.95c1.64 0 3.194.346 4.575.95a10.956 10.956 0 013.712 2.85c.345.43.777.949 1.036 1.467.345.518.604 1.035.777 1.553a4.71 4.71 0 001.726 2.159c.777.517 1.64.863 2.676.863h2.59a1.54 1.54 0 001.381-.863l2.849-4.662h11.999c.863 0 1.554-.69 1.554-1.554v-8.114c0-.864-.691-1.554-1.554-1.554H236.35v-2.158h-3.108v3.712c0 .863.69 1.553 1.554 1.553h29.868v5.007h-11.308c-.518 0-1.036.26-1.295.777l-2.935 4.748h-1.727c-.345 0-.604-.086-.863-.259-.259-.172-.518-.431-.604-.777-.259-.777-.605-1.38-1.036-2.072a15.306 15.306 0 00-1.382-1.899c-1.294-1.553-2.935-2.762-4.747-3.625-1.813-.864-3.799-1.295-5.87-1.295-2.072 0-4.058.431-5.871 1.295-1.812.863-3.453 2.072-4.747 3.625-.432.518-.864 1.123-1.295 1.727-.346.604-.691 1.295-1.036 1.899-.173.432-.432.69-.777.95-.345.172-.691.345-1.036.345h-.086c-.432 0-.777-.087-1.036-.346-.346-.259-.605-.517-.777-.949-.259-.69-.691-1.381-1.036-1.985-.345-.605-.777-1.123-1.295-1.727l-.086-.086c-1.295-1.468-2.935-2.59-4.662-3.367a13.638 13.638 0 00-11.222 0c-1.813.777-3.367 1.985-4.662 3.367a24.288 24.288 0 00-1.381 1.726 8.148 8.148 0 00-1.036 1.9c-.172.43-.431.776-.863.949-.345.259-.691.345-1.122.345h-2.245l-3.625-4.748c-.259-.431-.777-.69-1.295-.69h-35.739l-3.366-5.007h3.798c.863 0 1.554-.69 1.554-1.554v-3.712l-3.367.173zm82.527 19.854c0 1.468.604 2.85 1.64 3.885 1.036 1.036 2.331 1.64 3.885 1.64 1.467 0 2.848-.604 3.884-1.64.95-.95 1.64-2.33 1.64-3.885 0-1.553-.604-2.848-1.64-3.884l-.086-.087a5.422 5.422 0 00-3.798-1.553c-1.554 0-2.849.604-3.885 1.64-1.036.95-1.64 2.33-1.64 3.884zm3.798 1.64c-.432-.431-.691-1.035-.691-1.726 0-.69.259-1.295.691-1.726.432-.432 1.036-.691 1.727-.691.604 0 1.208.259 1.64.604l.086.087c.432.431.691 1.035.691 1.726 0 .69-.259 1.295-.691 1.727a2.41 2.41 0 01-1.726.69c-.691 0-1.295-.259-1.727-.69zm-3.367 3.367a6.97 6.97 0 01-2.071-5.007c0-1.985.776-3.712 2.071-5.006a6.974 6.974 0 015.007-2.072c1.986 0 3.712.777 5.007 2.072a6.972 6.972 0 012.072 5.006c0 1.9-.777 3.712-2.072 5.007a6.972 6.972 0 01-5.007 2.072 6.974 6.974 0 01-5.007-2.072zm-29.609-5.007c0 1.468.604 2.85 1.64 3.885.95.95 2.331 1.64 3.885 1.64 1.467 0 2.848-.604 3.884-1.64.95-.95 1.641-2.33 1.641-3.885 0-1.553-.605-2.848-1.641-3.884-.949-.95-2.33-1.64-3.884-1.64-1.554 0-2.849.604-3.885 1.64l-.086.086a5.42 5.42 0 00-1.554 3.798zm3.798 1.64c-.431-.431-.69-1.035-.69-1.726 0-.604.259-1.209.604-1.64l.086-.086c.432-.432 1.036-.691 1.727-.691.69 0 1.295.259 1.726.69.432.432.691 1.037.691 1.727 0 .69-.259 1.295-.691 1.727-.431.431-1.036.69-1.726.69-.691 0-1.295-.259-1.727-.69zm-3.366 3.367a6.972 6.972 0 01-2.072-5.007 6.97 6.97 0 012.072-5.006 6.97 6.97 0 015.006-2.072c1.9 0 3.712.777 5.007 2.072a6.972 6.972 0 012.072 5.006c0 1.9-.777 3.712-2.072 5.007a6.972 6.972 0 01-5.007 2.072 6.97 6.97 0 01-5.006-2.072zm-78.211-23.307v-1.554h-10.445v1.554H76.044l-.69-44.544c0-1.036-.432-1.9-1.123-2.59-.69-.69-1.553-1.036-2.59-1.036h-.086l-22.876 1.9c-6.733.517-12.517 3.539-16.833 8.028-4.403 4.575-7.251 10.704-7.856 17.524v.172l-1.64 37.034v.345c0 1.899.777 3.54 1.986 4.834 1.208 1.295 2.848 2.072 4.748 2.158h7.596c.863 0 1.554-.69 1.554-1.554v-5.005c.086-3.195 1.381-6.13 3.54-8.288a11.288 11.288 0 018.114-3.453h.172c3.194.087 6.043 1.382 8.029 3.453 2.071 2.072 3.28 4.92 3.28 8.115v5.093c0 .863.69 1.554 1.554 1.554h41.954c.863 0 1.554-.69 1.554-1.554v-2.935c.086-3.194 1.381-6.13 3.539-8.287a11.288 11.288 0 018.114-3.453h.173c3.194.086 6.043 1.381 8.028 3.453 2.072 2.072 3.281 4.92 3.281 8.114v.864c0 1.035.431 1.985 1.122 2.676.69.69 1.64 1.122 2.676 1.122h1.64c.863 0 1.554-.69 1.554-1.554v-14.33a7.897 7.897 0 00-2.331-5.611c-1.467-1.468-3.366-2.33-5.611-2.33h-8.46v.086zM43.845 80.8c0 1.468.604 2.849 1.64 3.885.95.95 2.331 1.64 3.885 1.64 1.467 0 2.849-.604 3.884-1.64 1.036-1.036 1.64-2.331 1.64-3.885 0-1.467-.604-2.849-1.64-3.885-1.035-.95-2.33-1.64-3.884-1.64-1.468 0-2.849.605-3.885 1.64-1.036 1.036-1.64 2.418-1.64 3.885zm3.798 1.727c-.431-.432-.69-1.036-.69-1.727 0-.69.259-1.295.69-1.726.432-.432 1.036-.691 1.727-.691.69 0 1.295.259 1.726.69.432.432.69 1.037.69 1.727 0 .69-.258 1.295-.69 1.727-.431.431-1.036.69-1.726.69s-1.295-.259-1.727-.69zm-3.366 3.366a6.972 6.972 0 01-2.072-5.007 7.12 7.12 0 012.072-5.006 6.972 6.972 0 015.006-2.072c1.9 0 3.712.777 5.007 2.072a6.972 6.972 0 012.072 5.006c0 1.9-.777 3.712-2.072 5.007a6.972 6.972 0 01-5.007 2.072c-1.985 0-3.712-.863-5.006-2.072zm68.369-5.093c0 1.468.604 2.849 1.64 3.885.95.95 2.331 1.64 3.885 1.64 1.554 0 2.848-.604 3.884-1.64l.087-.087a5.424 5.424 0 001.554-3.798c0-1.467-.605-2.849-1.641-3.885-.949-.95-2.33-1.64-3.884-1.64-1.468 0-2.849.605-3.885 1.64-.949 1.036-1.64 2.418-1.64 3.885zm3.798 1.727c-.431-.432-.69-1.036-.69-1.727 0-.69.259-1.295.69-1.726.432-.432 1.036-.691 1.727-.691.69 0 1.295.259 1.726.69.432.432.691 1.037.691 1.727 0 .604-.259 1.209-.604 1.64l-.087.087c-.431.431-1.036.69-1.726.69-.691 0-1.295-.259-1.727-.69zm-3.28 3.366a6.972 6.972 0 01-2.072-5.007 7.12 7.12 0 012.072-5.006 6.972 6.972 0 015.007-2.072c1.899 0 3.712.777 5.007 2.072a6.975 6.975 0 012.071 5.006c0 1.9-.777 3.712-2.071 5.007a6.974 6.974 0 01-5.007 2.072 7.178 7.178 0 01-5.007-2.072zm-66.73-39.45V31.25c0-.864-.69-1.554-1.553-1.554h-6.388c-2.072 0-4.057.777-5.611 1.985-1.554 1.295-2.676 3.022-3.108 5.093l-1.554 7.51c-.086.26-.086.432-.086.605 0 .69.259 1.381.69 1.9.432.517 1.036.949 1.727 1.035.259.086.432.086.604.086h13.553c1.036.087 1.727-.604 1.727-1.467zm-3.107-13.64V44.89h-12c.519-2.504.95-5.007 1.555-7.51.259-1.381 1.036-2.504 1.985-3.28 1.036-.778 2.245-1.295 3.626-1.295h4.834z" fill="#374148"/><path d="M77.252 58.615V2.417C77.252 1.036 78.376 0 79.757 0s2.503 1.122 2.503 2.417v44.285a2.413 2.413 0 002.417 2.417h180.506a2.413 2.413 0 012.417 2.417v6.992c0 1.382-1.122 2.504-2.417 2.504H79.584c-1.296 0-2.332-1.122-2.332-2.417zm186.721-6.389c0-.604-.431-1.035-1.036-1.035H82.691c-.604 0-1.036.431-1.036 1.035 0 .605.432 1.037 1.036 1.037h180.246c.605 0 1.036-.432 1.036-1.036zM111.092 1.296a3.868 3.868 0 013.884 3.884v38.674a3.868 3.868 0 01-3.884 3.885H88.734a3.868 3.868 0 01-3.885-3.885V5.179a3.868 3.868 0 013.885-3.884h22.358zm1.554 14.675V12.95h-25.38v3.021h25.38zm0 18.905v-3.021h-25.38v3.021h25.38zM234.45 1.554c1.554 0 2.849 1.295 2.849 2.849v40.4c0 1.553-1.295 2.848-2.849 2.848h-40.4c-1.554 0-2.849-1.295-2.849-2.848v-40.4c0-1.554 1.295-2.85 2.849-2.85h40.4zm-.69 40.572V7.338c0-1.554-1.295-2.85-2.849-2.85h-32.89a2.727 2.727 0 00-2.762 2.763v34.875c0 1.21 1.036 2.245 2.244 2.245h34.012a2.23 2.23 0 002.245-2.245zm-6.13-32.63c.605 0 1.123.518 1.123 1.122v21.408c0 .95-1.123 1.468-1.813.864L203.2 11.48c-.776-.69-.258-1.899.777-1.899l23.653-.086zm-97.374 3.021c1.985 0 3.798 1.468 3.971 3.453.173 2.245-1.554 4.144-3.798 4.144h-6.388c-1.986 0-3.799-1.468-3.971-3.453-.173-2.245 1.553-4.144 3.798-4.144h6.388zm35.825 0c1.985 0 3.798 1.468 3.971 3.453.172 2.245-1.554 4.144-3.799 4.144h-25.724c-1.986 0-3.799-1.468-3.971-3.453-.173-2.245 1.554-4.144 3.798-4.144h25.725zm16.229 0c1.985 0 3.798 1.468 3.971 3.453.172 2.245-1.554 4.144-3.798 4.144h-6.389c-1.985 0-3.798-1.468-3.97-3.453-.173-2.245 1.553-4.144 3.798-4.144h6.388zm19.509 4.834l23.308 20.977c.691.604.259 1.813-.691 1.813h-23.307c-.605 0-1.036-.432-1.036-1.036V18.128c0-.604.518-1.036 1.036-1.036.259-.086.518 0 .69.26zm-53.262 5.007c1.985 0 3.798 1.468 3.971 3.453.172 2.245-1.554 4.144-3.799 4.144h-24.775c-1.985 0-3.798-1.468-3.971-3.453-.172-2.245 1.554-4.144 3.799-4.144h24.775zm33.667 0c1.985 0 3.798 1.468 3.971 3.453.172 2.245-1.554 4.144-3.799 4.144h-24.775c-1.986 0-3.798-1.468-3.971-3.453-.173-2.245 1.554-4.144 3.798-4.144h24.776zm0 10.014c1.985 0 3.798 1.467 3.971 3.453.172 2.244-1.554 4.143-3.799 4.143h-58.701c-1.985 0-3.798-1.467-3.971-3.453-.172-2.244 1.554-4.143 3.799-4.143h58.701zm5.006 9.84v5.094h-68.11v-5.007h68.11v-.086z" fill="url(#paint0_linear)"/><defs><linearGradient id="paint0_linear" x1="267.603" y1="30.571" x2="77.221" y2="30.571" gradientUnits="userSpaceOnUse"><stop stop-color="#008DD2"/><stop offset="1" stop-color="#003C5F"/></linearGradient></defs></svg>