<svg width="481" height="138" fill="none" xmlns="http://www.w3.org/2000/svg"><path d="M414.616 133.905c1.122 0 2.158-.95 2.245-2.072v-.345c.086-1.295-.864-2.331-2.072-2.503l-110.928-8.892c2.417-.518 4.748-1.036 7.079-1.64 12.603-3.108 23.826-7.856 31.94-11.222 4.403-1.813 7.942-3.281 10.014-3.799.604-.172 1.036-.518 1.295-.949.259-.345.345-.777.345-1.209 0-.431-.086-.777-.259-1.208-.259-.432-.691-.864-1.295-1.036l-3.712-1.122c17.956-6.647 32.545-11.395 43.076-14.59h.691c1.64-.086 3.194-.086 4.575-.172 3.539 0 7.856-.086 12.258-.259 6.993-.345 14.417-.95 20.546-1.985.863-.173 1.381-.95 1.294-1.813-.086-.518-.431-1.036-.949-1.209-3.971-1.64-12.345-3.021-20.804-3.712-.777-.086-1.641-.086-2.417-.172-5.18-1.64-13.381-5.87-9.324-15.366 1.382-3.28 5.612-13.035 10.273-23.48l10.791-24.171c.086-.173.172-.346.172-.605 2.158-4.834 3.54-8.028 3.54-8.028.345-.777 0-1.727-.777-2.072-.259-.086-.518-.172-.777-.086l-19.941 1.467c-3.885.26-7.597 1.295-11.05 2.85-3.884 1.726-7.424 4.143-10.618 6.991-12.603 10.964-22.272 19.682-30.041 26.675-30.559 27.537-32.199 29.005-58.442 29.091-19.423 0-50.414.087-82.785.173-38.674.086-79.419.173-105.23.173H97.89c-21.408-.173-54.989-.346-67.247 17.092l-9.755 3.626c-2.935 1.122-5.524 3.884-6.906 7.424-.863 2.33-1.208 5.093-.604 7.855.604 2.762 2.158 5.525 4.92 8.028 5.266 4.834 15.108 8.633 31.94 9.323h96.253c.259 1.554 1.036 3.022 2.158 4.058 1.381 1.467 3.367 2.33 5.525 2.33h7.079c.259 1.641.949 3.022 2.071 4.144 1.295 1.295 3.108 2.158 5.094 2.158 1.985 0 3.798-.777 5.093-2.158 1.122-1.122 1.813-2.503 2.072-4.144h1.899c.259 1.641.949 3.022 2.071 4.144 1.295 1.295 3.108 2.158 5.094 2.158 1.985 0 3.798-.777 5.093-2.158 1.122-1.122 1.813-2.503 2.072-4.144h1.899c.259 1.641.949 3.022 2.072 4.144 1.294 1.295 3.107 2.158 5.093 2.158 1.985 0 3.798-.777 5.093-2.158 1.122-1.122 1.813-2.503 2.072-4.144h1.899c.259 1.641.949 3.022 2.072 4.144 1.294 1.295 3.107 2.158 5.093 2.158 1.985 0 3.798-.777 5.093-2.158 1.122-1.122 1.813-2.503 2.072-4.144h5.352c2.158 0 4.057-.863 5.525-2.244 1.122-1.122 1.899-2.503 2.158-4.144 2.503.087 7.942.173 14.934 0a13.159 13.159 0 00-.259 2.59v1.554h1.554c.086 0 13.38-.086 29.955-2.072l131.3 10.532c-.259.345-.173.345-.173.345zm56.543.173c-.863 0-1.554.69-1.554 1.554 0 .863.691 1.553 1.554 1.553h8.287c.863 0 1.554-.69 1.554-1.553 0-.864-.691-1.554-1.554-1.554h-8.287zm-33.321 0c-.864 0-1.554.69-1.554 1.554 0 .863.69 1.553 1.554 1.553h26.674c.863 0 1.554-.69 1.554-1.553 0-.864-.691-1.554-1.554-1.554h-26.674zm-435.941 0c-.863 0-1.554.69-1.554 1.554 0 .863.69 1.553 1.554 1.553h429.121c.863 0 1.554-.69 1.554-1.553 0-.864-.691-1.554-1.554-1.554H87.186c1.467-.087 2.762-.777 3.798-1.727 1.122-1.122 1.727-2.59 1.727-4.23 0-1.64-.691-3.194-1.727-4.23-1.122-1.122-2.59-1.726-4.23-1.726-1.64 0-3.194.691-4.23 1.726l-.086.087c-1.036 1.122-1.64 2.503-1.64 4.143 0 1.64.69 3.108 1.726 4.23.95.95 2.331 1.64 3.799 1.727H1.897zm389.411-106.87h3.022c.863 0 1.554-.691 1.554-1.554 0-.864-.691-1.554-1.554-1.554h-1.209l5.266-8.719c.518-.777 1.122-1.467 1.899-1.9a6.475 6.475 0 012.59-.776l12.344-.604c-2.676 5.956-6.042 13.639-9.323 21.063l-11.999 26.933h-21.063c-.173 0-.259 0-.432-.086-.086-.086-.259-.173-.259-.259-.086-.086-.086-.259-.086-.432 0-.086 0-.259.086-.431l5.957-9.841h3.453c.863 0 1.554-.69 1.554-1.554 0-.863-.691-1.554-1.554-1.554H380l11.308-18.732zm25.38-18.215l-13.898.604c-1.468.087-2.849.518-3.971 1.209a7.97 7.97 0 00-2.935 2.935l-26.243 43.508a4.013 4.013 0 00-.518 1.985c0 .69.173 1.381.518 1.9.345.603.777 1.121 1.381 1.467.604.345 1.209.518 1.986.518h20.976c-.258 4.92 2.418 8.287 5.698 10.531h-.345l-2.935-.345h-.173l-57.147-1.727c-6.215-.258-10.445.864-12.517 2.331-1.036.777-1.64 1.727-1.727 2.763-.086 1.036.346 2.072 1.381 2.935 1.727 1.554 5.612 2.762 11.827 2.935.777 0 1.813.086 3.194.086 7.769.26 23.998.863 40.4.777-10.014 3.194-22.444 7.424-36.861 12.862l-9.841-3.107h-.259c-.69 0-1.295.086-1.985.259-.691.172-1.295.431-1.899.69-3.194 1.64-11.568 5.784-23.74 9.582-12.171 3.799-28.142 7.338-46.529 7.77-2.417.086-4.575 1.726-6.215 3.971-.518.776-1.036 1.64-1.381 2.589-9.237.173-16.143 0-17.179 0h-.173c-.863 0-1.554.691-1.554 1.554v.173c0 1.295-.517 2.503-1.381 3.28-.863.863-1.985 1.381-3.28 1.381h-75.189c-1.295 0-2.417-.518-3.28-1.381-.864-.863-1.382-2.072-1.382-3.453v.086c0-.863-.69-1.553-1.553-1.553H50.411c-15.97-.605-25.206-4.144-29.954-8.547-2.245-2.071-3.453-4.229-3.971-6.474-.518-2.158-.26-4.23.431-6.129 1.036-2.676 2.935-4.834 5.094-5.611l6.82-2.59h21.408c1.036 0 1.985-.518 2.59-1.295.604-.69.95-1.64.95-2.676v-3.194a2.78 2.78 0 00-.605-1.726c-.432-.518-1.036-.864-1.813-.864h-9.755c14.762-8.632 39.45-8.46 56.284-8.373h5.957l-.087.086c-.518.864-.863 1.727-1.036 2.676-.172.95-.086 1.986.173 2.935.691 2.418 2.849 4.49 6.561 5.007 16.488 2.331 32.372 4.92 47.824 7.856-1.036 1.295-1.727 2.935-1.727 4.661v11.136a7.3 7.3 0 002.158 5.18c1.295 1.295 3.194 2.158 5.18 2.158h60.686c1.209 0 2.331.172 3.367.518 1.036.345 2.072.863 3.021 1.554l2.245 1.64c.69.518 1.64.345 2.158-.345.518-.691.345-1.641-.346-2.159l-2.244-1.64c-1.208-.863-2.503-1.554-3.885-1.985-1.381-.432-2.762-.691-4.316-.691h-28.228c.691-.69 1.209-1.381 1.726-2.244l8.978-1.554c.777-.086 1.295-.777 1.295-1.554v-3.626a957.731 957.731 0 0114.934 3.971c1.382.95 3.54 1.641 6.561 1.813 5.438.432 17.956.086 31.681-1.036 10.791-.863 22.272-2.244 31.681-4.057.864-.173 1.382-.95 1.209-1.813-.086-.69-.691-1.122-1.295-1.208-5.525-1.036-15.366-2.159-25.984-2.85l-64.053-24.774h6.388c32.372-.087 63.276-.173 82.786-.173 27.365 0 29.091-1.64 60.427-29.868 7.856-7.079 17.611-15.884 29.955-26.675 3.021-2.676 6.388-4.92 9.927-6.56 3.108-1.468 6.475-2.331 10.014-2.59l17.438-1.295-2.331 5.87zM289.877 73.909h-4.834c-.95 0-1.813.432-2.504 1.036a3.512 3.512 0 00-1.036 2.504v9.754c0 .95.432 1.813 1.036 2.504l.086.086a3.34 3.34 0 002.331.95h4.834c.95 0 1.813-.432 2.504-1.036.604-.604 1.036-1.468 1.036-2.417v-9.755c0-.95-.432-1.813-1.036-2.504-.604-.69-1.468-1.122-2.417-1.122zm-4.834 3.108h4.834c.086 0 .172 0 .259.086.086.087.086.173.086.26v9.754c0 .086 0 .173-.086.259-.087.086-.173.086-.259.086h-4.834c-.087 0-.173 0-.259-.086-.087-.086-.087-.173-.087-.259v-9.755c0-.086.087-.172.087-.259 0 0 .086-.086.259-.086zM87.79 91.692h-5.697a3.787 3.787 0 00-2.676 1.123 3.787 3.787 0 00-1.123 2.675v11.31c0 1.036.432 1.986 1.123 2.676a3.785 3.785 0 002.676 1.122h5.697a3.785 3.785 0 002.676-1.122l.087-.086c.604-.691 1.035-1.554 1.035-2.59V95.49a3.787 3.787 0 00-1.122-2.675 3.787 3.787 0 00-2.676-1.123zM82.093 94.8h5.697c.173 0 .345.086.518.173.173.086.173.345.173.517v11.31a.661.661 0 01-.173.432l-.086.086c-.173.173-.346.173-.518.173h-5.698c-.172 0-.345-.087-.518-.173-.172-.086-.172-.345-.172-.518V95.49c0-.172.086-.345.172-.517.26-.087.432-.173.605-.173zm302.396-18.646c-.087.172-.259.259-.346.431a3.001 3.001 0 00-.517 2.072c.086.604.259 1.295.69 1.813-17.265.173-34.875-.432-43.076-.777-1.295-.086-2.331-.086-3.194-.086-5.438-.173-8.633-1.123-9.927-2.245l-.346-.345c0-.086.173-.259.432-.518 1.554-1.122 5.093-1.985 10.532-1.727l45.752 1.382zm25.207 1.208c4.402.346 8.805.864 12.517 1.554-4.058.432-8.287.69-12.345.863-8.719.432-16.574.26-19.941-.086-1.726-.173-2.676-.604-3.107-1.122-.087-.087-.087-.173-.087-.173 0-.086 0-.086.087-.172.259-.346.69-.605 1.467-.777 3.712-.864 12.604-.864 21.409-.087zM220.04 100.843c-17.351-4.748-34.616-8.892-52.313-12.431-18.733-3.798-37.81-6.992-57.924-9.841-2.331-.345-3.626-1.468-4.057-2.849-.173-.518-.173-1.036-.087-1.554a4.264 4.264 0 01.518-1.467c.691-1.122 1.986-1.813 3.799-1.554 22.012 3.367 42.299 7.596 61.204 12.258 17.783 4.489 34.357 9.41 49.982 14.762-.173.258-.432.518-.518.69a5.835 5.835 0 00-.604 1.986zm4.661-4.748c-16.488-5.698-33.925-10.963-52.658-15.711a724.74 724.74 0 00-44.112-9.496c19.51 0 42.558-.086 65.693-.173l4.835 1.9h-8.633c-.604 0-1.208.345-1.467.949-.346.777.086 1.727.863 1.986l40.4 15.624c.432.173.863.346 1.381.346.432.086.95.086 1.381.086h15.28l8.287 3.194c-.777 0-1.64-.086-2.417-.086-11.827-.432-22.876-.26-28.228 1.035-.173.173-.346.26-.605.346zm28.747 1.813c9.841.345 20.286 1.208 28.314 2.158-6.906 1.036-14.416 1.813-21.581 2.331-13.553 1.122-25.898 1.381-31.25 1.035-2.935-.172-4.661-.863-5.438-1.64-.259-.259-.345-.431-.345-.604s0-.432.172-.604c.432-.69 1.381-1.295 2.763-1.64 5.093-1.295 15.797-1.468 27.365-1.036zm-92.109-7.597c1.985.345 3.885.777 5.87 1.209l.691.172v18.042h-4.835c-1.208 0-2.244-.518-3.021-1.208-.777-.777-1.208-1.813-1.208-3.022V94.368c0-1.208.517-2.244 1.208-3.021.345-.518.777-.863 1.295-1.036zm9.668 1.9c3.367.69 6.734 1.38 10.1 2.157v15.28h-10.1V92.21zm13.122 2.848c3.712.863 7.51 1.726 11.222 2.59v4.402c0 2.072-.863 3.971-2.158 5.266-1.381 1.381-3.194 2.158-5.266 2.158h-3.712l-.086-14.416zm14.33 3.367c1.899.431 3.798.95 5.783 1.467v3.194l-5.956 1.036c.086-.604.173-1.295.173-1.899v-3.798zm8.028-22.704l33.321 12.863h-7.337c-.259 0-.605 0-.864-.087-.259-.086-.518-.086-.777-.259l-32.717-12.603 8.374.086zm6.302 51.968h8.028c-.173.777-.604 1.381-1.122 1.899a4.11 4.11 0 01-2.935 1.208 4.111 4.111 0 01-2.936-1.208c-.431-.518-.863-1.122-1.035-1.899zm-48.515 0h8.028c-.172.777-.604 1.381-1.122 1.899a4.11 4.11 0 01-2.935 1.208 4.11 4.11 0 01-2.935-1.208c-.432-.518-.863-1.122-1.036-1.899zm16.229 0h7.942c-.173.777-.604 1.381-1.122 1.899a4.11 4.11 0 01-2.935 1.208 4.109 4.109 0 01-2.935-1.208 4.383 4.383 0 01-.95-1.899zm16.143 0h8.028c-.173.777-.604 1.381-1.122 1.899a4.11 4.11 0 01-2.935 1.208 4.11 4.11 0 01-2.935-1.208 3.725 3.725 0 01-1.036-1.899zm137.688-31.25l15.28 4.834c-2.159.777-4.748 1.899-7.856 3.194-8.028 3.367-19.164 7.942-31.509 11.05-22.53 5.611-48.687 6.647-55.507 6.82.259-1.641 1.036-3.367 1.986-4.835 1.036-1.553 2.331-2.589 3.712-2.676 18.646-.431 34.961-3.971 47.392-7.855 12.431-3.885 20.977-8.115 24.258-9.841.431-.173.776-.346 1.208-.432a2.298 2.298 0 011.036-.259zm-136.998 10.618c0-.086.087-.086.087-.173-.087 0-.087.087-.087.173zM37.117 82.369h13.467v2.676c0 .26-.086.518-.259.69-.086.087-.172.174-.259.174H33.664c1.036-1.295 2.159-2.504 3.453-3.54zm47.565 47.738a2.86 2.86 0 01-.863-2.072c0-.777.26-1.468.777-1.985l.086-.087a2.859 2.859 0 012.072-.863c.777 0 1.554.345 2.072.863a2.86 2.86 0 01.863 2.072c0 .777-.345 1.554-.863 2.072a2.859 2.859 0 01-2.072.863 2.859 2.859 0 01-2.072-.863z" fill="#374148"/><path d="M345.125 98.253l20.804 1.468c.777.086 1.382.777 1.295 1.554l-1.64 23.048c-.086.777-.777 1.381-1.554 1.295l-23.048-1.64c-.777-.086-1.382-.777-1.295-1.554l1.122-15.97a76.509 76.509 0 003.626-1.554l-1.123 15.97h.087l16.315 1.209 1.036.086h.086c.777 0 1.382-.604 1.468-1.381l1.122-15.625.086-1.036c.087-.777-.518-1.467-1.295-1.554l-1.035-.086-8.719-.604h.086c.691-.173.691-1.122 0-1.381l-7.424-2.245zm4.489 5.957l10.791.777c.345 0 .518.258.518.604l-.864 11.654c0 .518-.69.777-1.036.345l-10.013-12.431c-.173-.345.086-.949.604-.949zm-1.64 3.971l8.287 10.272c.432.518 0 1.209-.604 1.209l-8.978-.605c-.432 0-.691-.345-.691-.776l.691-9.669c0-.431.345-.69.777-.69.086 0 .345.086.518.259zm29.178 1.64l9.754.777c1.813.172 3.194 1.726 3.022 3.539l-.777 9.755c-.173 1.812-1.727 3.194-3.539 3.021l-9.755-.777c-1.813-.173-3.194-1.726-3.022-3.539l.777-9.755c.173-1.726 1.554-3.021 3.281-3.021.086-.087.172-.087.259 0zm-17.179 10.186h-.086.086z" fill="url(#paint0_linear)"/><defs><linearGradient id="paint0_linear" x1="389.944" y1="112.616" x2="339.67" y2="112.616" gradientUnits="userSpaceOnUse"><stop stop-color="#008DD2"/><stop offset="1" stop-color="#003C5F"/></linearGradient></defs></svg>