<svg width="316" height="95" fill="none" xmlns="http://www.w3.org/2000/svg"><path d="M173.858 65.003l-5.438 8.114c-.259.432-.777.69-1.295.69H131.3l-3.712 4.921c-.345.432-.777.605-1.208.605h-3.022c-1.036 0-1.985-.346-2.848-.864-.864-.518-1.468-1.38-1.9-2.33-.259-.518-.518-1.036-.777-1.468a19.18 19.18 0 00-1.035-1.381 10.757 10.757 0 00-3.626-2.59c-1.381-.604-2.849-.95-4.403-.95-1.554 0-3.021.346-4.402.95a11.109 11.109 0 00-3.626 2.59l-.086.086-1.036 1.295c-.345.518-.604 1.036-.863 1.554-.432.95-1.036 1.726-1.9 2.244-.776.518-1.726.864-2.762.864h-.086c-1.036 0-1.986-.346-2.849-.864l-.086-.086c-.777-.518-1.381-1.381-1.813-2.245a22.692 22.692 0 00-.777-1.467c-.259-.432-.604-.95-1.036-1.381-1.036-1.209-2.244-2.158-3.712-2.849a11.412 11.412 0 00-4.575-.95c-1.64 0-3.194.346-4.575.95-1.468.69-2.676 1.64-3.712 2.849-.346.431-.777.95-1.036 1.467a5.728 5.728 0 00-.777 1.64 4.71 4.71 0 01-1.727 2.159c-.776.518-1.64.863-2.676.863h-2.59a1.538 1.538 0 01-1.38-.863l-2.85-4.662h-23.48c-.863 0-1.553-.69-1.553-1.554v-8.114c0-.864.69-1.554 1.553-1.554H75.88v-2.935c0-.863.69-1.554 1.553-1.554h10.1c.864 0 1.554.69 1.554 1.554v2.935h65.607v-2.935c0-.863.691-1.554 1.554-1.554h9.668c.864 0 1.554.69 1.554 1.554v2.935h5.18c.863 0 1.554.69 1.554 1.554-.087.259-.173.518-.346.777zM9.841 90.986c.863 0 1.554.691 1.554 1.554 0 .863-.69 1.554-1.554 1.554H1.554C.69 94.094 0 93.404 0 92.54c0-.863.69-1.554 1.554-1.554H9.84zm36.343 0c.863 0 1.554.691 1.554 1.554 0 .863-.69 1.554-1.554 1.554H16.402c-.864 0-1.554-.69-1.554-1.554 0-.863.69-1.554 1.554-1.554h29.782zm267.521 0c.863 0 1.553.691 1.553 1.554 0 .863-.69 1.554-1.553 1.554H53.003c-.863 0-1.553-.69-1.553-1.554 0-.863.69-1.554 1.553-1.554h141.919c-2.763 0-5.353-1.122-7.165-2.935-1.813-1.812-2.935-4.402-2.935-7.165 0-2.762 1.122-5.352 2.935-7.165 1.812-1.812 4.402-2.935 7.165-2.935 2.762 0 5.352 1.123 7.165 2.935 1.812 1.813 2.935 4.403 2.935 7.165 0 2.763-1.123 5.353-2.935 7.165-1.813 1.813-4.403 2.935-7.165 2.935h68.887c-2.763 0-5.352-1.122-7.165-2.935-1.813-1.812-2.935-4.402-2.935-7.165 0-2.762 1.122-5.352 2.935-7.165 1.813-1.812 4.402-2.935 7.165-2.935 2.762 0 5.352 1.123 7.165 2.935 1.813 1.813 2.935 4.403 2.935 7.165 0 2.763-1.122 5.353-2.935 7.165-1.813 1.813-4.403 2.935-7.165 2.935h49.896zM84.857 80.282c0 1.468-.604 2.849-1.64 3.885-.95.95-2.33 1.64-3.884 1.64-1.554 0-2.85-.604-3.885-1.64-.95-.95-1.64-2.331-1.64-3.885 0-1.554.604-2.849 1.64-3.885.95-.95 2.33-1.64 3.885-1.64 1.467 0 2.848.605 3.884 1.64 1.036.95 1.64 2.331 1.64 3.885zm-3.798 1.64c.432-.431.69-1.036.69-1.726s-.258-1.295-.69-1.727a2.413 2.413 0 00-1.726-.69c-.691 0-1.295.259-1.727.69-.432.432-.69 1.036-.69 1.727 0 .69.258 1.295.69 1.726.432.432 1.036.69 1.727.69.69 0 1.294-.258 1.726-.69zm8.546-1.64c0 2.763-1.122 5.352-2.935 7.165-1.813 1.813-4.402 2.935-7.165 2.935-2.762 0-5.352-1.122-7.165-2.935-1.813-1.813-2.935-4.403-2.935-7.165 0-2.762 1.122-5.352 2.935-7.165 1.813-1.813 4.403-2.935 7.165-2.935 2.763 0 5.352 1.122 7.165 2.935 1.727 1.9 2.935 4.403 2.935 7.165zm-5.18 5.007a6.972 6.972 0 002.073-5.007 7.124 7.124 0 00-2.072-5.007 6.972 6.972 0 00-5.007-2.072c-1.9 0-3.712.777-5.007 2.072a6.973 6.973 0 00-2.072 5.007c0 1.9.777 3.712 2.072 5.007a6.972 6.972 0 005.007 2.072 6.972 6.972 0 005.007-2.072zm29.61-5.007c0 1.468-.604 2.849-1.64 3.885-.95.95-2.331 1.64-3.885 1.64-1.467 0-2.848-.604-3.884-1.64s-1.64-2.331-1.64-3.885c0-1.554.604-2.849 1.64-3.885.949-.95 2.331-1.64 3.884-1.64 1.554 0 2.849.605 3.885 1.64l.086.087a5.42 5.42 0 011.554 3.798zm-3.798 1.64c.432-.431.69-1.036.69-1.726 0-.605-.259-1.209-.604-1.64l-.086-.087c-.432-.431-1.036-.69-1.727-.69a2.41 2.41 0 00-1.726.69c-.432.432-.691 1.036-.691 1.727 0 .69.259 1.295.691 1.726a2.41 2.41 0 001.726.69c.691 0 1.295-.258 1.727-.69zm8.46-1.64c0 2.763-1.123 5.352-2.935 7.165-1.813 1.813-4.403 2.935-7.165 2.935-2.763 0-5.352-1.122-7.165-2.935-1.813-1.813-2.935-4.403-2.935-7.165 0-2.762 1.122-5.352 2.935-7.165 1.813-1.813 4.402-2.935 7.165-2.935 2.762 0 5.352 1.122 7.165 2.935 1.812 1.9 2.935 4.403 2.935 7.165zm-5.093 5.007a6.975 6.975 0 002.071-5.007 7.127 7.127 0 00-2.071-5.007 6.974 6.974 0 00-5.007-2.072 7.124 7.124 0 00-5.007 2.072 6.972 6.972 0 00-2.072 5.007c0 1.9.777 3.712 2.072 5.007a6.972 6.972 0 005.007 2.072 6.974 6.974 0 005.007-2.072zm77.692-22.703v-1.554h10.445v1.554h35.307l.691-44.544c0-1.036.431-1.9 1.122-2.59.691-.69 1.554-1.036 2.59-1.036h.086l22.876 1.9c6.733.517 12.517 3.539 16.833 8.028 4.403 4.575 7.252 10.704 7.856 17.524v.172l1.64 37.034v.345a6.851 6.851 0 01-1.985 4.834c-1.209 1.295-2.849 2.072-4.748 2.158h-7.597c-.863 0-1.554-.69-1.554-1.554v-5.005c-.086-3.195-1.381-6.13-3.539-8.288a11.14 11.14 0 00-8.114-3.453h-.259c-3.194.087-6.043 1.382-8.029 3.453-2.071 2.072-3.28 4.92-3.28 8.115v5.093c0 .863-.691 1.554-1.554 1.554h-41.954c-.863 0-1.554-.69-1.554-1.554v-2.935c-.086-3.194-1.381-6.13-3.539-8.287a11.14 11.14 0 00-8.114-3.453h-.259c-3.194.086-6.043 1.381-8.029 3.453-2.071 2.072-3.28 4.92-3.28 8.114v.864a3.79 3.79 0 01-1.122 2.676 3.788 3.788 0 01-2.676 1.122h-1.64c-.864 0-1.554-.69-1.554-1.554v-14.33c0-2.158.863-4.144 2.331-5.611 1.467-1.468 3.366-2.33 5.611-2.33l6.992.086zM269.247 80.8c0 1.554-.604 2.849-1.64 3.885l-.086.086a5.422 5.422 0 01-3.798 1.554c-1.468 0-2.849-.604-3.885-1.64-.95-.95-1.64-2.331-1.64-3.885 0-1.554.604-2.849 1.64-3.885.949-.95 2.331-1.64 3.885-1.64 1.467 0 2.848.605 3.884 1.64.95 1.036 1.64 2.418 1.64 3.885zm-3.798 1.727c.432-.432.691-1.036.691-1.727 0-.69-.259-1.295-.691-1.726a2.41 2.41 0 00-1.726-.691c-.691 0-1.295.259-1.727.69-.432.432-.691 1.037-.691 1.727 0 .69.259 1.295.691 1.727.432.431 1.036.69 1.727.69.604 0 1.208-.259 1.726-.69zm3.28 3.366a6.972 6.972 0 002.072-5.007 7.12 7.12 0 00-2.072-5.006 6.97 6.97 0 00-5.006-2.072c-1.9 0-3.712.777-5.007 2.072a6.972 6.972 0 00-2.072 5.006c0 1.9.777 3.712 2.072 5.007a6.972 6.972 0 005.007 2.072c1.985-.086 3.798-.863 5.006-2.072zM200.36 80.8c0 1.468-.604 2.849-1.64 3.885-.95.95-2.331 1.64-3.885 1.64-1.467 0-2.848-.604-3.884-1.64-.95-.95-1.641-2.331-1.641-3.885 0-1.554.605-2.849 1.641-3.885l.086-.086a5.423 5.423 0 013.798-1.554c1.554 0 2.849.605 3.885 1.64l.086.087c.95 1.036 1.554 2.33 1.554 3.798zm-3.798 1.727c.431-.432.69-1.036.69-1.727 0-.604-.259-1.209-.604-1.64l-.086-.086c-.432-.432-1.036-.691-1.727-.691-.604 0-1.208.259-1.64.604l-.086.087c-.432.431-.691 1.035-.691 1.726 0 .69.259 1.295.691 1.727.431.431 1.036.69 1.726.69.691 0 1.295-.259 1.727-.69zm3.366 3.366A6.972 6.972 0 00202 80.886a7.12 7.12 0 00-2.072-5.006 6.97 6.97 0 00-5.006-2.072c-1.9 0-3.712.777-5.007 2.072a6.972 6.972 0 00-2.072 5.006c0 1.9.777 3.712 2.072 5.007a6.972 6.972 0 005.007 2.072c1.985-.086 3.712-.863 5.006-2.072zm66.73-39.45V31.25c0-.864.69-1.554 1.553-1.554h6.388c2.072 0 4.058.777 5.612 1.985 1.553 1.295 2.676 3.022 3.107 5.093l1.554 7.51c.086.26.086.432.086.605a3.02 3.02 0 01-.69 1.9c-.432.517-1.036.949-1.727 1.035-.259.086-.431.086-.604.086h-13.553c-1.036.087-1.726-.604-1.726-1.467zm3.107-13.64V44.89h11.999c-.518-2.504-.949-5.007-1.553-7.51-.259-1.381-1.036-2.504-1.986-3.28-1.036-.778-2.244-1.295-3.626-1.295h-4.834zm14.071 50.414h.173c1.036-.086 1.985-.518 2.676-1.208a3.785 3.785 0 001.122-2.676v-.173l-1.64-37.033a26.109 26.109 0 00-6.992-15.712c-3.799-3.97-8.978-6.56-14.848-7.078l-22.963-1.9c-.172 0-.259.087-.431.173a.656.656 0 00-.173.432l-.777 46.097c0 .864-.69 1.554-1.554 1.554H184.39a4.768 4.768 0 00-3.367 1.381 4.767 4.767 0 00-1.381 3.367v12.776h.086a.659.659 0 00.432-.172.661.661 0 00.173-.432v-.863c0-3.971 1.64-7.597 4.23-10.273 2.589-2.676 6.215-4.316 10.186-4.403h.259c4.057 0 7.683 1.727 10.359 4.403a15.152 15.152 0 014.402 10.359v1.381h38.847v-3.54c0-3.97 1.64-7.596 4.23-10.272 2.589-2.676 6.215-4.316 10.186-4.402h.259c4.057 0 7.683 1.726 10.359 4.402a15.151 15.151 0 014.402 10.36v3.452h5.784zM166.348 70.7l3.367-5.007h-3.799c-.863 0-1.553-.69-1.553-1.554v-2.935h-6.647v2.935c0 .864-.691 1.554-1.554 1.554H87.447c-.863 0-1.554-.69-1.554-1.554v-2.935h-6.992v2.935c0 .864-.69 1.554-1.554 1.554H35.911V70.7h22.963c.517 0 1.035.26 1.294.777l2.935 4.748h1.727c.345 0 .604-.087.863-.26.26-.172.518-.43.605-.776.258-.69.604-1.381 1.035-2.072a15.27 15.27 0 011.382-1.899c1.294-1.554 2.935-2.762 4.748-3.626 1.812-.863 3.798-1.294 5.87-1.294 2.071 0 4.057.431 5.87 1.294 1.813.864 3.453 2.072 4.748 3.626.431.518.863 1.122 1.294 1.727.346.604.691 1.294 1.036 1.899.173.345.432.69.69.95.346.172.691.344 1.037.344h.086c.432 0 .777-.086 1.036-.345.345-.259.604-.518.777-.95.259-.69.69-1.38 1.036-1.985.345-.604.777-1.122 1.295-1.726l.086-.087c1.295-1.467 2.935-2.59 4.662-3.366a13.638 13.638 0 0111.222 0c1.813.777 3.367 1.985 4.661 3.366.518.605.95 1.123 1.382 1.727.431.604.776 1.295 1.035 1.899.173.432.432.777.864.95.345.259.69.345 1.122.345h2.244l3.626-4.834c.259-.432.777-.69 1.295-.69l35.911.258z" fill="#3C464E"/><path d="M246.544 10.618V7.424c0-3.108-2.503-5.698-5.697-5.698h-5.698a.865.865 0 01-.863-.863.865.865 0 00-.863-.863H34.703a.865.865 0 00-.863.863v59.305c0 .518.431.864.863.864h198.633a.866.866 0 00.864-.864V12.431c0-.518.431-.863.863-.863h10.445c.604-.087 1.036-.432 1.036-.95zM134.322 7.597c0-.864.69-1.554 1.554-1.554.863 0 1.553.69 1.553 1.554V25.81l6.993-6.992v-8.805c0-.864.69-1.554 1.554-1.554.863 0 1.553.69 1.553 1.554v7.51l.087.086h7.51c.863 0 1.554.69 1.554 1.554 0 .863-.691 1.554-1.554 1.554h-8.287l-7.251 7.251h18.214c.863 0 1.554.69 1.554 1.554 0 .863-.691 1.554-1.554 1.554H139.76l6.906 6.906h8.287c.864 0 1.554.69 1.554 1.554 0 .863-.69 1.554-1.554 1.554h-7.337c-.087.086-.173.172-.259.172V48.6c0 .863-.691 1.554-1.554 1.554-.863 0-1.554-.69-1.554-1.554v-8.633l-6.906-6.906V51.45c0 .863-.69 1.553-1.554 1.553-.863 0-1.554-.69-1.554-1.553V33.32l-6.992 6.993v8.632c0 .864-.69 1.554-1.554 1.554-.863 0-1.554-.69-1.554-1.554V41.35h-7.596a1.548 1.548 0 01-1.554-1.554c0-.864.691-1.554 1.554-1.554h8.373l7.079-7.079h-18.128c-.863 0-1.554-.69-1.554-1.554 0-.863.691-1.553 1.554-1.553h18.301l-7.165-7.165h-8.546a1.547 1.547 0 01-1.554-1.554c0-.863.69-1.554 1.554-1.554h7.596v-7.597c0-.863.691-1.554 1.554-1.554.863 0 1.554.691 1.554 1.554v8.547l6.992 6.992.173-18.128z" fill="url(#paint0_linear)"/><defs><linearGradient id="paint0_linear" x1="33.835" y1="30.571" x2="246.579" y2="30.571" gradientUnits="userSpaceOnUse"><stop stop-color="#008DD2"/><stop offset="1" stop-color="#003C5F"/></linearGradient></defs></svg>