<svg width="326" height="130" fill="none" xmlns="http://www.w3.org/2000/svg"><path d="M275.808 81.976V66.783c0-.863.691-1.554 1.554-1.554h6.388c2.072 0 4.057.777 5.611 1.986 1.554 1.295 2.676 3.021 3.108 5.093l1.554 7.51c.086.26.086.432.086.605 0 .69-.259 1.38-.691 1.899-.431.518-1.036.95-1.726 1.036-.259.086-.432.086-.604.086h-13.554c-1.035.086-1.726-.604-1.726-1.468zM9.841 126.52c.863 0 1.554.691 1.554 1.554 0 .863-.69 1.554-1.554 1.554H1.554A1.548 1.548 0 010 128.074c0-.863.69-1.554 1.554-1.554H9.84zm36.343 0c.863 0 1.554.691 1.554 1.554 0 .863-.69 1.554-1.554 1.554H16.488a1.548 1.548 0 01-1.554-1.554c0-.863.69-1.554 1.554-1.554h29.696zm278.225 0c.863 0 1.554.691 1.554 1.554 0 .863-.691 1.554-1.554 1.554H53.089a1.548 1.548 0 01-1.553-1.554c0-.863.69-1.554 1.554-1.554h13.294c-2.763 0-5.352-1.122-7.165-2.935-1.813-1.813-2.935-4.403-2.935-7.165 0-2.762 1.122-5.352 2.935-7.165 1.813-1.813 4.402-2.935 7.165-2.935 2.762 0 5.352 1.122 7.165 2.935 1.813 1.813 2.935 4.403 2.935 7.165 0 2.762-1.122 5.352-2.935 7.165-1.813 1.813-4.403 2.935-7.165 2.935h29.178c-2.763 0-5.352-1.122-7.165-2.935-1.813-1.813-2.935-4.403-2.935-7.165 0-2.762 1.122-5.352 2.935-7.165 1.813-1.813 4.402-2.935 7.165-2.935 2.762 0 5.352 1.122 7.165 2.935 1.812 1.813 2.935 4.403 2.935 7.165 0 2.762-1.123 5.352-2.935 7.165-1.813 1.813-4.403 2.935-7.165 2.935h108.596c-2.762 0-5.352-1.122-7.165-2.935-1.812-1.813-2.935-4.403-2.935-7.165 0-2.762 1.123-5.352 2.935-7.165 1.813-1.813 4.403-2.935 7.165-2.935 2.763 0 5.352 1.122 7.165 2.935 1.813 1.813 2.935 4.403 2.935 7.165 0 2.762-1.122 5.352-2.935 7.165-1.813 1.813-4.402 2.935-7.165 2.935h68.888c-2.763 0-5.353-1.122-7.165-2.935-1.813-1.813-2.935-4.403-2.935-7.165 0-2.762 1.122-5.352 2.935-7.165 1.812-1.813 4.402-2.935 7.165-2.935 2.762 0 5.352 1.122 7.165 2.935 1.812 1.813 2.935 4.403 2.935 7.165 0 2.762-1.123 5.352-2.935 7.165-1.813 1.813-4.403 2.935-7.165 2.935h51.363zm-46.011-10.186c0 1.467-.605 2.848-1.64 3.884-.95.95-2.331 1.64-3.885 1.64-1.554 0-2.849-.604-3.885-1.64-.949-.949-1.64-2.33-1.64-3.884 0-1.468.604-2.849 1.64-3.885.95-.95 2.331-1.64 3.885-1.64 1.554 0 2.849.604 3.885 1.64l.086.086c.949 1.036 1.554 2.331 1.554 3.799zm-3.799 1.64c.432-.432.691-1.036.691-1.727 0-.604-.259-1.208-.604-1.64l-.087-.086c-.431-.432-1.035-.691-1.726-.691-.691 0-1.295.259-1.727.691-.431.431-.69 1.036-.69 1.726 0 .691.259 1.295.69 1.727.432.431 1.036.69 1.727.69.691.087 1.295-.259 1.726-.69zm3.367 3.367a6.973 6.973 0 002.072-5.007 7.124 7.124 0 00-2.072-5.007 6.972 6.972 0 00-5.007-2.072 7.124 7.124 0 00-5.007 2.072 6.975 6.975 0 00-2.071 5.007c0 1.899.777 3.712 2.071 5.007a6.977 6.977 0 005.007 2.071 7.127 7.127 0 005.007-2.071zm-206.23-5.007c0 1.554-.604 2.848-1.64 3.884s-2.331 1.64-3.885 1.64c-1.467 0-2.849-.604-3.884-1.64-1.036-1.036-1.64-2.33-1.64-3.884 0-1.554.604-2.849 1.64-3.885l.086-.086a5.42 5.42 0 013.798-1.554c1.554 0 2.849.604 3.885 1.64l.086.086c1.036 1.036 1.554 2.331 1.554 3.799zm-3.712 1.64c.432-.432.69-1.036.69-1.727 0-.604-.258-1.208-.604-1.64l-.086-.086c-.432-.432-1.036-.691-1.727-.691-.604 0-1.208.259-1.64.605l-.086.086c-.432.431-.69 1.036-.69 1.726 0 .691.258 1.295.69 1.727.432.431 1.036.69 1.727.69.69.087 1.294-.259 1.726-.69zm3.28 3.367a6.974 6.974 0 002.072-5.007 7.124 7.124 0 00-2.072-5.007 6.972 6.972 0 00-5.007-2.072 7.121 7.121 0 00-5.006 2.072 6.972 6.972 0 00-2.072 5.007c0 1.899.777 3.712 2.072 5.007a6.975 6.975 0 005.007 2.071c1.985 0 3.798-.777 5.006-2.071zm29.61-5.007c0 1.554-.604 2.848-1.64 3.884v.087a5.423 5.423 0 01-3.799 1.553c-1.553 0-2.848-.604-3.884-1.64l-.087-.086a5.422 5.422 0 01-1.553-3.798c0-1.468.604-2.849 1.64-3.885.95-.95 2.33-1.64 3.884-1.64 1.468 0 2.849.604 3.885 1.64.95 1.036 1.554 2.331 1.554 3.885zm-3.799 1.64c.432-.432.691-1.036.691-1.727 0-.69-.259-1.295-.69-1.726-.432-.432-1.036-.691-1.727-.691-.69 0-1.295.259-1.727.691-.431.431-.69 1.036-.69 1.726 0 .605.259 1.209.604 1.641l.087.086c.431.431 1.035.69 1.726.69.69.087 1.295-.172 1.727-.69zm3.367 3.367a6.973 6.973 0 002.072-5.007 7.124 7.124 0 00-2.072-5.007 6.971 6.971 0 00-5.007-2.072 7.12 7.12 0 00-5.006 2.072 6.972 6.972 0 00-2.072 5.007c0 1.899.777 3.712 2.072 5.007a6.975 6.975 0 005.006 2.071 6.975 6.975 0 005.007-2.071zm109.028-5.007c0 1.467-.604 2.848-1.64 3.884-.949.95-2.33 1.64-3.884 1.64-1.554 0-2.849-.604-3.885-1.64-.949-.949-1.64-2.33-1.64-3.884 0-1.468.604-2.849 1.64-3.885.95-.95 2.331-1.64 3.885-1.64 1.554 0 2.848.604 3.884 1.64l.087.086c.949 1.036 1.553 2.331 1.553 3.799zm-3.798 1.64c.432-.432.691-1.036.691-1.727 0-.604-.259-1.208-.604-1.64l-.087-.086c-.431-.432-1.036-.691-1.726-.691-.691 0-1.295.259-1.727.691-.431.431-.69 1.036-.69 1.726 0 .691.259 1.295.69 1.727.432.431 1.036.69 1.727.69.69.087 1.295-.259 1.726-.69zm3.367 3.367a6.973 6.973 0 002.072-5.007 7.124 7.124 0 00-2.072-5.007 6.973 6.973 0 00-5.007-2.072 7.124 7.124 0 00-5.007 2.072 6.972 6.972 0 00-2.072 5.007c0 1.899.777 3.712 2.072 5.007a6.977 6.977 0 005.007 2.071 6.977 6.977 0 005.007-2.071zm69.837-53.09v12.085h11.999c-.518-2.503-.95-5.007-1.554-7.51-.259-1.381-1.036-2.503-1.985-3.28-1.036-.777-2.245-1.295-3.626-1.295h-4.834zm14.071 50.5h.172c1.036-.087 1.986-.518 2.676-1.209a3.785 3.785 0 001.123-2.676v-.173l-1.641-37.033a26.103 26.103 0 00-6.992-15.711c-3.798-3.971-8.978-6.56-14.848-7.079l-22.79-1.899a.658.658 0 00-.431.173.661.661 0 00-.173.431l-.777 46.098c0 .863-.69 1.554-1.554 1.554h-35.22a1.548 1.548 0 01-1.554-1.554v-4.662c0-.863.691-1.553 1.554-1.553h18.473V71.79h-2.676v16.92c0 .863-.69 1.553-1.554 1.553h-46.442l-7.338 10.877c-.345.518-.863.691-1.381.691l-97.202-.086H36.084l-2.849 5.007h12.517c.604 0 1.122.345 1.381.863l2.85 4.661h1.726c.345 0 .604-.086.863-.259.259-.172.518-.431.604-.777a11.6 11.6 0 011.036-2.071c.432-.691.863-1.295 1.381-1.899 1.295-1.554 2.935-2.763 4.748-3.626 1.813-.863 3.798-1.295 5.87-1.295s4.058.432 5.87 1.295c1.813.863 3.453 2.072 4.748 3.626.432.517.863 1.122 1.295 1.726.345.604.69 1.209.95 1.899v.087c.172.345.431.69.776.863.346.172.691.345 1.036.345h.087c.431 0 .777-.086 1.036-.345.345-.259.604-.518.777-.95.258-.69.69-1.295 1.035-1.985.432-.605.864-1.209 1.382-1.813 1.294-1.468 2.935-2.59 4.661-3.367a13.64 13.64 0 0111.222 0c1.813.777 3.367 1.986 4.662 3.367.518.518.95 1.122 1.381 1.726.432.605.777 1.295 1.036 1.9.173.431.518.776.863 1.035.346.259.691.346 1.123.346h2.244l3.712-4.921c.345-.431.777-.604 1.209-.604h57.924l8.805-12.69c.259-.431.777-.69 1.295-.69H202c.863 0 1.554.69 1.554 1.553v4.662c0 .863-.691 1.554-1.554 1.554h-8.373a4.767 4.767 0 00-3.367 1.381 4.767 4.767 0 00-1.381 3.367v12.776h.086a.663.663 0 00.432-.173h.086a.66.66 0 00.173-.431v-.864c0-3.971 1.64-7.596 4.23-10.272 2.589-2.676 6.215-4.317 10.186-4.403h.259c4.057 0 7.683 1.727 10.359 4.403a15.157 15.157 0 014.403 10.359v1.381h38.846v-3.367c0-3.971 1.64-7.596 4.23-10.273 2.589-2.676 6.215-4.316 10.186-4.402h.259c4.057 0 7.683 1.726 10.359 4.402a15.16 15.16 0 014.403 10.359v3.453l5.611.087zm.345 3.021h-7.597c-.863 0-1.553-.69-1.553-1.554v-5.007c-.087-3.194-1.382-6.129-3.54-8.287a11.288 11.288 0 00-8.114-3.453h-.259c-3.194.087-6.043 1.381-8.029 3.453-2.071 2.072-3.28 4.921-3.28 8.115v5.093c0 .863-.69 1.554-1.554 1.554h-41.954a1.547 1.547 0 01-1.553-1.554v-2.935c-.087-3.194-1.382-6.129-3.54-8.287a11.288 11.288 0 00-8.114-3.453h-.173c-3.194.086-6.043 1.381-8.028 3.453-2.072 2.072-3.281 4.92-3.281 8.114v.864c0 .949-.345 1.899-1.035 2.503l-.087.086a3.784 3.784 0 01-2.676 1.122h-1.64c-.863 0-1.554-.69-1.554-1.553v-14.33c0-2.158.863-4.144 2.331-5.611 1.467-1.468 3.367-2.331 5.611-2.331h6.82V96.22h-14.33l-8.805 12.862a1.634 1.634 0 01-1.382.777h-57.837l-3.626 4.834c-.259.432-.777.691-1.295.691h-3.021c-1.036 0-1.986-.345-2.849-.863-.863-.518-1.467-1.381-1.899-2.331-.259-.518-.518-1.036-.863-1.467-.346-.518-.691-.95-1.036-1.382a10.755 10.755 0 00-3.626-2.589c-1.381-.605-2.849-.95-4.402-.95-1.554 0-3.022.345-4.403.95a11.093 11.093 0 00-3.626 2.589c-.431.432-.776.864-1.035 1.382a8.961 8.961 0 00-.864 1.553c-.431.95-1.036 1.727-1.899 2.245-.777.518-1.726.863-2.762.863h-.087c-1.035 0-1.985-.345-2.848-.863-.777-.518-1.382-1.295-1.813-2.158l-.087-.087a4.787 4.787 0 00-.776-1.467c-.346-.518-.605-.95-1.036-1.381a10.96 10.96 0 00-3.712-2.849 11.417 11.417 0 00-4.576-.95c-1.64 0-3.194.346-4.575.95a10.96 10.96 0 00-3.712 2.849c-.345.431-.777.949-1.036 1.467a5.73 5.73 0 00-.777 1.64 4.701 4.701 0 01-1.726 2.158c-.777.518-1.64.864-2.676.864h-2.59c-.518 0-1.036-.259-1.295-.777l-2.935-4.748H30.56c-.259 0-.518-.086-.777-.173-.777-.431-1.036-1.381-.604-2.072l4.575-8.028a1.538 1.538 0 011.381-.863h39.192l96.425.086 7.337-10.79c.259-.432.777-.777 1.295-.777h45.666V70.236c0-.863.691-1.554 1.554-1.554h5.784c.863 0 1.553.69 1.553 1.554v24.775c0 .864-.69 1.554-1.553 1.554h-18.474v1.554h32.113l.691-44.544c0-1.035.431-1.899 1.122-2.59.69-.69 1.554-1.035 2.589-1.035h.087l22.876 1.899c6.733.518 12.517 3.54 16.833 8.028 4.403 4.575 7.252 10.705 7.856 17.524v.173l1.64 37.033v.345c0 1.9-.777 3.54-1.985 4.835-.864 1.122-2.504 1.899-4.403 1.985z" fill="#374148"/><path d="M195.793 72.97V38.647c0-.768-.655-1.316-1.309-1.316h-3.929c-.654 0-1.091-.439-1.309-.987a6.453 6.453 0 00-6.219-4.715h-9.602c-.764 0-1.31-.658-1.31-1.316V16.935c0-1.974-1.636-3.619-3.6-3.619h-31.207c-.872 0-1.527.658-1.527 1.535v15.352c0 .878-.655 1.536-1.528 1.536h-4.473c-.873 0-1.528.658-1.528 1.535v12.281c0 .878-.655 1.536-1.527 1.536h-5.129c-1.091 0-1.855-1.097-1.309-2.194l17.785-38.38c.218-.548.873-.986 1.528-.986h37.316c.873 0 1.637-.768 1.637-1.645V2.46c0-.877-.764-1.645-1.637-1.645h-42.117a5.27 5.27 0 00-3.928 1.755l-9.275 10.746c-.545.658-1.418 1.097-2.4 1.097l-89.909-.22c-.982 0-1.964.44-2.51 1.207l-9.71 12.61c-1.42 1.755-.546 4.496 1.636 5.044l36.444 9.87 14.075 3.838 11.239 3.07c.218.11.436.11.545.329.655.658 1.2 1.316 1.855 1.974.655.767.11 2.083-.982 2.083h-4.146c-.327 0-.546-.11-.764-.329a25.288 25.288 0 00-18.222-6.14c-12.657.767-23.022 11.184-23.786 23.905-.873 14.913 10.802 27.195 25.423 27.195 13.421 0 24.55-10.637 25.423-24.015.11-.987.873-1.755 1.855-1.755h.764c.655 0 1.2.549 1.2 1.206v3.838c0 1.207.982 2.084 2.073 2.084h30.77c1.855 0 3.383-1.535 3.383-3.4v-6.36c0-4.057.873-6.908 2.4-10.417 1.2-2.741 2.837-5.154 4.801-7.347 5.238-5.812 12.875-9.43 21.495-9.43 15.822 0 28.697 12.72 28.697 28.291v1.206c0 .877.655 1.535 1.527 1.535h9.384c.982.22 1.637-.438 1.637-1.315zm-40.154-47.043v-7.895c0-.987.764-1.755 1.746-1.755h9.929c.982 0 1.746.768 1.746 1.755v7.895c0 .987-.764 1.754-1.746 1.754h-9.929a1.728 1.728 0 01-1.746-1.754zM23.613 31.519l11.784-15.023 2.728.11-11.893 15.79-2.619-.877zm6.11 1.535L42.49 16.716h3.164L32.669 33.822l-2.945-.768zm14.076 3.51l15.057-19.41h3.601L47.072 37.441l-3.273-.878zm-7.638-1.645l13.857-17.765h3.492L39.216 35.686l-3.055-.767zm12.875 36.406c.764-4.716 4.474-8.444 9.166-9.212 7.638-1.315 14.184 5.264 12.984 13.05-.764 4.715-4.473 8.443-9.165 9.21-.655.11-1.31.11-1.855.11-6.874 0-12.22-6.03-11.13-13.158zm79.98 2.193c0 14.146 11.457 25.55 25.423 25.55 14.076 0 25.423-11.514 25.423-25.55 0-14.146-11.456-25.55-25.423-25.55-13.966 0-25.423 11.404-25.423 25.55zm13.966-.22c0-6.25 5.02-11.294 11.239-11.294 6.219 0 11.239 5.044 11.239 11.295 0 6.25-5.02 11.294-11.239 11.294-6.219 0-11.239-5.044-11.239-11.294z" fill="url(#paint0_linear)"/><defs><linearGradient id="paint0_linear" x1="16.371" y1="50.03" x2="195.822" y2="50.03" gradientUnits="userSpaceOnUse"><stop stop-color="#008DD2"/><stop offset="1" stop-color="#003C5F"/></linearGradient></defs></svg>