<svg width="316" height="95" fill="none" xmlns="http://www.w3.org/2000/svg"><path d="M174.548 65.434l-5.439 8.115c-.259.431-.777.69-1.295.69H131.99l-3.712 4.921c-.346.432-.777.604-1.209.604h-3.021c-1.036 0-1.986-.345-2.849-.863-.863-.518-1.468-1.381-1.899-2.33a22.318 22.318 0 00-.777-1.468c-.345-.518-.691-.95-1.036-1.381a10.748 10.748 0 00-3.626-2.59c-1.381-.605-2.848-.95-4.402-.95-1.554 0-3.022.346-4.403.95a11.094 11.094 0 00-3.625 2.59l-.087.086-1.036 1.295c-.345.518-.604 1.036-.863 1.553-.431.95-1.036 1.727-1.899 2.245-.777.518-1.727.863-2.762.863h-.087c-1.036 0-1.985-.345-2.849-.863l-.086-.086c-.777-.518-1.381-1.382-1.813-2.245-.259-.518-.518-1.036-.777-1.467-.258-.432-.604-.95-1.035-1.381a10.956 10.956 0 00-3.712-2.85 11.412 11.412 0 00-4.576-.949c-1.64 0-3.194.346-4.575.95-1.467.69-2.676 1.64-3.712 2.849-.345.431-.777.95-1.036 1.467a5.727 5.727 0 00-.777 1.64 4.71 4.71 0 01-1.726 2.158c-.777.518-1.64.864-2.676.864h-2.59a1.538 1.538 0 01-1.381-.864l-2.849-4.661H35.133c-.863 0-1.554-.69-1.554-1.554v-8.115c0-.863.69-1.553 1.554-1.553h41.522v-3.712c0-.864.69-1.554 1.554-1.554h10.1c.863 0 1.554.69 1.554 1.554v3.711h65.607v-3.711c0-.864.691-1.554 1.554-1.554h9.668c.863 0 1.554.69 1.554 1.554v3.711h5.18c.863 0 1.553.691 1.553 1.554-.172.26-.259.518-.431.777zM10.098 90.987c.864 0 1.555.69 1.555 1.553 0 .864-.69 1.554-1.554 1.554H1.812c-.864 0-1.554-.69-1.554-1.554 0-.863.69-1.553 1.554-1.553h8.287zm36.344 0c.863 0 1.553.69 1.553 1.553 0 .864-.69 1.554-1.553 1.554H16.66c-.864 0-1.554-.69-1.554-1.554 0-.863.69-1.553 1.554-1.553h29.782zm267.52 0c.864 0 1.554.69 1.554 1.553 0 .864-.69 1.554-1.554 1.554h-260.7c-.864 0-1.555-.69-1.555-1.554 0-.863.691-1.553 1.554-1.553h141.314c-2.59-.087-4.92-1.21-6.733-2.936-1.813-1.812-2.935-4.402-2.935-7.165 0-2.762 1.122-5.352 2.935-7.164 1.813-1.813 4.402-2.936 7.165-2.936 2.762 0 5.352 1.123 7.165 2.936 1.813 1.812 2.935 4.402 2.935 7.164 0 2.763-1.122 5.353-2.935 7.165-1.727 1.727-4.058 2.85-6.734 2.936h67.938c-2.59-.087-4.92-1.21-6.733-2.936-1.813-1.812-2.935-4.402-2.935-7.165 0-2.762 1.122-5.352 2.935-7.164 1.813-1.813 4.402-2.936 7.165-2.936 2.762 0 5.352 1.123 7.165 2.936 1.812 1.812 2.935 4.402 2.935 7.164 0 2.763-1.123 5.353-2.935 7.165-1.727 1.727-4.058 2.85-6.734 2.936h49.723zM85.547 80.714c0 1.467-.605 2.849-1.64 3.884-.95.95-2.331 1.64-3.885 1.64-1.468 0-2.849-.604-3.885-1.64-.95-.95-1.64-2.33-1.64-3.884 0-1.468.605-2.849 1.64-3.885 1.036-1.036 2.331-1.64 3.885-1.64 1.468 0 2.849.604 3.885 1.64 1.035.95 1.64 2.331 1.64 3.885zm-3.712 1.64c.431-.432.69-1.036.69-1.727 0-.69-.259-1.294-.69-1.726-.432-.432-1.036-.69-1.727-.69-.69 0-1.294.258-1.726.69-.432.432-.69 1.036-.69 1.727 0 .69.258 1.294.69 1.726.431.432 1.036.69 1.726.69s1.295-.258 1.727-.69zm8.46-1.64c0 2.762-1.123 5.352-2.935 7.165-1.813 1.813-4.403 2.935-7.165 2.935-2.763 0-5.352-1.122-7.165-2.935-1.813-1.813-2.935-4.403-2.935-7.165 0-2.763 1.122-5.352 2.935-7.165 1.813-1.813 4.402-2.935 7.165-2.935 2.762 0 5.352 1.122 7.165 2.935 1.812 1.899 2.935 4.402 2.935 7.165zm-5.18 5.007a6.972 6.972 0 002.072-5.007c0-1.9-.777-3.712-2.072-5.007a6.972 6.972 0 00-5.007-2.072 7.124 7.124 0 00-5.007 2.072 6.972 6.972 0 00-2.071 5.007c0 1.899.777 3.712 2.072 5.007a6.972 6.972 0 005.006 2.071c1.986 0 3.799-.776 5.007-2.071zm29.61-5.007c0 1.554-.605 2.849-1.641 3.884l-.086.087a5.42 5.42 0 01-3.798 1.554c-1.468 0-2.849-.605-3.885-1.64-1.036-1.037-1.64-2.331-1.64-3.885 0-1.468.604-2.849 1.64-3.885 1.036-.95 2.331-1.64 3.885-1.64 1.467 0 2.849.604 3.884 1.64 1.036.95 1.641 2.331 1.641 3.885zm-3.799 1.64c.432-.432.691-1.036.691-1.727 0-.69-.259-1.294-.691-1.726-.431-.432-1.036-.69-1.726-.69-.691 0-1.295.258-1.727.69-.431.432-.69 1.036-.69 1.727 0 .69.259 1.294.69 1.726.432.432 1.036.69 1.727.69.69 0 1.295-.172 1.726-.69zm8.546-1.64c0 2.762-1.122 5.352-2.935 7.165-1.812 1.813-4.402 2.935-7.165 2.935-2.762 0-5.352-1.122-7.165-2.935-1.812-1.813-2.934-4.403-2.934-7.165 0-2.763 1.122-5.352 2.934-7.165 1.813-1.813 4.403-2.935 7.165-2.935 2.763 0 5.353 1.122 7.165 2.935 1.813 1.899 2.935 4.402 2.935 7.165zm-5.179 5.007a6.972 6.972 0 002.072-5.007c0-1.9-.777-3.712-2.072-5.007a6.972 6.972 0 00-5.007-2.072 6.974 6.974 0 00-5.007 2.072 6.972 6.972 0 00-2.072 5.007c0 1.899.777 3.712 2.072 5.007a6.974 6.974 0 005.007 2.071 6.972 6.972 0 005.007-2.071zm155.039-4.92c0 1.467-.604 2.848-1.64 3.884-.949.95-2.33 1.64-3.884 1.64-1.468 0-2.849-.604-3.885-1.64-1.036-1.036-1.64-2.331-1.64-3.885 0-1.554.604-2.849 1.64-3.885l.086-.086a5.423 5.423 0 013.799-1.554c1.554 0 2.848.605 3.884 1.64 1.036 1.036 1.64 2.418 1.64 3.885zm-3.798 1.726c.432-.432.691-1.036.691-1.727 0-.69-.259-1.295-.691-1.726-.431-.432-1.036-.691-1.726-.691-.605 0-1.209.259-1.64.604l-.087.087c-.431.431-.69 1.035-.69 1.726 0 .69.259 1.295.69 1.727.432.431 1.036.69 1.727.69.69 0 1.295-.259 1.726-.69zm3.367 3.366a6.972 6.972 0 002.072-5.007 7.12 7.12 0 00-2.072-5.006 6.974 6.974 0 00-5.007-2.072 7.124 7.124 0 00-5.007 2.072 6.972 6.972 0 00-2.072 5.006c0 1.9.777 3.712 2.072 5.007a6.974 6.974 0 005.007 2.072c1.985 0 3.712-.863 5.007-2.072zM200.532 80.8c0 1.468-.605 2.849-1.641 3.885-.949.95-2.33 1.64-3.884 1.64-1.554 0-2.849-.604-3.885-1.64l-.086-.087a5.42 5.42 0 01-1.554-3.798c0-1.467.604-2.849 1.64-3.885.95-.949 2.331-1.64 3.885-1.64 1.554 0 2.848.605 3.884 1.64 1.036 1.036 1.641 2.418 1.641 3.885zm-3.799 1.727c.432-.432.691-1.036.691-1.727 0-.69-.259-1.295-.691-1.726-.431-.432-1.036-.691-1.726-.691-.691 0-1.295.259-1.727.69a2.415 2.415 0 00-.69 1.727c0 .604.259 1.209.604 1.64l.086.087c.432.431 1.036.69 1.727.69.69 0 1.295-.259 1.726-.69zm3.367 3.366a6.972 6.972 0 002.072-5.007 7.12 7.12 0 00-2.072-5.006 6.972 6.972 0 00-5.007-2.072 7.124 7.124 0 00-5.007 2.072 6.972 6.972 0 00-2.072 5.006c0 1.9.777 3.712 2.072 5.007a6.974 6.974 0 005.007 2.072c1.899 0 3.712-.863 5.007-2.072zm66.643-39.45V31.25c0-.864.69-1.554 1.554-1.554h6.388c2.071 0 4.057.777 5.611 1.985 1.554 1.209 2.676 3.022 3.107 5.094l1.554 7.51c.087.259.087.431.087.604a3.02 3.02 0 01-.691 1.9c-.432.517-1.036.949-1.727 1.035-.258.086-.431.086-.604.086h-13.553c-1.036.087-1.726-.604-1.726-1.467zm3.107-13.64V44.89h12c-.518-2.503-.95-5.007-1.554-7.51-.259-1.295-1.036-2.504-1.986-3.28-1.036-.777-2.244-1.295-3.625-1.295h-4.835zm14.158 50.414h.172c1.036-.086 1.986-.518 2.676-1.208a3.786 3.786 0 001.123-2.676v-.173l-1.641-37.033a26.097 26.097 0 00-6.992-15.712c-3.798-3.97-8.978-6.56-14.848-7.078l-22.789-1.9a.66.66 0 00-.432.173.661.661 0 00-.173.432l-.777 46.097c0 .864-.69 1.554-1.554 1.554h-54.125a4.766 4.766 0 00-3.367 1.382 4.767 4.767 0 00-1.381 3.366v12.776h.086a.66.66 0 00.432-.172.661.661 0 00.172-.432v-.863c0-3.971 1.641-7.597 4.23-10.273 2.59-2.676 6.216-4.316 10.187-4.403h.259c4.057 0 7.683 1.727 10.359 4.403a15.152 15.152 0 014.402 10.359v1.381h38.846v-3.54c0-3.97 1.641-7.596 4.23-10.272 2.59-2.676 6.216-4.316 10.187-4.402h.259c4.057 0 7.683 1.726 10.359 4.402a15.152 15.152 0 014.402 10.36v3.452h5.698zm.345 3.108h-7.597c-.863 0-1.553-.69-1.553-1.554v-5.007c-.087-3.194-1.382-6.129-3.54-8.287a11.288 11.288 0 00-8.114-3.453h-.173c-3.194.086-6.043 1.381-8.028 3.453-2.072 2.072-3.28 4.92-3.28 8.115v5.093c0 .863-.691 1.554-1.554 1.554H208.56a1.548 1.548 0 01-1.554-1.554v-2.936a12.137 12.137 0 00-3.539-8.286 11.143 11.143 0 00-8.115-3.453h-.259c-3.194.086-6.043 1.38-8.028 3.453-2.072 2.071-3.28 4.92-3.28 8.114v.863a3.786 3.786 0 01-1.123 2.676 3.786 3.786 0 01-2.676 1.123h-1.64a1.548 1.548 0 01-1.554-1.554v-14.33c0-2.158.863-4.144 2.331-5.611 1.467-1.468 3.367-2.331 5.611-2.331h6.82v-1.554h10.359v1.554h35.22l.691-44.544c0-1.036.432-1.899 1.122-2.59.691-.69 1.554-1.035 2.59-1.035h.086l22.876 1.899c6.734.518 12.517 3.54 16.834 8.028 4.402 4.575 7.251 10.704 7.855 17.524v.173l1.64 37.033v.345c0 1.9-.777 3.54-1.985 4.835-.95 1.294-2.676 2.158-4.489 2.244zM167.037 71.132l3.367-5.007h-3.798c-.863 0-1.554-.69-1.554-1.554v-3.712h-6.647v3.712c0 .863-.691 1.554-1.554 1.554H88.136c-.863 0-1.553-.69-1.553-1.554v-3.712H79.59v3.712c0 .863-.69 1.554-1.553 1.554h-41.35v5.007h22.962c.518 0 1.036.259 1.295.777l2.935 4.747h1.727c.345 0 .604-.086.863-.258.259-.173.518-.432.604-.777.26-.691.605-1.382 1.036-2.072.432-.69.863-1.295 1.381-1.9 1.295-1.553 2.935-2.762 4.748-3.625 1.813-.863 3.799-1.295 5.87-1.295 2.072 0 4.058.432 5.87 1.295 1.813.863 3.453 2.072 4.748 3.626.432.518.864 1.122 1.295 1.726.346.605.69 1.295 1.036 1.9.173.345.432.69.69.949.346.173.691.345 1.037.345h.086c.431 0 .777-.086 1.036-.345.345-.26.604-.518.777-.95.259-.69.69-1.38 1.036-1.985.345-.604.777-1.122 1.294-1.727l.087-.086c1.295-1.468 2.935-2.59 4.661-3.367a13.645 13.645 0 0111.223 0c1.812.777 3.366 1.986 4.661 3.367.518.604.95 1.122 1.381 1.727.432.604.777 1.294 1.036 1.899.173.431.432.777.863.95.346.258.691.345 1.123.345h2.244l3.626-4.835c.259-.431.777-.69 1.295-.69l35.824.259z" fill="#374148"/><path d="M36.774 61.032h194.835c1.554 0 2.762-1.295 2.762-2.763V2.762c0-1.553-1.295-2.762-2.762-2.762H36.774a2.727 2.727 0 00-2.763 2.762V58.27c-.086 1.554 1.209 2.763 2.763 2.763zm7.164-10.187H41.09a1.143 1.143 0 01-1.122-1.122V6.13c0-.604.517-1.122 1.122-1.122h2.848c.605 0 1.123.518 1.123 1.122v43.594c0 .604-.518 1.122-1.123 1.122zm182.664.087h-2.849a1.143 1.143 0 01-1.122-1.123V6.215c0-.604.518-1.122 1.122-1.122h2.849c.604 0 1.122.518 1.122 1.122V49.81c.087.605-.431 1.123-1.122 1.123zm-11.481-.173h-2.849a1.143 1.143 0 01-1.122-1.122V6.043c0-.605.518-1.123 1.122-1.123h2.849c.604 0 1.122.518 1.122 1.123V49.55c.086.69-.432 1.208-1.122 1.208zm-11.481.173h-2.849a1.143 1.143 0 01-1.122-1.123V6.215c0-.604.518-1.122 1.122-1.122h2.849c.604 0 1.122.518 1.122 1.122V49.81c0 .605-.518 1.123-1.122 1.123zm-11.309.086h-2.849a1.143 1.143 0 01-1.122-1.122V6.302c0-.605.518-1.123 1.122-1.123h2.849c.604 0 1.122.518 1.122 1.123v43.594c0 .604-.518 1.122-1.122 1.122zm-11.481-.173h-2.849a1.143 1.143 0 01-1.122-1.122V6.13c0-.604.518-1.122 1.122-1.122h2.849c.604 0 1.122.518 1.122 1.122v43.594c0 .604-.518 1.122-1.122 1.122zm-11.481.173h-2.849a1.143 1.143 0 01-1.122-1.122V6.302c0-.605.518-1.123 1.122-1.123h2.849c.604 0 1.122.518 1.122 1.123v43.594c0 .604-.518 1.122-1.122 1.122zm-11.05-.173h-2.849a1.143 1.143 0 01-1.122-1.122V6.13c0-.604.518-1.122 1.122-1.122h2.849c.604 0 1.122.518 1.122 1.122v43.594c0 .604-.518 1.122-1.122 1.122zm-10.963.173h-2.849a1.143 1.143 0 01-1.122-1.122V6.302c0-.605.518-1.123 1.122-1.123h2.849c.604 0 1.122.518 1.122 1.123v43.594c0 .604-.518 1.122-1.122 1.122zm-11.136-.173h-2.849a1.143 1.143 0 01-1.122-1.122V6.13c0-.604.518-1.122 1.122-1.122h2.849c.604 0 1.122.518 1.122 1.122v43.594c.086.604-.432 1.122-1.122 1.122zm-11.999 0h-2.849a1.143 1.143 0 01-1.122-1.122V6.13c0-.604.518-1.122 1.122-1.122h2.849c.604 0 1.122.518 1.122 1.122v43.594c0 .604-.518 1.122-1.122 1.122zm-11.654 0h-2.849a1.143 1.143 0 01-1.122-1.122V6.13c0-.604.518-1.122 1.122-1.122h2.849c.604 0 1.122.518 1.122 1.122v43.594c.086.604-.432 1.122-1.122 1.122zm-12.086 0h-2.848a1.143 1.143 0 01-1.123-1.122V6.13c0-.604.518-1.122 1.123-1.122h2.848c.605 0 1.123.518 1.123 1.122v43.594c.086.604-.432 1.122-1.123 1.122zm-11.567.173h-2.849a1.143 1.143 0 01-1.122-1.122V6.302c0-.605.518-1.123 1.122-1.123h2.849c.604 0 1.122.518 1.122 1.123v43.594c.086.604-.518 1.122-1.122 1.122zm-11.568-.173h-2.849a1.143 1.143 0 01-1.122-1.122V6.13c0-.604.518-1.122 1.123-1.122h2.848c.605 0 1.123.518 1.123 1.122v43.594c0 .604-.518 1.122-1.123 1.122zm-11.222 0h-2.849a1.143 1.143 0 01-1.122-1.122V6.13c0-.604.518-1.122 1.122-1.122h2.849c.604 0 1.122.518 1.122 1.122v43.594c0 .604-.518 1.122-1.122 1.122zm-10.963 0h-2.849a1.143 1.143 0 01-1.122-1.122V6.13c0-.604.518-1.122 1.122-1.122h2.849c.604 0 1.122.518 1.122 1.122v43.594c.086.604-.432 1.122-1.122 1.122z" fill="url(#paint0_linear)"/><defs><linearGradient id="paint0_linear" x1="34.002" y1="30.571" x2="234.404" y2="30.571" gradientUnits="userSpaceOnUse"><stop stop-color="#008DD2"/><stop offset="1" stop-color="#003C5F"/></linearGradient></defs></svg>