<svg width="316" height="95" fill="none" xmlns="http://www.w3.org/2000/svg"><path d="M140.795 65.65l5.439 8.115c.259.432.777.69 1.295.69h35.824l3.626 4.921c.345.432.777.605 1.209.605h3.107c1.036 0 1.986-.346 2.849-.864.863-.518 1.468-1.38 1.899-2.33.259-.518.518-1.036.863-1.468.346-.518.691-.95 1.036-1.381a10.758 10.758 0 013.626-2.59c1.381-.604 2.849-.95 4.403-.95 1.553 0 3.021.346 4.402.95a11.109 11.109 0 013.626 2.59c.431.431.777.863 1.036 1.381.345.518.604 1.036.863 1.554.431.95 1.036 1.726 1.899 2.244.777.518 1.727.864 2.762.864h.087c1.036 0 1.985-.346 2.848-.864.777-.518 1.468-1.38 1.9-2.33.259-.518.518-1.036.777-1.468.259-.432.604-.95 1.035-1.381a10.965 10.965 0 013.712-2.849 11.415 11.415 0 014.576-.95c1.64 0 3.194.346 4.575.95 1.467.69 2.676 1.64 3.712 2.849.345.431.777.95 1.036 1.467.345.518.604 1.036.777 1.554.345.864.949 1.64 1.726 2.158s1.64.864 2.676.864h2.59c.604 0 1.122-.346 1.381-.864l2.849-4.661h23.48c.863 0 1.554-.69 1.554-1.554v-8.115c0-.863-.691-1.553-1.554-1.553h-41.522v-3.712c0-.864-.691-1.554-1.554-1.554h-10.1c-.863 0-1.554.69-1.554 1.554v3.712h-65.607v-3.712c0-.864-.69-1.554-1.554-1.554h-9.668c-.863 0-1.554.69-1.554 1.554v3.712h-5.179c-.863 0-1.554.69-1.554 1.553.086.346.173.605.345.864zm164.622 25.466c-.863 0-1.554.691-1.554 1.554 0 .864.691 1.554 1.554 1.554h8.287c.863 0 1.554-.69 1.554-1.554 0-.863-.691-1.553-1.554-1.553h-8.287zm-36.343 0c-.863 0-1.554.691-1.554 1.554 0 .864.691 1.554 1.554 1.554h29.782c.863 0 1.554-.69 1.554-1.554 0-.863-.691-1.553-1.554-1.553h-29.782zm-267.52 0c-.864 0-1.555.691-1.555 1.554 0 .864.69 1.554 1.554 1.554h260.701c.864 0 1.554-.69 1.554-1.554 0-.863-.69-1.553-1.554-1.553H121.89c2.762 0 5.352-1.123 7.165-2.936 1.813-1.812 2.935-4.402 2.935-7.165 0-2.762-1.122-5.352-2.935-7.165-1.813-1.812-4.403-2.934-7.165-2.934-2.762 0-5.352 1.122-7.165 2.934-1.813 1.813-2.935 4.403-2.935 7.165 0 2.763 1.122 5.353 2.935 7.165 1.813 1.813 4.403 2.936 7.165 2.936H53.003c2.762 0 5.352-1.123 7.165-2.936 1.813-1.812 2.935-4.402 2.935-7.165 0-2.762-1.122-5.352-2.935-7.165-1.813-1.812-4.403-2.934-7.165-2.934-2.763 0-5.352 1.122-7.165 2.934-1.813 1.813-2.935 4.403-2.935 7.165 0 2.763 1.122 5.353 2.935 7.165 1.813 1.813 4.402 2.936 7.165 2.936H1.553zM229.795 80.93c0 1.468.604 2.849 1.64 3.885 1.036 1.036 2.331 1.64 3.885 1.64 1.554 0 2.849-.604 3.885-1.64l.086-.087a5.424 5.424 0 001.554-3.798c0-1.554-.605-2.849-1.64-3.884l-.087-.087a5.42 5.42 0 00-3.798-1.554c-1.554 0-2.849.605-3.885 1.64-1.036.95-1.64 2.331-1.64 3.885zm3.798 1.64c-.431-.431-.69-1.035-.69-1.726 0-.69.259-1.295.69-1.727.432-.431 1.036-.69 1.727-.69.604 0 1.209.259 1.64.604l.086.086c.432.432.691 1.036.691 1.727 0 .604-.259 1.208-.604 1.64l-.087.086c-.431.432-1.035.691-1.726.691-.691 0-1.295-.259-1.727-.69zm-8.459-1.553c0 2.762 1.122 5.352 2.935 7.165 1.813 1.812 4.402 2.934 7.165 2.934 2.762 0 5.352-1.122 7.165-2.934 1.812-1.813 2.935-4.403 2.935-7.166 0-2.762-1.123-5.352-2.935-7.165-1.813-1.812-4.403-2.934-7.165-2.934-2.763 0-5.352 1.122-7.165 2.934-1.813 1.813-2.935 4.317-2.935 7.165zm5.093 4.92a6.972 6.972 0 01-2.072-5.007c0-1.899.777-3.712 2.072-5.007a6.972 6.972 0 015.007-2.072 7.12 7.12 0 015.006 2.072 6.972 6.972 0 012.072 5.007c0 1.9-.777 3.712-2.072 5.007a6.97 6.97 0 01-5.006 2.072 6.972 6.972 0 01-5.007-2.072zm-29.61-5.007c0 1.468.605 2.849 1.641 3.885.949.95 2.33 1.64 3.884 1.64 1.468 0 2.849-.604 3.885-1.64.949-.95 1.64-2.331 1.64-3.885 0-1.554-.604-2.849-1.64-3.884-.95-.95-2.331-1.64-3.885-1.64-1.467 0-2.849.604-3.884 1.64-1.036.95-1.641 2.33-1.641 3.884zm3.799 1.64c-.432-.431-.691-1.035-.691-1.726 0-.69.259-1.295.691-1.727.431-.431 1.036-.69 1.726-.69.691 0 1.295.259 1.727.69.431.432.69 1.036.69 1.727 0 .69-.259 1.295-.69 1.726-.432.432-1.036.691-1.727.691-.69 0-1.295-.259-1.726-.69zm-8.46-1.553c0 2.762 1.122 5.352 2.935 7.165 1.813 1.812 4.402 2.934 7.165 2.934 2.762 0 5.352-1.122 7.165-2.934 1.813-1.813 2.935-4.403 2.935-7.166 0-2.762-1.122-5.352-2.935-7.165-1.813-1.812-4.403-2.934-7.165-2.934-2.763 0-5.352 1.122-7.165 2.934-1.813 1.813-2.935 4.317-2.935 7.165zm5.093 4.92a6.972 6.972 0 01-2.072-5.007c0-1.899.777-3.712 2.072-5.007a6.972 6.972 0 015.007-2.072c1.899 0 3.712.778 5.007 2.072a6.97 6.97 0 012.071 5.007 7.12 7.12 0 01-2.071 5.007 6.974 6.974 0 01-5.007 2.072 7.124 7.124 0 01-5.007-2.072zM47.564 80.93c0 1.468.605 2.849 1.64 3.885.95.95 2.331 1.64 3.885 1.64 1.554 0 2.849-.604 3.885-1.64.95-.95 1.64-2.331 1.64-3.885 0-1.554-.604-2.849-1.64-3.884l-.087-.087a5.421 5.421 0 00-3.798-1.554c-1.467 0-2.849.605-3.884 1.64-1.036 1.037-1.64 2.418-1.64 3.885zm3.799 1.727c-.432-.432-.69-1.036-.69-1.727 0-.69.258-1.295.69-1.726.431-.432 1.035-.69 1.726-.69.604 0 1.209.258 1.64.603l.087.087c.431.431.69 1.036.69 1.726s-.259 1.295-.69 1.727c-.432.431-1.036.69-1.727.69-.69 0-1.295-.259-1.726-.69zm-3.367 3.366a6.972 6.972 0 01-2.072-5.007 6.97 6.97 0 012.072-5.006 6.972 6.972 0 015.007-2.072c1.899 0 3.712.777 5.007 2.072a6.973 6.973 0 012.072 5.006 6.973 6.973 0 01-2.072 5.007 6.972 6.972 0 01-5.007 2.072c-1.986 0-3.712-.863-5.007-2.072zm68.456-5.093c0 1.468.604 2.849 1.64 3.885.949.95 2.331 1.64 3.884 1.64 1.554 0 2.849-.604 3.885-1.64.95-.95 1.64-2.331 1.64-3.885 0-1.554-.604-2.849-1.64-3.884l-.086-.087a5.423 5.423 0 00-3.799-1.554c-1.467 0-2.848.605-3.884 1.64-1.036 1.037-1.64 2.418-1.64 3.885zm3.798 1.727c-.432-.432-.691-1.036-.691-1.727 0-.69.259-1.295.691-1.726a2.41 2.41 0 011.726-.69c.605 0 1.209.258 1.641.603l.086.087c.432.431.69 1.036.69 1.726s-.258 1.295-.69 1.727c-.432.431-1.036.69-1.727.69-.777 0-1.294-.259-1.726-.69zm-3.367 3.366a6.972 6.972 0 01-2.072-5.007 6.97 6.97 0 012.072-5.006 6.974 6.974 0 015.007-2.072c1.899 0 3.712.777 5.007 2.072a6.972 6.972 0 012.072 5.006 6.972 6.972 0 01-2.072 5.007 6.972 6.972 0 01-5.007 2.072c-1.985 0-3.712-.863-5.007-2.072zm6.993-23.307v-3.712H113.43v3.712H79.763l-.69-44.544c0-1.036-.432-1.9-1.122-2.59-.69-.69-1.554-1.036-2.59-1.036h-.086L52.312 16.36c-6.733.518-12.517 3.54-16.833 8.028-4.403 4.576-7.251 10.705-7.856 17.524v.173l-1.64 37.033v.346c0 1.899.777 3.539 1.986 4.834 1.208 1.295 2.848 2.072 4.748 2.158h7.51c.863 0 1.554-.69 1.554-1.554v-5.007c.086-3.194 1.38-6.129 3.539-8.287a11.288 11.288 0 018.114-3.453h.173c3.194.086 6.043 1.381 8.028 3.453 2.072 2.072 3.28 4.92 3.28 8.115v5.093c0 .863.691 1.554 1.554 1.554h41.954c.864 0 1.554-.69 1.554-1.554V81.88c.087-3.193 1.381-6.128 3.54-8.286a11.285 11.285 0 018.114-3.453h.173c3.194.086 6.042 1.38 8.028 3.453 2.072 2.071 3.28 4.92 3.28 8.114v.863c0 1.036.432 1.986 1.123 2.676a3.785 3.785 0 002.676 1.123h1.726c.863 0 1.554-.69 1.554-1.554v-14.33a7.897 7.897 0 00-2.331-5.611c-1.467-1.468-3.366-2.331-5.611-2.331l-8.373.173zM50.154 46.573V31.38c0-.863-.69-1.554-1.554-1.554h-6.388c-2.072 0-4.057.777-5.61 1.985-1.555 1.295-2.677 3.022-3.109 5.093l-1.554 7.51c-.086.26-.086.432-.086.605 0 .69.26 1.381.69 1.9.432.517 1.037.949 1.727 1.035.26.086.432.086.605.086h13.553c1.036.087 1.726-.604 1.726-1.467zm-3.108-13.64V45.02H35.047c.518-2.503.95-5.007 1.554-7.51.259-1.295 1.036-2.504 1.986-3.28 1.035-.777 2.244-1.295 3.625-1.295h4.834zM35.047 45.02c0 .086 0 .086 0 0zM32.89 83.347h-.172c-1.036-.086-1.986-.518-2.677-1.208a3.787 3.787 0 01-1.122-2.676v-.173l1.64-37.033a26.105 26.105 0 016.993-15.711c3.798-3.971 8.977-6.561 14.848-7.08l22.79-1.898c.172 0 .345.086.43.172a.659.659 0 01.174.432l.776 46.097c0 .864.691 1.554 1.554 1.554h54.04c1.295 0 2.503.518 3.366 1.382a4.763 4.763 0 011.382 3.366v12.776h-.087a.658.658 0 01-.431-.172.656.656 0 01-.173-.432v-.863c0-3.971-1.64-7.597-4.23-10.273-2.59-2.676-6.215-4.316-10.186-4.402h-.259c-4.057 0-7.683 1.726-10.359 4.402a15.157 15.157 0 00-4.403 10.36v1.379H67.937v-3.539c0-3.971-1.64-7.597-4.23-10.273-2.59-2.676-6.215-4.316-10.186-4.402h-.26c-4.056 0-7.682 1.726-10.358 4.402a15.153 15.153 0 00-4.403 10.36v3.452h-5.61zm115.416-11.999l-3.366-5.007h3.798c.863 0 1.554-.69 1.554-1.554v-3.712h6.647v3.712c0 .864.691 1.554 1.554 1.554h68.714c.864 0 1.554-.69 1.554-1.554v-3.712h6.993v3.712c0 .864.69 1.554 1.553 1.554h41.436v5.007H255.78c-.518 0-1.036.26-1.295.777l-2.935 4.748h-1.726a1.45 1.45 0 01-.864-.26c-.259-.172-.518-.43-.604-.776-.259-.777-.604-1.381-1.036-2.072a15.197 15.197 0 00-1.381-1.899c-1.295-1.554-2.935-2.762-4.748-3.626-1.813-.863-3.798-1.294-5.87-1.294s-4.057.431-5.87 1.294c-1.813.864-3.453 2.072-4.748 3.626-.432.518-.863 1.122-1.295 1.727-.345.604-.69 1.294-1.036 1.899-.172.431-.431.69-.777.95-.345.172-.69.345-1.036.345h-.086c-.432 0-.777-.087-1.036-.346-.345-.259-.604-.518-.777-.95-.259-.69-.69-1.38-1.036-1.985-.431-.604-.863-1.208-1.381-1.813-1.295-1.467-2.935-2.59-4.661-3.366a13.645 13.645 0 00-11.223 0c-1.812.777-3.366 1.985-4.661 3.366-.518.605-.95 1.123-1.381 1.727a8.111 8.111 0 00-1.036 1.9c-.173.43-.432.776-.863.949-.346.259-.691.345-1.123.345h-2.244l-3.626-4.748c-.259-.431-.777-.69-1.295-.69l-35.825.172z" fill="#374148"/><path d="M232.299.39c12 2.589 28.142 3.107 41.782 1.035 3.884-.604 7.337 2.417 7.337 6.388v46.96a6.374 6.374 0 01-6.388 6.389H87.36a6.374 6.374 0 01-6.388-6.388c0-10.705.086-32.286 0-46.875 0-3.884 3.453-6.906 7.251-6.388 12.258 1.727 30.645 1.382 41.868-1.122a6.978 6.978 0 012.676 0c11.481 2.417 33.666 2.504 46.788 0 .949-.173 1.899-.086 2.849.086 14.416 3.626 32.371 2.85 47.133-.086.432-.086.863-.086 1.295-.086.518-.087 1.036-.087 1.467.086zm-1.467 46.01c.777 0 1.381-.604 1.381-1.38V8.157c0-.777-.604-1.38-1.381-1.38s-1.381.603-1.381 1.38V45.02c0 .777.69 1.381 1.381 1.381zM87.619 53.997c0 1.122.863 1.985 1.985 1.985a1.954 1.954 0 001.986-1.985 1.953 1.953 0 00-1.986-1.986c-1.122 0-1.985.95-1.985 1.986zm10.272 0c0 1.122.864 1.985 1.986 1.985a1.953 1.953 0 001.985-1.985 1.953 1.953 0 00-1.985-1.986 1.953 1.953 0 00-1.986 1.986zm10.532 0c0 1.122.863 1.985 1.986 1.985a1.953 1.953 0 001.985-1.985 1.953 1.953 0 00-1.985-1.986c-1.036 0-1.986.864-1.986 1.986zm10.014 0c0 1.122.863 1.985 1.985 1.985a1.954 1.954 0 001.986-1.985 1.953 1.953 0 00-1.986-1.986 1.953 1.953 0 00-1.985 1.986zm10.618 0c0 1.122.863 1.985 1.985 1.985a1.954 1.954 0 001.986-1.985 1.954 1.954 0 00-1.986-1.986 1.953 1.953 0 00-1.985 1.986zm10.618 0c0 1.122.863 1.985 1.985 1.985a1.954 1.954 0 001.986-1.985 1.954 1.954 0 00-1.986-1.986c-1.122.087-1.985.95-1.985 1.986zm10.531 0c0 1.122.864 1.985 1.986 1.985a1.953 1.953 0 001.985-1.985 1.953 1.953 0 00-1.985-1.986c-1.036 0-1.986.864-1.986 1.986zm10.187 0c0 1.122.863 1.985 1.985 1.985a1.954 1.954 0 001.986-1.985 1.954 1.954 0 00-1.986-1.986c-1.122 0-1.985.95-1.985 1.986zm11.308 0c0 1.122.864 1.985 1.986 1.985a1.953 1.953 0 001.985-1.985 1.953 1.953 0 00-1.985-1.986c-1.122.087-1.986.95-1.986 1.986zm10.877 0c0 1.122.863 1.985 1.986 1.985a1.953 1.953 0 001.985-1.985 1.953 1.953 0 00-1.985-1.986c-1.123.087-1.986.95-1.986 1.986zm11.481.086c0 1.122.864 1.986 1.986 1.986a1.953 1.953 0 001.985-1.986 1.953 1.953 0 00-1.985-1.985c-1.122.086-1.986.95-1.986 1.985zm11.482 0c0 1.122.863 1.986 1.985 1.986a1.954 1.954 0 001.986-1.986 1.954 1.954 0 00-1.986-1.985c-1.036.086-1.985.95-1.985 1.985zm11.653.087c0 1.122.864 1.985 1.986 1.985a1.953 1.953 0 001.985-1.986 1.953 1.953 0 00-1.985-1.985c-1.122.086-1.986.95-1.986 1.986zm11.482 0c0 1.122.863 1.985 1.985 1.985a1.954 1.954 0 001.986-1.986 1.954 1.954 0 00-1.986-1.985c-1.122.086-1.985.95-1.985 1.986zm11.049-.173c0 1.122.864 1.985 1.986 1.985a1.953 1.953 0 001.985-1.985 1.953 1.953 0 00-1.985-1.986c-1.122 0-1.986.95-1.986 1.986zm10.618.086c0 1.122.864 1.986 1.986 1.986a1.953 1.953 0 001.985-1.986 1.953 1.953 0 00-1.985-1.985c-1.122.086-1.986.95-1.986 1.985zm10.446-.086c0 1.122.863 1.985 1.985 1.985a1.954 1.954 0 001.986-1.985 1.954 1.954 0 00-1.986-1.986c-1.122.087-1.985.95-1.985 1.986zm9.927 0c0 1.122.863 1.985 1.985 1.985a1.954 1.954 0 001.986-1.985 1.953 1.953 0 00-1.986-1.986c-1.122.087-1.985.95-1.985 1.986zM131.817 46.4c.777 0 1.381-.604 1.381-1.38V8.157c0-.777-.604-1.38-1.381-1.38s-1.381.603-1.381 1.38V45.02c0 .777.604 1.381 1.381 1.381zm49.205 0c.777 0 1.382-.604 1.382-1.38V8.157c0-.777-.605-1.38-1.382-1.38-.777 0-1.381.603-1.381 1.38V45.02c0 .777.604 1.381 1.381 1.381zm47.306 14.762h-68.714 68.714z" fill="url(#paint0_linear)"/><defs><linearGradient id="paint0_linear" x1="281.423" y1="30.759" x2="80.939" y2="30.759" gradientUnits="userSpaceOnUse"><stop stop-color="#008DD2"/><stop offset="1" stop-color="#003C5F"/></linearGradient></defs></svg>