<svg width="481" height="138" viewBox="0 0 481 138" fill="none" xmlns="http://www.w3.org/2000/svg">
<path d="M414.616 133.905C415.738 133.905 416.774 132.955 416.861 131.833V131.488C416.947 130.193 415.997 129.157 414.789 128.985L303.861 120.093C306.278 119.575 308.609 119.057 310.94 118.453C323.543 115.345 334.766 110.597 342.88 107.231C347.283 105.418 350.822 103.95 352.894 103.432C353.498 103.26 353.93 102.914 354.189 102.483C354.448 102.138 354.534 101.706 354.534 101.274C354.534 100.843 354.448 100.497 354.275 100.066C354.016 99.6341 353.584 99.2025 352.98 99.0298L349.268 97.9076C367.224 91.2606 381.813 86.5127 392.344 83.3187H393.035C394.675 83.2324 396.229 83.2324 397.61 83.1461C401.149 83.1461 405.466 83.0598 409.868 82.8871C416.861 82.5418 424.285 81.9375 430.414 80.9016C431.277 80.7289 431.795 79.952 431.708 79.0888C431.622 78.5708 431.277 78.0529 430.759 77.8802C426.788 76.24 418.414 74.8589 409.955 74.1683C409.178 74.0819 408.314 74.0819 407.538 73.9956C402.358 72.3554 394.157 68.1255 398.214 58.6298C399.596 55.3494 403.826 45.5947 408.487 35.1494L419.278 10.9785C419.364 10.8058 419.45 10.6332 419.45 10.3742C421.608 5.53999 422.99 2.34598 422.99 2.34598C423.335 1.56905 422.99 0.619485 422.213 0.274186C421.954 0.187861 421.695 0.101531 421.436 0.187855L401.495 1.65536C397.61 1.91434 393.898 2.95025 390.445 4.5041C386.561 6.2306 383.021 8.6477 379.827 11.4964C367.224 22.4597 357.555 31.1785 349.786 38.1708C319.227 65.7084 317.587 67.1759 291.344 67.2623C271.921 67.2623 240.93 67.3486 208.559 67.4349C169.885 67.5213 129.14 67.6076 103.329 67.6076C101.602 67.6076 99.7893 67.6076 97.8901 67.6076C76.4816 67.4349 42.9012 67.2623 30.6431 84.6999L20.8883 88.3256C17.9533 89.4478 15.3636 92.2102 13.9824 95.7495C13.1191 98.0803 12.7738 100.843 13.3781 103.605C13.9824 106.367 15.5362 109.13 18.2986 111.633C23.5644 116.467 33.4055 120.266 50.2388 120.956H50.3251H146.491C146.75 122.51 147.527 123.978 148.649 125.014C150.03 126.481 152.016 127.344 154.174 127.344H161.253C161.512 128.985 162.202 130.366 163.324 131.488C164.619 132.783 166.432 133.646 168.418 133.646C170.403 133.646 172.216 132.869 173.511 131.488C174.633 130.366 175.324 128.985 175.583 127.344H177.482C177.741 128.985 178.431 130.366 179.553 131.488C180.848 132.783 182.661 133.646 184.647 133.646C186.632 133.646 188.445 132.869 189.74 131.488C190.862 130.366 191.553 128.985 191.812 127.344H193.711C193.97 128.985 194.66 130.366 195.783 131.488C197.077 132.783 198.89 133.646 200.876 133.646C202.861 133.646 204.674 132.869 205.969 131.488C207.091 130.366 207.782 128.985 208.041 127.344H209.94C210.199 128.985 210.889 130.366 212.012 131.488C213.306 132.783 215.119 133.646 217.105 133.646C219.09 133.646 220.903 132.869 222.198 131.488C223.32 130.366 224.011 128.985 224.27 127.344H229.622C231.78 127.344 233.679 126.481 235.147 125.1C236.269 123.978 237.046 122.597 237.305 120.956C239.808 121.043 245.247 121.129 252.239 120.956C252.066 121.82 251.98 122.683 251.98 123.546V125.1H253.534C253.62 125.1 266.914 125.014 283.489 123.028L414.789 133.56C414.53 133.905 414.616 133.905 414.616 133.905ZM471.159 134.078C470.296 134.078 469.605 134.768 469.605 135.632C469.605 136.495 470.296 137.185 471.159 137.185H479.446C480.309 137.185 481 136.495 481 135.632C481 134.768 480.309 134.078 479.446 134.078H471.159ZM437.838 134.078C436.974 134.078 436.284 134.768 436.284 135.632C436.284 136.495 436.974 137.185 437.838 137.185H464.512C465.375 137.185 466.066 136.495 466.066 135.632C466.066 134.768 465.375 134.078 464.512 134.078H437.838ZM1.89688 134.078C1.03363 134.078 0.342987 134.768 0.342987 135.632C0.342987 136.495 1.03363 137.185 1.89688 137.185H431.018C431.881 137.185 432.572 136.495 432.572 135.632C432.572 134.768 431.881 134.078 431.018 134.078H87.1859C88.6534 133.991 89.9482 133.301 90.9841 132.351C92.1064 131.229 92.7106 129.761 92.7106 128.121C92.7106 126.481 92.02 124.927 90.9841 123.891C89.8619 122.769 88.3944 122.165 86.7542 122.165C85.1141 122.165 83.5602 122.856 82.5243 123.891L82.438 123.978C81.4021 125.1 80.7978 126.481 80.7978 128.121C80.7978 129.761 81.4884 131.229 82.5243 132.351C83.4739 133.301 84.8551 133.991 86.3226 134.078H1.89688ZM391.308 27.2075H394.33C395.193 27.2075 395.884 26.5169 395.884 25.6537C395.884 24.7904 395.193 24.0998 394.33 24.0998H393.121L398.387 15.381C398.905 14.6041 399.509 13.9135 400.286 13.4819C401.063 13.0503 401.926 12.7913 402.876 12.705L415.22 12.1007C412.544 18.0571 409.178 25.74 405.897 33.1639L393.898 60.0973H372.835C372.662 60.0973 372.576 60.0973 372.403 60.011C372.317 59.9247 372.144 59.8383 372.144 59.752C372.058 59.6657 372.058 59.493 372.058 59.3204C372.058 59.234 372.058 59.0614 372.144 58.8887L378.101 49.0477H381.554C382.417 49.0477 383.108 48.3571 383.108 47.4939C383.108 46.6306 382.417 45.94 381.554 45.94H380L391.308 27.2075ZM416.688 8.99298L402.79 9.59726C401.322 9.68359 399.941 10.1152 398.819 10.8058C397.61 11.4964 396.574 12.5323 395.884 13.7408L369.641 57.2486C369.296 57.8529 369.123 58.5435 369.123 59.2341C369.123 59.9247 369.296 60.6153 369.641 61.1332C369.986 61.7375 370.418 62.2555 371.022 62.6008C371.626 62.9461 372.231 63.1187 373.008 63.1187H393.984C393.726 68.0392 396.402 71.4059 399.682 73.6503H399.337L396.402 73.305C396.315 73.305 396.229 73.305 396.229 73.305L339.082 71.5785C332.867 71.3195 328.637 72.4418 326.565 73.9093C325.529 74.6862 324.925 75.6358 324.838 76.6717C324.752 77.7076 325.184 78.7435 326.219 79.6067C327.946 81.1606 331.831 82.3691 338.046 82.5418C338.823 82.5418 339.859 82.6281 341.24 82.6281C349.009 82.8871 365.238 83.4914 381.64 83.405C371.626 86.5991 359.196 90.829 344.779 96.2675L334.938 93.1597H334.679C333.989 93.1597 333.384 93.246 332.694 93.4187C332.003 93.5913 331.399 93.8504 330.795 94.1093C327.601 95.7495 319.227 99.8931 307.055 103.691C294.884 107.49 278.913 111.029 260.526 111.461C258.109 111.547 255.951 113.187 254.311 115.432C253.793 116.208 253.275 117.072 252.93 118.021C243.693 118.194 236.787 118.021 235.751 118.021C235.665 118.021 235.665 118.021 235.578 118.021C234.715 118.021 234.024 118.712 234.024 119.575V119.748C234.024 121.043 233.507 122.251 232.643 123.028C231.78 123.891 230.658 124.409 229.363 124.409H154.174C152.879 124.409 151.757 123.891 150.894 123.028C150.03 122.165 149.512 120.956 149.512 119.575V119.661C149.512 118.798 148.822 118.108 147.959 118.108H50.4114C34.4413 117.503 25.2046 113.964 20.4567 109.561C18.2123 107.49 17.0038 105.332 16.4858 103.087C15.9679 100.929 16.2268 98.8572 16.9174 96.958C17.9533 94.282 19.8525 92.1239 22.0106 91.3469L28.8302 88.7572H50.2388C51.2747 88.7572 52.2243 88.2392 52.8286 87.4623C53.4329 86.7717 53.7781 85.8221 53.7781 84.7862V81.5922C53.7781 80.9016 53.5192 80.2974 53.1739 79.8657C52.7422 79.3478 52.138 79.0025 51.3611 79.0025H41.6064C56.3679 70.37 81.0568 70.5426 97.8901 70.629C99.7893 70.629 101.602 70.629 103.329 70.629H103.847L103.76 70.7153C103.242 71.5785 102.897 72.4418 102.724 73.3914C102.552 74.3409 102.638 75.3768 102.897 76.3264C103.588 78.7435 105.746 80.8153 109.458 81.3332C125.946 83.664 141.83 86.2538 157.282 89.1888C156.246 90.4837 155.555 92.1238 155.555 93.8503V104.986C155.555 107.058 156.418 108.871 157.713 110.166C159.008 111.461 160.907 112.324 162.893 112.324H164.619C164.706 112.324 164.792 112.324 164.878 112.324H223.579C224.788 112.324 225.91 112.496 226.946 112.842C227.982 113.187 229.018 113.705 229.967 114.396L232.212 116.036C232.902 116.554 233.852 116.381 234.37 115.691C234.888 115 234.715 114.05 234.024 113.532L231.78 111.892C230.572 111.029 229.277 110.338 227.895 109.907C226.514 109.475 225.133 109.216 223.579 109.216H195.351C196.042 108.526 196.56 107.835 197.077 106.972L206.055 105.418C206.832 105.332 207.35 104.641 207.35 103.864V100.238C212.357 101.533 217.277 102.828 222.284 104.209C223.666 105.159 225.824 105.85 228.845 106.022C234.283 106.454 246.801 106.108 260.526 104.986C271.317 104.123 282.798 102.742 292.207 100.929C293.071 100.756 293.589 99.9794 293.416 99.1162C293.33 98.4256 292.725 97.9939 292.121 97.9076C286.596 96.8717 276.755 95.7495 266.137 95.0589L202.084 70.2836H208.472C240.844 70.1973 271.748 70.111 291.258 70.111C318.623 70.111 320.349 68.4708 351.685 40.2426C359.541 33.164 369.296 24.3588 381.64 13.5682C384.661 10.8921 388.028 8.64769 391.567 7.00752C394.675 5.53999 398.042 4.67674 401.581 4.41777L419.019 3.1229L416.688 8.99298ZM289.877 73.9093H285.043C284.093 73.9093 283.23 74.3409 282.539 74.9452C281.935 75.5495 281.503 76.4127 281.503 77.4486V87.2033C281.503 88.1529 281.935 89.0161 282.539 89.7067L282.625 89.7931C283.23 90.3974 284.093 90.7426 284.956 90.7426H289.79C290.74 90.7426 291.603 90.311 292.294 89.7067C292.898 89.1025 293.33 88.2392 293.33 87.2896V77.535C293.33 76.5854 292.898 75.7221 292.294 75.0315C291.69 74.3409 290.826 73.9093 289.877 73.9093ZM285.043 77.017H289.877C289.963 77.017 290.049 77.017 290.136 77.1033C290.222 77.1897 290.222 77.276 290.222 77.3623V87.117C290.222 87.2033 290.222 87.2896 290.136 87.376C290.049 87.4623 289.963 87.4623 289.877 87.4623H285.043C284.956 87.4623 284.87 87.4623 284.784 87.376C284.697 87.2896 284.697 87.2033 284.697 87.117V77.3623C284.697 77.276 284.784 77.1897 284.784 77.1033C284.784 77.1033 284.87 77.017 285.043 77.017ZM87.7902 91.6922H82.0927C81.0568 91.6922 80.1072 92.1239 79.4166 92.8145C78.726 93.5051 78.2944 94.4546 78.2944 95.4905V106.799C78.2944 107.835 78.726 108.785 79.4166 109.475C80.1072 110.166 81.0568 110.597 82.0927 110.597H87.7902C88.826 110.597 89.7756 110.166 90.4662 109.475L90.5525 109.389C91.1568 108.698 91.5884 107.835 91.5884 106.799V95.4905C91.5884 94.4546 91.1568 93.5051 90.4662 92.8145C89.7756 92.1239 88.826 91.6922 87.7902 91.6922ZM82.0927 94.7999H87.7902C87.9628 94.7999 88.1354 94.8863 88.3081 94.9726C88.4807 95.0589 88.4807 95.3179 88.4807 95.4905V106.799C88.4807 106.972 88.3944 107.144 88.3081 107.231L88.2218 107.317C88.0491 107.49 87.8764 107.49 87.7038 107.49H82.0064C81.8337 107.49 81.661 107.403 81.4884 107.317C81.3158 107.231 81.3158 106.972 81.3158 106.799V95.4905C81.3158 95.3179 81.4021 95.1452 81.4884 94.9726C81.7474 94.8863 81.92 94.7999 82.0927 94.7999ZM384.489 76.1537C384.402 76.3264 384.23 76.4127 384.143 76.5853C383.712 77.1896 383.539 77.9666 383.626 78.6572C383.712 79.2614 383.885 79.952 384.316 80.47C367.051 80.6426 349.441 80.0384 341.24 79.6931C339.945 79.6067 338.909 79.6067 338.046 79.6067C332.608 79.4341 329.413 78.4845 328.119 77.3623C327.946 77.1896 327.773 77.017 327.773 77.017C327.773 76.9306 327.946 76.758 328.205 76.499C329.759 75.3768 333.298 74.5136 338.737 74.7725L384.489 76.1537ZM409.696 77.3623C414.098 77.7076 418.501 78.2255 422.213 78.9161C418.155 79.3478 413.926 79.6067 409.868 79.7794C401.149 80.211 393.294 80.0384 389.927 79.6931C388.201 79.5204 387.251 79.0888 386.82 78.5709C386.733 78.4845 386.733 78.3982 386.733 78.3982C386.733 78.3119 386.733 78.3119 386.82 78.2255C387.079 77.8802 387.51 77.6212 388.287 77.4486C391.999 76.5853 400.891 76.5854 409.696 77.3623ZM220.04 100.843C202.689 96.0948 185.424 91.9512 167.727 88.4119C148.994 84.6136 129.917 81.4196 109.803 78.5709C107.472 78.2256 106.177 77.1033 105.746 75.7221C105.573 75.2041 105.573 74.6862 105.659 74.1683C105.746 73.6503 105.918 73.1323 106.177 72.7007C106.868 71.5785 108.163 70.8879 109.976 71.1469C131.988 74.5136 152.275 78.7435 171.18 83.405C188.963 87.8939 205.537 92.8144 221.162 98.1666C220.989 98.4255 220.73 98.6846 220.644 98.8572C220.299 99.5478 220.126 100.152 220.04 100.843ZM224.701 96.0948C208.213 90.3974 190.776 85.1315 172.043 80.3837C158.145 76.9307 143.47 73.7366 127.931 70.8879C147.441 70.8879 170.489 70.8016 193.624 70.7153L198.459 72.6144H189.826C189.222 72.6144 188.618 72.9597 188.359 73.564C188.013 74.3409 188.445 75.2905 189.222 75.5495L229.622 91.1743C230.054 91.3469 230.485 91.5196 231.003 91.5196C231.435 91.6059 231.953 91.6059 232.384 91.6059H247.664L255.951 94.7999C255.174 94.7999 254.311 94.7136 253.534 94.7136C241.707 94.2819 230.658 94.4546 225.306 95.7495C225.133 95.9221 224.96 96.0085 224.701 96.0948ZM253.448 97.9076C263.289 98.2529 273.734 99.1161 281.762 100.066C274.856 101.102 267.346 101.879 260.181 102.397C246.628 103.519 234.283 103.778 228.931 103.432C225.996 103.26 224.27 102.569 223.493 101.792C223.234 101.533 223.148 101.361 223.148 101.188C223.148 101.015 223.148 100.756 223.32 100.584C223.752 99.8931 224.701 99.2888 226.083 98.9435C231.176 97.6486 241.88 97.476 253.448 97.9076ZM161.339 90.311C163.324 90.6563 165.224 91.088 167.209 91.5196L167.9 91.6922V109.734H163.065C161.857 109.734 160.821 109.216 160.044 108.526C159.267 107.749 158.836 106.713 158.836 105.504V94.3683C158.836 93.1598 159.353 92.1239 160.044 91.3469C160.389 90.829 160.821 90.4837 161.339 90.311ZM171.007 92.2102C174.374 92.9008 177.741 93.5914 181.107 94.3683V109.648H171.007V92.2102ZM184.129 95.0589C187.841 95.9221 191.639 96.7854 195.351 97.6486V102.051C195.351 104.123 194.488 106.022 193.193 107.317C191.812 108.698 189.999 109.475 187.927 109.475H184.215L184.129 95.0589ZM198.459 98.4256C200.358 98.8572 202.257 99.3751 204.242 99.8931V103.087L198.286 104.123C198.372 103.519 198.459 102.828 198.459 102.224V98.4256ZM206.487 75.7221L239.808 88.5845H232.471C232.212 88.5845 231.866 88.5845 231.607 88.4982C231.348 88.4119 231.089 88.4119 230.83 88.2392L198.113 75.6358L206.487 75.7221ZM212.789 127.69H220.817C220.644 128.467 220.213 129.071 219.695 129.589C218.918 130.366 217.882 130.797 216.76 130.797C215.637 130.797 214.601 130.366 213.824 129.589C213.393 129.071 212.961 128.467 212.789 127.69ZM164.274 127.69H172.302C172.13 128.467 171.698 129.071 171.18 129.589C170.403 130.366 169.367 130.797 168.245 130.797C167.123 130.797 166.087 130.366 165.31 129.589C164.878 129.071 164.447 128.467 164.274 127.69ZM180.503 127.69H188.445C188.272 128.467 187.841 129.071 187.323 129.589C186.546 130.366 185.51 130.797 184.388 130.797C183.265 130.797 182.23 130.366 181.453 129.589C181.021 129.071 180.676 128.467 180.503 127.69ZM196.646 127.69H204.674C204.501 128.467 204.07 129.071 203.552 129.589C202.775 130.366 201.739 130.797 200.617 130.797C199.495 130.797 198.459 130.366 197.682 129.589C197.164 129.071 196.818 128.467 196.646 127.69ZM334.334 96.4401L349.614 101.274C347.455 102.051 344.866 103.173 341.758 104.468C333.73 107.835 322.594 112.41 310.249 115.518C287.719 121.129 261.562 122.165 254.742 122.338C255.001 120.697 255.778 118.971 256.728 117.503C257.764 115.95 259.059 114.914 260.44 114.827C279.086 114.396 295.401 110.856 307.832 106.972C320.263 103.087 328.809 98.8572 332.09 97.1307C332.521 96.9581 332.866 96.7854 333.298 96.6991C333.643 96.5264 333.989 96.4401 334.334 96.4401ZM197.336 107.058C197.336 106.972 197.423 106.972 197.423 106.885C197.336 106.885 197.336 106.972 197.336 107.058ZM37.1175 82.3691H50.5841V85.0452C50.5841 85.3042 50.4978 85.5632 50.3251 85.7358C50.2388 85.8221 50.1525 85.9085 50.0662 85.9085H33.6645C34.7003 84.6136 35.8226 83.405 37.1175 82.3691ZM84.6824 130.107C84.1645 129.589 83.8192 128.898 83.8192 128.035C83.8192 127.258 84.0782 126.567 84.5961 126.05L84.6824 125.963C85.2004 125.445 85.891 125.1 86.7542 125.1C87.5312 125.1 88.3081 125.445 88.826 125.963C89.344 126.481 89.6893 127.172 89.6893 128.035C89.6893 128.812 89.344 129.589 88.826 130.107C88.3081 130.625 87.6175 130.97 86.7542 130.97C85.891 130.97 85.2004 130.625 84.6824 130.107Z" fill="#374148"/>
<path d="M345.125 98.2532L365.929 99.7207C366.706 99.807 367.311 100.498 367.224 101.275L365.584 124.323C365.498 125.1 364.807 125.704 364.03 125.618L340.982 123.978C340.205 123.892 339.6 123.201 339.687 122.424L340.809 106.454C342.104 105.936 343.312 105.418 344.435 104.9L343.312 120.87H343.399L359.714 122.079L360.75 122.165H360.836C361.613 122.165 362.218 121.561 362.304 120.784L363.426 105.159L363.512 104.123C363.599 103.346 362.994 102.656 362.217 102.569L361.182 102.483L352.463 101.879H352.549C353.24 101.706 353.24 100.757 352.549 100.498L345.125 98.2532ZM349.614 104.21L360.405 104.987C360.75 104.987 360.923 105.245 360.923 105.591L360.059 117.245C360.059 117.763 359.369 118.022 359.023 117.59L349.01 105.159C348.837 104.814 349.096 104.21 349.614 104.21ZM347.974 108.181L356.261 118.453C356.693 118.971 356.261 119.662 355.657 119.662L346.679 119.057C346.247 119.057 345.988 118.712 345.988 118.281L346.679 108.612C346.679 108.181 347.024 107.922 347.456 107.922C347.542 107.922 347.801 108.008 347.974 108.181ZM377.152 109.821L386.906 110.598C388.719 110.77 390.1 112.324 389.928 114.137L389.151 123.892C388.978 125.704 387.424 127.086 385.612 126.913L375.857 126.136C374.044 125.963 372.663 124.41 372.835 122.597L373.612 112.842C373.785 111.116 375.166 109.821 376.893 109.821C376.979 109.734 377.065 109.734 377.152 109.821ZM359.973 120.007H359.887H359.973Z" fill="url(#paint0_linear)"/>
<defs>
<linearGradient id="paint0_linear" x1="389.944" y1="112.616" x2="339.67" y2="112.616" gradientUnits="userSpaceOnUse">
<stop stop-color="#008DD2"/>
<stop offset="1" stop-color="#003C5F"/>
</linearGradient>
</defs>
</svg>
