<svg width="316" height="95" viewBox="0 0 316 95" fill="none" xmlns="http://www.w3.org/2000/svg">
<path d="M173.858 65.0026L168.42 73.1172C168.161 73.5488 167.643 73.8078 167.125 73.8078H131.3L127.588 78.7283C127.243 79.1599 126.811 79.3326 126.38 79.3326H123.358C122.322 79.3326 121.373 78.9873 120.51 78.4693C119.646 77.9514 119.042 77.0881 118.61 76.1385C118.351 75.6206 118.092 75.1026 117.833 74.671C117.488 74.1531 117.143 73.7214 116.798 73.2898C115.762 72.1676 114.553 71.3044 113.172 70.7001C111.791 70.0958 110.323 69.7505 108.769 69.7505C107.215 69.7505 105.748 70.0958 104.367 70.7001C102.986 71.3044 101.691 72.2539 100.741 73.2898L100.655 73.3762C100.31 73.8078 99.9642 74.2394 99.6189 74.671C99.2736 75.189 99.0146 75.7069 98.7557 76.2249C98.324 77.1744 97.7198 77.9514 96.8565 78.4693C96.0796 78.9873 95.13 79.3326 94.0941 79.3326H94.0078C92.9719 79.3326 92.0223 78.9873 91.1591 78.4693L91.0728 78.383C90.2958 77.865 89.6916 77.0018 89.2599 76.1385C89.001 75.6206 88.742 75.1026 88.483 74.671C88.224 74.2394 87.8787 73.7214 87.4471 73.2898C86.4112 72.0813 85.2027 71.1317 83.7351 70.4411C82.3539 69.8368 80.8001 69.4915 79.1599 69.4915C77.5197 69.4915 75.9659 69.8368 74.5847 70.4411C73.1172 71.1317 71.9086 72.0813 70.8727 73.2898C70.5274 73.7214 70.0958 74.2394 69.8368 74.7573C69.4915 75.2753 69.2326 75.7933 69.0599 76.3975C68.7146 77.2608 68.1103 78.0377 67.3334 78.5556C66.5565 79.0736 65.6932 79.4189 64.6573 79.4189H62.0676C61.4633 79.4189 60.9454 79.0736 60.6864 78.5556L57.8377 73.8941H34.3573C33.4941 73.8941 32.8035 73.2035 32.8035 72.3403V64.2257C32.8035 63.3625 33.4941 62.6719 34.3573 62.6719H75.8796V59.7368C75.8796 58.8736 76.5702 58.183 77.4334 58.183H87.5334C88.3967 58.183 89.0873 58.8736 89.0873 59.7368V62.6719H154.694V59.7368C154.694 58.8736 155.385 58.183 156.248 58.183H165.916C166.78 58.183 167.47 58.8736 167.47 59.7368V62.6719H172.65C173.513 62.6719 174.204 63.3625 174.204 64.2257C174.117 64.4847 174.031 64.7437 173.858 65.0026ZM9.84104 90.9864C10.7043 90.9864 11.3949 91.677 11.3949 92.5403C11.3949 93.4035 10.7043 94.0941 9.84104 94.0941H1.55385C0.690599 94.0941 0 93.4035 0 92.5403C0 91.677 0.690599 90.9864 1.55385 90.9864H9.84104ZM46.1838 90.9864C47.0471 90.9864 47.7377 91.677 47.7377 92.5403C47.7377 93.4035 47.0471 94.0941 46.1838 94.0941H16.4017C15.5385 94.0941 14.8479 93.4035 14.8479 92.5403C14.8479 91.677 15.5385 90.9864 16.4017 90.9864H46.1838ZM313.705 90.9864C314.568 90.9864 315.258 91.677 315.258 92.5403C315.258 93.4035 314.568 94.0941 313.705 94.0941H53.0035C52.1402 94.0941 51.4496 93.4035 51.4496 92.5403C51.4496 91.677 52.1402 90.9864 53.0035 90.9864H194.922C192.159 90.9864 189.569 89.8642 187.757 88.0514C185.944 86.2386 184.822 83.6488 184.822 80.8864C184.822 78.124 185.944 75.5343 187.757 73.7214C189.569 71.9086 192.159 70.7864 194.922 70.7864C197.684 70.7864 200.274 71.9086 202.087 73.7214C203.899 75.5343 205.022 78.124 205.022 80.8864C205.022 83.6488 203.899 86.2386 202.087 88.0514C200.274 89.8642 197.684 90.9864 194.922 90.9864H263.809C261.046 90.9864 258.457 89.8642 256.644 88.0514C254.831 86.2386 253.709 83.6488 253.709 80.8864C253.709 78.124 254.831 75.5343 256.644 73.7214C258.457 71.9086 261.046 70.7864 263.809 70.7864C266.571 70.7864 269.161 71.9086 270.974 73.7214C272.787 75.5343 273.909 78.124 273.909 80.8864C273.909 83.6488 272.787 86.2386 270.974 88.0514C269.161 89.8642 266.571 90.9864 263.809 90.9864H313.705ZM84.8574 80.2821C84.8574 81.7497 84.2531 83.1309 83.2172 84.1668C82.2676 85.1163 80.8864 85.8069 79.3326 85.8069C77.7787 85.8069 76.4838 85.2027 75.448 84.1668C74.4984 83.2172 73.8078 81.836 73.8078 80.2821C73.8078 78.7283 74.412 77.4334 75.448 76.3975C76.3975 75.4479 77.7787 74.7573 79.3326 74.7573C80.8001 74.7573 82.1813 75.3616 83.2172 76.3975C84.2531 77.3471 84.8574 78.7283 84.8574 80.2821ZM81.0591 81.9223C81.4907 81.4907 81.7497 80.8864 81.7497 80.1958C81.7497 79.5052 81.4907 78.9009 81.0591 78.4693C80.6274 78.0377 80.0232 77.7787 79.3326 77.7787C78.642 77.7787 78.0377 78.0377 77.6061 78.4693C77.1744 78.9009 76.9155 79.5052 76.9155 80.1958C76.9155 80.8864 77.1744 81.4907 77.6061 81.9223C78.0377 82.3539 78.642 82.6129 79.3326 82.6129C80.0232 82.6129 80.6274 82.3539 81.0591 81.9223ZM89.6052 80.2821C89.6052 83.0445 88.483 85.6343 86.6702 87.4471C84.8574 89.2599 82.2676 90.3821 79.5052 90.3821C76.7428 90.3821 74.1531 89.2599 72.3402 87.4471C70.5274 85.6343 69.4052 83.0445 69.4052 80.2821C69.4052 77.5197 70.5274 74.93 72.3402 73.1172C74.1531 71.3044 76.7428 70.1821 79.5052 70.1821C82.2676 70.1821 84.8574 71.3044 86.6702 73.1172C88.3967 75.0163 89.6052 77.5197 89.6052 80.2821ZM84.4257 85.289C85.7206 83.9941 86.4975 82.2676 86.4975 80.2821C86.4975 78.383 85.7206 76.5702 84.4257 75.2753C83.1309 73.9804 81.4044 73.2035 79.4189 73.2035C77.5197 73.2035 75.7069 73.9804 74.412 75.2753C73.1172 76.5702 72.3402 78.2967 72.3402 80.2821C72.3402 82.1813 73.1172 83.9941 74.412 85.289C75.7069 86.5839 77.4334 87.3608 79.4189 87.3608C81.4044 87.3608 83.1309 86.5839 84.4257 85.289ZM114.035 80.2821C114.035 81.7497 113.431 83.1309 112.395 84.1668C111.445 85.1163 110.064 85.8069 108.51 85.8069C107.043 85.8069 105.662 85.2027 104.626 84.1668C103.59 83.1309 102.986 81.836 102.986 80.2821C102.986 78.7283 103.59 77.4334 104.626 76.3975C105.575 75.4479 106.957 74.7573 108.51 74.7573C110.064 74.7573 111.359 75.3616 112.395 76.3975L112.481 76.4838C113.431 77.4334 114.035 78.8146 114.035 80.2821ZM110.237 81.9223C110.669 81.4907 110.927 80.8864 110.927 80.1958C110.927 79.5915 110.668 78.9873 110.323 78.5556L110.237 78.4693C109.805 78.0377 109.201 77.7787 108.51 77.7787C107.82 77.7787 107.216 78.0377 106.784 78.4693C106.352 78.9009 106.093 79.5052 106.093 80.1958C106.093 80.8864 106.352 81.4907 106.784 81.9223C107.216 82.3539 107.82 82.6129 108.51 82.6129C109.201 82.6129 109.805 82.3539 110.237 81.9223ZM118.697 80.2821C118.697 83.0445 117.574 85.6343 115.762 87.4471C113.949 89.2599 111.359 90.3821 108.597 90.3821C105.834 90.3821 103.245 89.2599 101.432 87.4471C99.6189 85.6343 98.4967 83.0445 98.4967 80.2821C98.4967 77.5197 99.6189 74.93 101.432 73.1172C103.245 71.3044 105.834 70.1821 108.597 70.1821C111.359 70.1821 113.949 71.3044 115.762 73.1172C117.574 75.0163 118.697 77.5197 118.697 80.2821ZM113.604 85.289C114.898 83.9941 115.675 82.2676 115.675 80.2821C115.675 78.383 114.898 76.5702 113.604 75.2753C112.309 73.9804 110.582 73.2035 108.597 73.2035C106.698 73.2035 104.885 73.9804 103.59 75.2753C102.295 76.5702 101.518 78.2967 101.518 80.2821C101.518 82.1813 102.295 83.9941 103.59 85.289C104.885 86.5839 106.611 87.3608 108.597 87.3608C110.582 87.3608 112.309 86.5839 113.604 85.289ZM191.296 62.5855V61.0317H201.741V62.5855H237.048L237.739 18.0419C237.739 17.006 238.17 16.1428 238.861 15.4522C239.552 14.7616 240.415 14.4163 241.451 14.4163H241.537L264.413 16.3154C271.146 16.8334 276.93 19.8547 281.246 24.3436C285.649 28.9188 288.498 35.0479 289.102 41.8676C289.102 41.9539 289.102 41.9539 289.102 42.0402L290.742 79.0736V79.4189C290.742 81.318 289.965 83.0445 288.757 84.2531C287.548 85.548 285.908 86.3249 284.009 86.4112H283.664H276.412C275.549 86.4112 274.858 85.7206 274.858 84.8574V80.1095C274.858 79.7642 274.858 80.0232 274.858 79.8505C274.772 76.6565 273.477 73.7214 271.319 71.5633C269.247 69.4052 266.399 68.1103 263.205 68.1103C262.946 68.1103 263.118 68.1103 262.946 68.1103C259.752 68.1967 256.903 69.4915 254.917 71.5633C252.846 73.6351 251.637 76.4839 251.637 79.6779V84.771C251.637 85.6343 250.946 86.3249 250.083 86.3249H208.129C207.266 86.3249 206.575 85.6343 206.575 84.771V82.095C206.575 81.7497 206.575 82.0086 206.575 81.836C206.489 78.642 205.194 75.7069 203.036 73.5488C200.964 71.3907 198.116 70.0958 194.922 70.0958C194.663 70.0958 194.835 70.0958 194.663 70.0958C191.469 70.1821 188.62 71.477 186.634 73.5488C184.563 75.6206 183.354 78.4693 183.354 81.6633V82.5266C183.354 83.5625 182.922 84.5121 182.232 85.2027C181.541 85.8933 180.592 86.3249 179.556 86.3249H177.916C177.052 86.3249 176.362 85.6343 176.362 84.771V70.4411C176.362 68.283 177.225 66.2975 178.693 64.83C180.16 63.3625 182.059 62.4992 184.304 62.4992L191.296 62.5855ZM269.247 80.8001C269.247 82.3539 268.643 83.6488 267.607 84.6847L267.521 84.771C266.571 85.7206 265.19 86.3249 263.723 86.3249C262.255 86.3249 260.874 85.7206 259.838 84.6847C258.888 83.7351 258.198 82.3539 258.198 80.8001C258.198 79.2462 258.802 77.9514 259.838 76.9155C260.787 75.9659 262.169 75.2753 263.723 75.2753C265.19 75.2753 266.571 75.8796 267.607 76.9155C268.557 77.9514 269.247 79.3326 269.247 80.8001ZM265.449 82.5266C265.881 82.095 266.14 81.4907 266.14 80.8001C266.14 80.1095 265.881 79.5052 265.449 79.0736C265.017 78.642 264.413 78.383 263.723 78.383C263.032 78.383 262.428 78.642 261.996 79.0736C261.564 79.5052 261.305 80.1095 261.305 80.8001C261.305 81.4907 261.564 82.095 261.996 82.5266C262.428 82.9582 263.032 83.2172 263.723 83.2172C264.327 83.2172 264.931 82.9582 265.449 82.5266ZM268.729 85.8933C270.024 84.5984 270.801 82.8719 270.801 80.8864C270.801 78.9873 270.024 77.1744 268.729 75.8796C267.435 74.5847 265.708 73.8078 263.723 73.8078C261.823 73.8078 260.011 74.5847 258.716 75.8796C257.421 77.1744 256.644 78.9009 256.644 80.8864C256.644 82.7856 257.421 84.5984 258.716 85.8933C260.011 87.1881 261.737 87.965 263.723 87.965C265.708 87.8787 267.521 87.1018 268.729 85.8933ZM200.36 80.8001C200.36 82.2676 199.756 83.6488 198.72 84.6847C197.77 85.6343 196.389 86.3249 194.835 86.3249C193.368 86.3249 191.987 85.7206 190.951 84.6847C190.001 83.7351 189.31 82.3539 189.31 80.8001C189.31 79.2462 189.915 77.9514 190.951 76.9155L191.037 76.8291C191.987 75.8796 193.368 75.2753 194.835 75.2753C196.389 75.2753 197.684 75.8796 198.72 76.9155L198.806 77.0018C199.756 78.0377 200.36 79.3326 200.36 80.8001ZM196.562 82.5266C196.993 82.095 197.252 81.4907 197.252 80.8001C197.252 80.1958 196.993 79.5915 196.648 79.1599L196.562 79.0736C196.13 78.642 195.526 78.383 194.835 78.383C194.231 78.383 193.627 78.642 193.195 78.9873L193.109 79.0736C192.677 79.5052 192.418 80.1095 192.418 80.8001C192.418 81.4907 192.677 82.095 193.109 82.5266C193.54 82.9582 194.145 83.2172 194.835 83.2172C195.526 83.2172 196.13 82.9582 196.562 82.5266ZM199.928 85.8933C201.223 84.5984 202 82.8719 202 80.8864C202 78.9873 201.223 77.1744 199.928 75.8796C198.634 74.5847 196.907 73.8078 194.922 73.8078C193.022 73.8078 191.21 74.5847 189.915 75.8796C188.62 77.1744 187.843 78.9009 187.843 80.8864C187.843 82.7856 188.62 84.5984 189.915 85.8933C191.21 87.1881 192.936 87.965 194.922 87.965C196.907 87.8787 198.634 87.1018 199.928 85.8933ZM266.658 46.4428V31.2496C266.658 30.3864 267.348 29.6958 268.211 29.6958H274.599C276.671 29.6958 278.657 30.4727 280.211 31.6812C281.764 32.9761 282.887 34.7026 283.318 36.7744L284.872 44.2847C284.958 44.5436 284.958 44.7163 284.958 44.8889C284.958 45.5795 284.699 46.2701 284.268 46.7881C283.836 47.306 283.232 47.7377 282.541 47.824C282.282 47.9103 282.11 47.9103 281.937 47.9103H268.384C267.348 47.9966 266.658 47.306 266.658 46.4428ZM269.765 32.8035V44.8889H281.764C281.246 42.3855 280.815 39.8821 280.211 37.3787C279.952 35.9975 279.175 34.8753 278.225 34.0983C277.189 33.3214 275.981 32.8035 274.599 32.8035H269.765ZM283.836 83.2172H284.009C285.045 83.1309 285.994 82.6992 286.685 82.0086C287.376 81.318 287.807 80.3685 287.807 79.3326V79.1599L286.167 42.1265C285.649 35.9975 283.059 30.559 279.175 26.4154C275.376 22.4445 270.197 19.8547 264.327 19.3368L241.364 17.4376C241.192 17.4376 241.105 17.524 240.933 17.6103C240.846 17.6966 240.76 17.8693 240.76 18.0419L239.983 64.1394C239.983 65.0026 239.293 65.6932 238.429 65.6932H184.39C183.095 65.6932 181.887 66.2112 181.023 67.0744C180.16 67.9377 179.642 69.1462 179.642 70.4411V83.2172H179.728C179.901 83.2172 180.074 83.1309 180.16 83.0445C180.246 82.9582 180.333 82.7856 180.333 82.6129V81.7497C180.333 77.7787 181.973 74.1531 184.563 71.477C187.152 68.8009 190.778 67.1608 194.749 67.0744C195.094 67.0744 194.922 67.0744 195.008 67.0744C199.065 67.0744 202.691 68.8009 205.367 71.477C208.043 74.1531 209.683 77.8651 209.769 81.836C209.769 82.095 209.769 82.0086 209.769 82.095V83.2172H248.616V79.6779C248.616 75.7069 250.256 72.0813 252.846 69.4052C255.435 66.7291 259.061 65.089 263.032 65.0026C263.377 65.0026 263.205 65.0026 263.291 65.0026C267.348 65.0026 270.974 66.7291 273.65 69.4052C276.326 72.0813 277.966 75.7932 278.052 79.7642C278.052 80.0232 278.052 79.9368 278.052 80.0232V83.2172H283.836ZM166.348 70.7001L169.715 65.6932H165.916C165.053 65.6932 164.363 65.0026 164.363 64.1394V61.2043H157.716V64.1394C157.716 65.0026 157.025 65.6932 156.162 65.6932H87.4471C86.5839 65.6932 85.8933 65.0026 85.8933 64.1394V61.2043H78.9009V64.1394C78.9009 65.0026 78.2103 65.6932 77.3471 65.6932H35.9111V70.7001H58.8736C59.3915 70.7001 59.9095 70.9591 60.1684 71.477L63.1035 76.2249H64.83C65.1753 76.2249 65.4343 76.1385 65.6932 75.9659C65.9522 75.7933 66.2112 75.5343 66.2975 75.189C66.5565 74.4984 66.9018 73.8078 67.3334 73.1172C67.765 72.4266 68.1967 71.8223 68.7146 71.218C70.0095 69.6642 71.6497 68.4556 73.4625 67.5924C75.2753 66.7291 77.2608 66.2975 79.3326 66.2975C81.4044 66.2975 83.3898 66.7291 85.2027 67.5924C87.0155 68.4556 88.6557 69.6642 89.9505 71.218C90.3821 71.736 90.8138 72.3403 91.2454 72.9445C91.5907 73.5488 91.936 74.2394 92.2813 74.8437C92.4539 75.189 92.7129 75.5343 92.9719 75.7933C93.3172 75.9659 93.6625 76.1385 94.0078 76.1385H94.0941C94.5257 76.1385 94.871 76.0522 95.13 75.7933C95.4753 75.5343 95.7343 75.2753 95.9069 74.8437C96.1659 74.1531 96.5975 73.4625 96.9428 72.8582C97.2881 72.2539 97.7198 71.736 98.2377 71.1317L98.324 71.0454C99.6189 69.5779 101.259 68.4556 102.986 67.6787C104.712 66.9018 106.611 66.4702 108.597 66.4702C110.582 66.4702 112.481 66.9018 114.208 67.6787C116.021 68.4556 117.575 69.6642 118.869 71.0454C119.387 71.6497 119.819 72.1676 120.251 72.7719C120.682 73.3762 121.027 74.0668 121.286 74.671C121.459 75.1026 121.718 75.4479 122.15 75.6206C122.495 75.8796 122.84 75.9659 123.272 75.9659H125.516L129.142 71.1317C129.401 70.7001 129.919 70.4411 130.437 70.4411L166.348 70.7001Z" fill="#3C464E"/>
<path d="M246.544 10.618V7.42394C246.544 4.31624 244.041 1.7265 240.847 1.7265H235.149C234.631 1.7265 234.286 1.29487 234.286 0.863249C234.286 0.3453 233.854 0 233.423 0H34.7028C34.1849 0 33.8396 0.431624 33.8396 0.863249V60.1684C33.8396 60.6864 34.2712 61.0317 34.7028 61.0317H233.336C233.854 61.0317 234.2 60.6001 234.2 60.1684V12.4308C234.2 11.9128 234.631 11.5675 235.063 11.5675H245.508C246.112 11.4812 246.544 11.1359 246.544 10.618ZM134.322 7.59659C134.322 6.73334 135.012 6.04274 135.876 6.04274C136.739 6.04274 137.429 6.73334 137.429 7.59659V25.8111L144.422 18.8188V10.0137C144.422 9.15044 145.112 8.45984 145.976 8.45984C146.839 8.45984 147.529 9.15044 147.529 10.0137V17.524L147.616 17.6103H155.126C155.989 17.6103 156.68 18.3009 156.68 19.1641C156.68 20.0274 155.989 20.718 155.126 20.718H146.839L139.588 27.9693H157.802C158.665 27.9693 159.356 28.6599 159.356 29.5231C159.356 30.3864 158.665 31.077 157.802 31.077H139.76L146.666 37.9829H154.953C155.817 37.9829 156.507 38.6735 156.507 39.5368C156.507 40.4 155.817 41.0906 154.953 41.0906H147.616C147.529 41.177 147.443 41.2633 147.357 41.2633V48.6009C147.357 49.4642 146.666 50.1548 145.803 50.1548C144.94 50.1548 144.249 49.4642 144.249 48.6009V39.9684L137.343 33.0624V51.4496C137.343 52.3129 136.653 53.0035 135.789 53.0035C134.926 53.0035 134.235 52.3129 134.235 51.4496V33.3214L127.243 40.3137V48.9462C127.243 49.8095 126.553 50.5001 125.689 50.5001C124.826 50.5001 124.135 49.8095 124.135 48.9462V41.3496H116.539C115.676 41.3496 114.985 40.659 114.985 39.7958C114.985 38.9325 115.676 38.2419 116.539 38.2419H124.912L131.991 31.1633H113.863C113 31.1633 112.309 30.4727 112.309 29.6094C112.309 28.7462 113 28.0556 113.863 28.0556H132.164L124.999 20.8906H116.453C115.589 20.8906 114.899 20.2 114.899 19.3368C114.899 18.4735 115.589 17.7829 116.453 17.7829H124.049V10.1863C124.049 9.32309 124.74 8.63249 125.603 8.63249C126.466 8.63249 127.157 9.32309 127.157 10.1863V18.7325L134.149 25.7248L134.322 7.59659Z" fill="url(#paint0_linear)"/>
<defs>
<linearGradient id="paint0_linear" x1="33.8347" y1="30.5708" x2="246.579" y2="30.5708" gradientUnits="userSpaceOnUse">
<stop stop-color="#008DD2"/>
<stop offset="1" stop-color="#003C5F"/>
</linearGradient>
</defs>
</svg>
