<svg width="296" height="95" viewBox="0 0 296 95" fill="none" xmlns="http://www.w3.org/2000/svg">
<path d="M109.711 65.6932H120.156H128.53C129.825 65.6932 131.033 66.2112 131.896 67.0744C132.76 67.9377 133.278 69.1462 133.278 70.4411V83.2172H133.191C133.019 83.2172 132.846 83.1309 132.76 83.0445C132.673 82.9582 132.587 82.7856 132.587 82.6129V81.7497C132.587 77.7787 130.947 74.1531 128.357 71.477C125.767 68.8009 122.142 67.1608 118.171 67.0744C117.912 67.0744 117.998 67.0744 117.912 67.0744C113.854 67.0744 110.229 68.8009 107.553 71.477C104.877 74.1531 103.237 77.8651 103.15 81.836C103.15 82.095 103.15 82.0086 103.15 82.095V83.2172H64.304V79.6779C64.304 75.7069 62.6638 72.0813 60.0741 69.4052C57.4843 66.7291 53.8587 65.089 49.8878 65.0026C49.6288 65.0026 49.7151 65.0026 49.6288 65.0026C45.5715 65.0026 41.9459 66.7291 39.2698 69.4052C36.5937 72.0813 34.9535 75.7933 34.8672 79.7642C34.8672 80.0232 34.8672 79.9368 34.8672 80.0232V83.2172H29.1698H28.9971C27.9612 83.1309 27.0117 82.6992 26.3211 82.0086C25.6305 81.318 25.1989 80.3685 25.1989 79.3326V79.1599L26.839 42.1266C27.357 35.9975 29.9467 30.559 33.8314 26.4154C37.6296 22.4445 42.8091 19.8547 48.6792 19.3368L71.469 17.4376C71.6416 17.4376 71.728 17.524 71.9006 17.6103C71.9869 17.6966 72.0733 17.8693 72.0733 18.0419L72.8502 64.1394C72.8502 65.0026 73.5408 65.6932 74.404 65.6932H109.711ZM286.159 90.9864C285.296 90.9864 284.605 91.677 284.605 92.5403C284.605 93.4035 285.296 94.0941 286.159 94.0941H294.446C295.309 94.0941 296 93.4035 296 92.5403C296 91.677 295.309 90.9864 294.446 90.9864H286.159ZM252.924 90.9864C252.061 90.9864 251.37 91.677 251.37 92.5403C251.37 93.4035 252.061 94.0941 252.924 94.0941H279.598C280.461 94.0941 281.152 93.4035 281.152 92.5403C281.152 91.677 280.461 90.9864 279.598 90.9864H252.924ZM2.40906 90.9864C1.54581 90.9864 0.855225 91.677 0.855225 92.5403C0.855225 93.4035 1.54581 94.0941 2.40906 94.0941H246.018C246.881 94.0941 247.572 93.4035 247.572 92.5403C247.572 91.677 246.881 90.9864 246.018 90.9864H232.897C235.573 90.9001 237.99 89.7779 239.716 88.0514C241.529 86.2385 242.651 83.6488 242.651 80.8864C242.651 78.124 241.529 75.5343 239.716 73.7215C237.903 71.9086 235.314 70.7864 232.551 70.7864C229.789 70.7864 227.199 71.9086 225.386 73.7215C223.573 75.5343 222.451 78.124 222.451 80.8864C222.451 83.6488 223.573 86.2385 225.386 88.0514C227.113 89.7779 229.53 90.9001 232.206 90.9864H203.719C206.395 90.9001 208.812 89.7779 210.538 88.0514C212.351 86.2385 213.473 83.6488 213.473 80.8864C213.473 78.124 212.351 75.5343 210.538 73.7215C208.726 71.9086 206.136 70.7864 203.373 70.7864C200.611 70.7864 198.021 71.9086 196.208 73.7215C194.396 75.5343 193.273 78.124 193.273 80.8864C193.273 83.6488 194.396 86.2385 196.208 88.0514C197.935 89.7779 200.352 90.9001 203.028 90.9864H118.084C120.847 90.9864 123.437 89.8642 125.249 88.0514C127.062 86.2385 128.184 83.6488 128.184 80.8864C128.184 78.124 127.062 75.5343 125.249 73.7215C123.437 71.9086 120.847 70.7864 118.084 70.7864C115.322 70.7864 112.732 71.9086 110.919 73.7215C109.107 75.5343 107.984 78.124 107.984 80.8864C107.984 83.6488 109.107 86.2385 110.919 88.0514C112.732 89.8642 115.322 90.9864 118.084 90.9864H49.1972C51.9596 90.9864 54.5493 89.8642 56.3621 88.0514C58.1749 86.2385 59.2972 83.6488 59.2972 80.8864C59.2972 78.124 58.1749 75.5343 56.3621 73.7215C54.5493 71.9086 51.9596 70.7864 49.1972 70.7864C46.4348 70.7864 43.845 71.9086 42.0322 73.7215C40.2194 75.5343 39.0971 78.124 39.0971 80.8864C39.0971 83.6488 40.2194 86.2385 42.0322 88.0514C43.845 89.8642 46.4348 90.9864 49.1972 90.9864H2.40906ZM222.969 61.0317V63.1898H157.362V61.0317H154.255V64.7437C154.255 65.6069 154.945 66.2975 155.808 66.2975H224.523C225.386 66.2975 226.077 65.6069 226.077 64.7437V61.0317H222.969ZM144.586 61.0317V63.1898H139.407C138.543 63.1898 137.853 63.8804 137.853 64.7437C137.853 65.089 137.939 65.3479 138.112 65.6069L143.55 73.7215C143.809 74.1531 144.327 74.4121 144.845 74.4121H180.67L184.382 79.3326C184.727 79.7642 185.159 79.9368 185.59 79.9368H188.612C189.648 79.9368 190.597 79.5915 191.461 79.0736C192.324 78.5556 192.928 77.6924 193.36 76.7428C193.619 76.2249 193.878 75.7069 194.223 75.2753C194.568 74.7574 194.914 74.3257 195.259 73.8941C196.295 72.7719 197.503 71.9086 198.884 71.3044C200.266 70.7001 201.733 70.3548 203.287 70.3548C204.841 70.3548 206.308 70.7001 207.69 71.3044C209.071 71.9086 210.366 72.8582 211.315 73.8941L211.402 73.9804C211.747 74.4121 212.092 74.8437 212.438 75.2753C212.783 75.7933 213.042 76.3112 213.301 76.8291C213.732 77.7787 214.337 78.5556 215.2 79.0736C215.977 79.5915 216.926 79.9368 217.962 79.9368H218.049C219.085 79.9368 220.034 79.5915 220.897 79.0736C221.674 78.5556 222.365 77.6924 222.796 76.7428C223.055 76.2249 223.314 75.7069 223.573 75.2753C223.832 74.8437 224.178 74.3257 224.609 73.8941C225.645 72.6856 226.854 71.736 228.321 71.0454C229.702 70.4411 231.256 70.0958 232.897 70.0958C234.537 70.0958 236.091 70.4411 237.472 71.0454C238.939 71.736 240.148 72.6856 241.184 73.8941C241.529 74.3257 241.961 74.8437 242.22 75.3616C242.565 75.8796 242.824 76.3975 242.997 76.9155C243.342 77.7787 243.946 78.5556 244.723 79.0736C245.5 79.5915 246.363 79.9368 247.399 79.9368H249.989C250.593 79.9368 251.111 79.5915 251.37 79.0736L254.219 74.4121H266.218C267.081 74.4121 267.772 73.7215 267.772 72.8582V64.7437C267.772 63.8804 267.081 63.1898 266.218 63.1898H236.35V61.0317H233.242V64.7437C233.242 65.6069 233.932 66.2975 234.796 66.2975H264.664V71.3044H253.356C252.838 71.3044 252.32 71.5633 252.061 72.0813L249.126 76.8291H247.399C247.054 76.8291 246.795 76.7428 246.536 76.5702C246.277 76.3975 246.018 76.1386 245.932 75.7933C245.673 75.0163 245.327 74.4121 244.896 73.7215C244.464 73.0309 244.032 72.4266 243.514 71.8223C242.22 70.2685 240.579 69.0599 238.767 68.1967C236.954 67.3334 234.968 66.9018 232.897 66.9018C230.825 66.9018 228.839 67.3334 227.026 68.1967C225.214 69.0599 223.573 70.2685 222.279 71.8223C221.847 72.3403 221.415 72.9445 220.984 73.5488C220.638 74.1531 220.293 74.8437 219.948 75.448C219.775 75.8796 219.516 76.1385 219.171 76.3975C218.826 76.5702 218.48 76.7428 218.135 76.7428H218.049C217.617 76.7428 217.272 76.6565 217.013 76.3975C216.667 76.1385 216.408 75.8796 216.236 75.448C215.977 74.7574 215.545 74.0667 215.2 73.4625C214.855 72.8582 214.423 72.3403 213.905 71.736L213.819 71.6496C212.524 70.1821 210.884 69.0599 209.157 68.283C207.431 67.5061 205.532 67.0744 203.546 67.0744C201.561 67.0744 199.661 67.5061 197.935 68.283C196.122 69.0599 194.568 70.2684 193.273 71.6496C192.755 72.2539 192.324 72.7719 191.892 73.3761C191.461 73.9804 191.115 74.5847 190.856 75.2753C190.684 75.7069 190.425 76.0522 189.993 76.2249C189.648 76.4839 189.302 76.5702 188.871 76.5702H186.626L183.001 71.8223C182.742 71.3907 182.224 71.1317 181.706 71.1317H145.967L142.601 66.1249H146.399C147.262 66.1249 147.953 65.4343 147.953 64.571V60.859L144.586 61.0317ZM227.113 80.8864C227.113 82.3539 227.717 83.7351 228.753 84.771C229.789 85.8069 231.084 86.4112 232.638 86.4112C234.105 86.4112 235.486 85.8069 236.522 84.771C237.472 83.8215 238.162 82.4403 238.162 80.8864C238.162 79.3326 237.558 78.0377 236.522 77.0018L236.436 76.9155C235.486 75.9659 234.105 75.3616 232.638 75.3616C231.084 75.3616 229.789 75.9659 228.753 77.0018C227.717 77.9514 227.113 79.3326 227.113 80.8864ZM230.911 82.5266C230.479 82.095 230.22 81.4907 230.22 80.8001C230.22 80.1095 230.479 79.5052 230.911 79.0736C231.343 78.642 231.947 78.383 232.638 78.383C233.242 78.383 233.846 78.642 234.278 78.9873L234.364 79.0736C234.796 79.5052 235.055 80.1095 235.055 80.8001C235.055 81.4907 234.796 82.095 234.364 82.5266C233.932 82.9582 233.328 83.2172 232.638 83.2172C231.947 83.2172 231.343 82.9582 230.911 82.5266ZM227.544 85.8932C226.249 84.5984 225.473 82.8719 225.473 80.8864C225.473 78.9009 226.249 77.1745 227.544 75.8796C228.839 74.5847 230.566 73.8078 232.551 73.8078C234.537 73.8078 236.263 74.5847 237.558 75.8796C238.853 77.1745 239.63 78.9009 239.63 80.8864C239.63 82.7856 238.853 84.5984 237.558 85.8932C236.263 87.1881 234.537 87.9651 232.551 87.9651C230.566 87.9651 228.839 87.1881 227.544 85.8932ZM197.935 80.8864C197.935 82.3539 198.539 83.7351 199.575 84.771C200.525 85.7206 201.906 86.4112 203.46 86.4112C204.927 86.4112 206.308 85.8069 207.344 84.771C208.294 83.8215 208.985 82.4403 208.985 80.8864C208.985 79.3326 208.38 78.0377 207.344 77.0018C206.395 76.0522 205.014 75.3616 203.46 75.3616C201.906 75.3616 200.611 75.9659 199.575 77.0018L199.489 77.0881C198.539 78.0377 197.935 79.4189 197.935 80.8864ZM201.733 82.5266C201.302 82.095 201.043 81.4907 201.043 80.8001C201.043 80.1958 201.302 79.5915 201.647 79.1599L201.733 79.0736C202.165 78.642 202.769 78.383 203.46 78.383C204.15 78.383 204.755 78.642 205.186 79.0736C205.618 79.5052 205.877 80.1095 205.877 80.8001C205.877 81.4907 205.618 82.095 205.186 82.5266C204.755 82.9582 204.15 83.2172 203.46 83.2172C202.769 83.2172 202.165 82.9582 201.733 82.5266ZM198.367 85.8932C197.072 84.5984 196.295 82.8719 196.295 80.8864C196.295 78.9009 197.072 77.1745 198.367 75.8796C199.661 74.5847 201.388 73.8078 203.373 73.8078C205.273 73.8078 207.085 74.5847 208.38 75.8796C209.675 77.1745 210.452 78.9009 210.452 80.8864C210.452 82.7856 209.675 84.5984 208.38 85.8932C207.085 87.1881 205.359 87.9651 203.373 87.9651C201.388 87.9651 199.661 87.1881 198.367 85.8932ZM120.156 62.5855V61.0317H109.711V62.5855H76.0442L75.3536 18.0419C75.3536 17.006 74.922 16.1428 74.2314 15.4522C73.5408 14.7616 72.6775 14.4163 71.6416 14.4163H71.5553L48.6792 16.3154C41.9458 16.8334 36.1621 19.8547 31.8458 24.3436C27.4433 28.9188 24.5946 35.0479 23.9903 41.8676C23.9903 41.9539 23.9903 41.9539 23.9903 42.0402L22.3501 79.0736V79.4189C22.3501 81.318 23.1271 82.9582 24.3356 84.2531C25.5442 85.548 27.1843 86.3249 29.0835 86.4112H29.4287H36.6801C37.5433 86.4112 38.2339 85.7206 38.2339 84.8574V80.1095C38.2339 79.7642 38.2339 80.0232 38.2339 79.8505C38.3202 76.6565 39.6151 73.7215 41.7732 71.5633C43.845 69.4052 46.7801 68.1103 49.8878 68.1103C50.1467 68.1103 49.9741 68.1103 50.0604 68.1103C53.2544 68.1967 56.1031 69.4915 58.0886 71.5633C60.1604 73.6351 61.369 76.4839 61.369 79.6779V84.771C61.369 85.6343 62.0595 86.3249 62.9228 86.3249H104.877C105.74 86.3249 106.431 85.6343 106.431 84.771V82.095C106.431 81.7497 106.431 82.0087 106.431 81.836C106.517 78.642 107.812 75.7069 109.97 73.5488C112.042 71.3907 114.977 70.0958 118.084 70.0958C118.343 70.0958 118.171 70.0958 118.257 70.0958C121.451 70.1821 124.3 71.477 126.285 73.5488C128.357 75.6206 129.566 78.4693 129.566 81.6633V82.5266C129.566 83.5625 129.997 84.5121 130.688 85.2027C131.378 85.8933 132.328 86.3249 133.364 86.3249H135.004C135.867 86.3249 136.558 85.6343 136.558 84.771V70.4411C136.558 68.283 135.695 66.2975 134.227 64.83C132.76 63.3625 130.861 62.4992 128.616 62.4992H120.156V62.5855ZM43.845 80.8001C43.845 82.2676 44.4493 83.6488 45.4852 84.6847C46.4348 85.6343 47.816 86.3249 49.3698 86.3249C50.8374 86.3249 52.2186 85.7206 53.2544 84.6847C54.2903 83.6488 54.8946 82.3539 54.8946 80.8001C54.8946 79.3326 54.2903 77.9514 53.2544 76.9155C52.2186 75.9659 50.9237 75.2753 49.3698 75.2753C47.9023 75.2753 46.5211 75.8796 45.4852 76.9155C44.4493 77.9514 43.845 79.3326 43.845 80.8001ZM47.6433 82.5266C47.2117 82.095 46.9527 81.4907 46.9527 80.8001C46.9527 80.1095 47.2117 79.5052 47.6433 79.0736C48.075 78.642 48.6792 78.383 49.3698 78.383C50.0604 78.383 50.6647 78.642 51.0963 79.0736C51.528 79.5052 51.7869 80.1095 51.7869 80.8001C51.7869 81.4907 51.528 82.095 51.0963 82.5266C50.6647 82.9582 50.0604 83.2172 49.3698 83.2172C48.6792 83.2172 48.075 82.9582 47.6433 82.5266ZM44.2766 85.8932C42.9818 84.5984 42.2048 82.8719 42.2048 80.8864C42.2048 78.9873 42.9818 77.1745 44.2766 75.8796C45.5715 74.5847 47.298 73.8078 49.2835 73.8078C51.1826 73.8078 52.9954 74.5847 54.2903 75.8796C55.5852 77.1745 56.3621 78.9009 56.3621 80.8864C56.3621 82.7856 55.5852 84.5984 54.2903 85.8932C52.9954 87.1881 51.2689 87.9651 49.2835 87.9651C47.298 87.9651 45.5715 87.1018 44.2766 85.8932ZM112.646 80.8001C112.646 82.2676 113.25 83.6488 114.286 84.6847C115.236 85.6343 116.617 86.3249 118.171 86.3249C119.725 86.3249 121.019 85.7206 122.055 84.6847L122.142 84.5984C123.091 83.6488 123.696 82.2676 123.696 80.8001C123.696 79.3326 123.091 77.9514 122.055 76.9155C121.106 75.9659 119.725 75.2753 118.171 75.2753C116.703 75.2753 115.322 75.8796 114.286 76.9155C113.337 77.9514 112.646 79.3326 112.646 80.8001ZM116.444 82.5266C116.013 82.095 115.754 81.4907 115.754 80.8001C115.754 80.1095 116.013 79.5052 116.444 79.0736C116.876 78.642 117.48 78.383 118.171 78.383C118.861 78.383 119.466 78.642 119.897 79.0736C120.329 79.5052 120.588 80.1095 120.588 80.8001C120.588 81.4044 120.329 82.0086 119.984 82.4403L119.897 82.5266C119.466 82.9582 118.861 83.2172 118.171 83.2172C117.48 83.2172 116.876 82.9582 116.444 82.5266ZM113.164 85.8932C111.869 84.5984 111.092 82.8719 111.092 80.8864C111.092 78.9873 111.869 77.1745 113.164 75.8796C114.459 74.5847 116.185 73.8078 118.171 73.8078C120.07 73.8078 121.883 74.5847 123.178 75.8796C124.472 77.1745 125.249 78.9009 125.249 80.8864C125.249 82.7856 124.472 84.5984 123.178 85.8932C121.883 87.1881 120.156 87.9651 118.171 87.9651C116.185 87.9651 114.372 87.1018 113.164 85.8932ZM46.4348 46.4428V31.2496C46.4348 30.3864 45.7442 29.6958 44.8809 29.6958H38.4929C36.4211 29.6958 34.4356 30.4727 32.8817 31.6812C31.3279 32.9761 30.2057 34.7026 29.7741 36.7744L28.2202 44.2847C28.1339 44.5436 28.1339 44.7163 28.1339 44.8889C28.1339 45.5795 28.3929 46.2701 28.8245 46.7881C29.2561 47.306 29.8604 47.7377 30.551 47.824C30.8099 47.9103 30.9826 47.9103 31.1552 47.9103H44.7083C45.7442 47.9966 46.4348 47.306 46.4348 46.4428ZM43.3271 32.8035V44.8889H31.3279C31.8459 42.3855 32.2775 39.8821 32.8817 37.3787C33.1407 35.9975 33.9176 34.8753 34.8672 34.0983C35.9031 33.3214 37.1117 32.8035 38.4929 32.8035H43.3271Z" fill="#374148"/>
<path d="M77.2525 58.6146V2.4171C77.2525 1.0359 78.3747 0 79.7559 0C81.1371 0 82.2593 1.12223 82.2593 2.4171V46.7018C82.2593 48.083 83.3815 49.1189 84.6764 49.1189H265.182C266.563 49.1189 267.599 50.2411 267.599 51.536V58.5283C267.599 59.9095 266.477 61.0317 265.182 61.0317H234.623H224.523H155.808H146.14H120.07H109.624H79.5833C78.2884 61.0317 77.2525 59.9095 77.2525 58.6146ZM263.973 52.2265C263.973 51.6223 263.542 51.1907 262.937 51.1907H82.6909C82.0867 51.1907 81.655 51.6223 81.655 52.2265C81.655 52.8308 82.0867 53.2625 82.6909 53.2625H262.937C263.542 53.2625 263.973 52.8308 263.973 52.2265ZM111.092 1.29487C113.25 1.29487 114.976 3.02137 114.976 5.17949V43.853C114.976 46.0112 113.25 47.7377 111.092 47.7377H88.7337C86.5756 47.7377 84.8491 46.0112 84.8491 43.853V5.17949C84.8491 3.02137 86.5756 1.29487 88.7337 1.29487H111.092ZM112.646 15.9701V12.9487H87.2662V15.9701H112.646ZM112.646 34.8752V31.8539H87.2662V34.8752H112.646ZM234.45 1.55385C236.004 1.55385 237.299 2.84871 237.299 4.40256V44.8026C237.299 46.3565 236.004 47.6513 234.45 47.6513H194.05C192.496 47.6513 191.201 46.3565 191.201 44.8026V4.40256C191.201 2.84871 192.496 1.55385 194.05 1.55385H234.45ZM233.76 42.1265V9.49574V7.33762C233.76 5.78377 232.465 4.48889 230.911 4.48889H228.839H198.021C196.467 4.48889 195.259 5.69744 195.259 7.25129V9.49574V42.1265C195.259 43.3351 196.295 44.371 197.503 44.371H200.093H228.753H231.515C232.724 44.371 233.76 43.4214 233.76 42.1265ZM227.63 9.49574C228.235 9.49574 228.753 10.0137 228.753 10.618V32.0265C228.753 32.9761 227.63 33.494 226.94 32.8898L203.2 11.4812C202.424 10.7906 202.942 9.58205 203.977 9.58205L227.63 9.49574ZM130.256 12.5171C132.241 12.5171 134.054 13.9846 134.227 15.9701C134.4 18.2146 132.673 20.1137 130.429 20.1137H124.041C122.055 20.1137 120.242 18.6462 120.07 16.6607C119.897 14.4163 121.623 12.5171 123.868 12.5171H130.256ZM166.081 12.5171C168.066 12.5171 169.879 13.9846 170.052 15.9701C170.224 18.2146 168.498 20.1137 166.253 20.1137H140.529C138.543 20.1137 136.73 18.6462 136.558 16.6607C136.385 14.4163 138.112 12.5171 140.356 12.5171H166.081ZM182.31 12.5171C184.295 12.5171 186.108 13.9846 186.281 15.9701C186.453 18.2146 184.727 20.1137 182.483 20.1137H176.094C174.109 20.1137 172.296 18.6462 172.124 16.6607C171.951 14.4163 173.677 12.5171 175.922 12.5171H182.31ZM201.819 17.3513L225.127 38.3283C225.818 38.9325 225.386 40.1411 224.436 40.1411H201.129C200.524 40.1411 200.093 39.7094 200.093 39.1052V18.1282C200.093 17.524 200.611 17.0923 201.129 17.0923C201.388 17.006 201.647 17.0923 201.819 17.3513ZM148.557 22.3581C150.542 22.3581 152.355 23.8257 152.528 25.8111C152.7 28.0556 150.974 29.9547 148.729 29.9547H123.954C121.969 29.9547 120.156 28.4872 119.983 26.5017C119.811 24.2573 121.537 22.3581 123.782 22.3581H148.557ZM182.224 22.3581C184.209 22.3581 186.022 23.8257 186.195 25.8111C186.367 28.0556 184.641 29.9547 182.396 29.9547H157.621C155.635 29.9547 153.823 28.4872 153.65 26.5017C153.477 24.2573 155.204 22.3581 157.448 22.3581H182.224ZM182.224 32.3718C184.209 32.3718 186.022 33.8394 186.195 35.8248C186.367 38.0693 184.641 39.9684 182.396 39.9684H123.695C121.71 39.9684 119.897 38.5009 119.724 36.5154C119.552 34.271 121.278 32.3718 123.523 32.3718H182.224ZM187.23 42.2129V47.306H119.12V42.2992H187.23V42.2129Z" fill="url(#paint0_linear)"/>
<defs>
<linearGradient id="paint0_linear" x1="267.603" y1="30.5708" x2="77.2214" y2="30.5708" gradientUnits="userSpaceOnUse">
<stop stop-color="#008DD2"/>
<stop offset="1" stop-color="#003C5F"/>
</linearGradient>
</defs>
</svg>
