<svg width="326" height="130" viewBox="0 0 326 130" fill="none" xmlns="http://www.w3.org/2000/svg">
<path d="M275.808 81.9764V66.7832C275.808 65.9199 276.499 65.2293 277.362 65.2293H283.75C285.822 65.2293 287.807 66.0063 289.361 67.2148C290.915 68.5097 292.037 70.2362 292.469 72.308L294.023 79.8182C294.109 80.0772 294.109 80.2499 294.109 80.4225C294.109 81.1131 293.85 81.8037 293.418 82.3217C292.987 82.8396 292.382 83.2712 291.692 83.3576C291.433 83.4439 291.26 83.4439 291.088 83.4439H277.534C276.499 83.5302 275.808 82.8396 275.808 81.9764ZM9.84104 126.52C10.7043 126.52 11.3949 127.211 11.3949 128.074C11.3949 128.937 10.7043 129.628 9.84104 129.628H1.55385C0.690599 129.628 0 128.937 0 128.074C0 127.211 0.690599 126.52 1.55385 126.52H9.84104ZM46.1838 126.52C47.0471 126.52 47.7377 127.211 47.7377 128.074C47.7377 128.937 47.0471 129.628 46.1838 129.628H16.4881C15.6248 129.628 14.9342 128.937 14.9342 128.074C14.9342 127.211 15.6248 126.52 16.4881 126.52H46.1838ZM324.409 126.52C325.272 126.52 325.963 127.211 325.963 128.074C325.963 128.937 325.272 129.628 324.409 129.628H53.0898C52.2266 129.628 51.536 128.937 51.536 128.074C51.536 127.211 52.2266 126.52 53.0898 126.52H66.3838C63.6214 126.52 61.0317 125.398 59.2189 123.585C57.406 121.772 56.2838 119.182 56.2838 116.42C56.2838 113.658 57.406 111.068 59.2189 109.255C61.0317 107.442 63.6214 106.32 66.3838 106.32C69.1462 106.32 71.736 107.442 73.5488 109.255C75.3616 111.068 76.4838 113.658 76.4838 116.42C76.4838 119.182 75.3616 121.772 73.5488 123.585C71.736 125.398 69.1462 126.52 66.3838 126.52H95.5616C92.7992 126.52 90.2095 125.398 88.3967 123.585C86.5839 121.772 85.4616 119.182 85.4616 116.42C85.4616 113.658 86.5839 111.068 88.3967 109.255C90.2095 107.442 92.7992 106.32 95.5616 106.32C98.324 106.32 100.914 107.442 102.727 109.255C104.539 111.068 105.662 113.658 105.662 116.42C105.662 119.182 104.539 121.772 102.727 123.585C100.914 125.398 98.324 126.52 95.5616 126.52H204.158C201.396 126.52 198.806 125.398 196.993 123.585C195.181 121.772 194.058 119.182 194.058 116.42C194.058 113.658 195.181 111.068 196.993 109.255C198.806 107.442 201.396 106.32 204.158 106.32C206.921 106.32 209.51 107.442 211.323 109.255C213.136 111.068 214.258 113.658 214.258 116.42C214.258 119.182 213.136 121.772 211.323 123.585C209.51 125.398 206.921 126.52 204.158 126.52H273.046C270.283 126.52 267.693 125.398 265.881 123.585C264.068 121.772 262.946 119.182 262.946 116.42C262.946 113.658 264.068 111.068 265.881 109.255C267.693 107.442 270.283 106.32 273.046 106.32C275.808 106.32 278.398 107.442 280.211 109.255C282.023 111.068 283.146 113.658 283.146 116.42C283.146 119.182 282.023 121.772 280.211 123.585C278.398 125.398 275.808 126.52 273.046 126.52H324.409ZM278.398 116.334C278.398 117.801 277.793 119.182 276.758 120.218C275.808 121.168 274.427 121.858 272.873 121.858C271.319 121.858 270.024 121.254 268.988 120.218C268.039 119.269 267.348 117.888 267.348 116.334C267.348 114.866 267.952 113.485 268.988 112.449C269.938 111.499 271.319 110.809 272.873 110.809C274.427 110.809 275.722 111.413 276.758 112.449L276.844 112.535C277.793 113.571 278.398 114.866 278.398 116.334ZM274.599 117.974C275.031 117.542 275.29 116.938 275.29 116.247C275.29 115.643 275.031 115.039 274.686 114.607L274.599 114.521C274.168 114.089 273.564 113.83 272.873 113.83C272.182 113.83 271.578 114.089 271.146 114.521C270.715 114.952 270.456 115.557 270.456 116.247C270.456 116.938 270.715 117.542 271.146 117.974C271.578 118.405 272.182 118.664 272.873 118.664C273.564 118.751 274.168 118.405 274.599 117.974ZM277.966 121.341C279.261 120.046 280.038 118.319 280.038 116.334C280.038 114.435 279.261 112.622 277.966 111.327C276.671 110.032 274.945 109.255 272.959 109.255C271.06 109.255 269.247 110.032 267.952 111.327C266.658 112.622 265.881 114.348 265.881 116.334C265.881 118.233 266.658 120.046 267.952 121.341C269.247 122.635 270.974 123.412 272.959 123.412C274.858 123.412 276.671 122.635 277.966 121.341ZM71.736 116.334C71.736 117.888 71.1317 119.182 70.0958 120.218C69.0599 121.254 67.765 121.858 66.2112 121.858C64.7437 121.858 63.3625 121.254 62.3266 120.218C61.2907 119.182 60.6864 117.888 60.6864 116.334C60.6864 114.78 61.2907 113.485 62.3266 112.449L62.4129 112.363C63.3625 111.413 64.7437 110.809 66.2112 110.809C67.765 110.809 69.0599 111.413 70.0958 112.449L70.1821 112.535C71.218 113.571 71.736 114.866 71.736 116.334ZM68.024 117.974C68.4556 117.542 68.7146 116.938 68.7146 116.247C68.7146 115.643 68.4556 115.039 68.1103 114.607L68.024 114.521C67.5924 114.089 66.9881 113.83 66.2975 113.83C65.6932 113.83 65.089 114.089 64.6573 114.435L64.571 114.521C64.1394 114.952 63.8804 115.557 63.8804 116.247C63.8804 116.938 64.1394 117.542 64.571 117.974C65.0026 118.405 65.6069 118.664 66.2975 118.664C66.9881 118.751 67.5924 118.405 68.024 117.974ZM71.3044 121.341C72.5992 120.046 73.3762 118.319 73.3762 116.334C73.3762 114.435 72.5992 112.622 71.3044 111.327C70.0095 110.032 68.283 109.255 66.2975 109.255C64.3984 109.255 62.5855 110.032 61.2907 111.327C59.9958 112.622 59.2189 114.348 59.2189 116.334C59.2189 118.233 59.9958 120.046 61.2907 121.341C62.5855 122.635 64.312 123.412 66.2975 123.412C68.283 123.412 70.0958 122.635 71.3044 121.341ZM100.914 116.334C100.914 117.888 100.31 119.182 99.2736 120.218V120.305C98.324 121.254 96.9428 121.858 95.4753 121.858C93.9215 121.858 92.6266 121.254 91.5907 120.218L91.5044 120.132C90.5548 119.182 89.9505 117.801 89.9505 116.334C89.9505 114.866 90.5548 113.485 91.5907 112.449C92.5403 111.499 93.9215 110.809 95.4753 110.809C96.9428 110.809 98.324 111.413 99.3599 112.449C100.31 113.485 100.914 114.78 100.914 116.334ZM97.1155 117.974C97.5471 117.542 97.8061 116.938 97.8061 116.247C97.8061 115.557 97.5471 114.952 97.1155 114.521C96.6839 114.089 96.0796 113.83 95.389 113.83C94.6984 113.83 94.0941 114.089 93.6625 114.521C93.2309 114.952 92.9719 115.557 92.9719 116.247C92.9719 116.852 93.2309 117.456 93.5762 117.888L93.6625 117.974C94.0941 118.405 94.6984 118.664 95.389 118.664C96.0796 118.751 96.6839 118.492 97.1155 117.974ZM100.482 121.341C101.777 120.046 102.554 118.319 102.554 116.334C102.554 114.435 101.777 112.622 100.482 111.327C99.1873 110.032 97.4608 109.255 95.4753 109.255C93.5762 109.255 91.7634 110.032 90.4685 111.327C89.1736 112.622 88.3967 114.348 88.3967 116.334C88.3967 118.233 89.1736 120.046 90.4685 121.341C91.7634 122.635 93.4898 123.412 95.4753 123.412C97.4608 123.412 99.1873 122.635 100.482 121.341ZM209.51 116.334C209.51 117.801 208.906 119.182 207.87 120.218C206.921 121.168 205.54 121.858 203.986 121.858C202.432 121.858 201.137 121.254 200.101 120.218C199.152 119.269 198.461 117.888 198.461 116.334C198.461 114.866 199.065 113.485 200.101 112.449C201.051 111.499 202.432 110.809 203.986 110.809C205.54 110.809 206.834 111.413 207.87 112.449L207.957 112.535C208.906 113.571 209.51 114.866 209.51 116.334ZM205.712 117.974C206.144 117.542 206.403 116.938 206.403 116.247C206.403 115.643 206.144 115.039 205.799 114.607L205.712 114.521C205.281 114.089 204.676 113.83 203.986 113.83C203.295 113.83 202.691 114.089 202.259 114.521C201.828 114.952 201.569 115.557 201.569 116.247C201.569 116.938 201.828 117.542 202.259 117.974C202.691 118.405 203.295 118.664 203.986 118.664C204.676 118.751 205.281 118.405 205.712 117.974ZM209.079 121.341C210.374 120.046 211.151 118.319 211.151 116.334C211.151 114.435 210.374 112.622 209.079 111.327C207.784 110.032 206.057 109.255 204.072 109.255C202.173 109.255 200.36 110.032 199.065 111.327C197.77 112.622 196.993 114.348 196.993 116.334C196.993 118.233 197.77 120.046 199.065 121.341C200.36 122.635 202.087 123.412 204.072 123.412C206.057 123.412 207.784 122.635 209.079 121.341ZM278.916 68.2507V80.3362H290.915C290.397 77.8328 289.965 75.3293 289.361 72.8259C289.102 71.4447 288.325 70.3225 287.376 69.5456C286.34 68.7687 285.131 68.2507 283.75 68.2507H278.916ZM292.987 118.751H293.159C294.195 118.664 295.145 118.233 295.835 117.542C296.526 116.852 296.958 115.902 296.958 114.866V114.693L295.317 77.6601C294.799 71.5311 292.21 66.0926 288.325 61.949C284.527 57.978 279.347 55.3883 273.477 54.8703L250.687 52.9712C250.515 52.9712 250.342 53.0575 250.256 53.1438C250.17 53.2302 250.083 53.4028 250.083 53.5755L249.306 99.673C249.306 100.536 248.616 101.227 247.752 101.227H212.532C211.669 101.227 210.978 100.536 210.978 99.673V95.0114C210.978 94.1482 211.669 93.4576 212.532 93.4576H231.005V71.79H228.329V88.7097C228.329 89.5729 227.639 90.2635 226.775 90.2635H180.333L172.995 101.14C172.65 101.658 172.132 101.831 171.614 101.831L74.412 101.745H36.0838L33.2351 106.752H45.7522C46.3565 106.752 46.8744 107.097 47.1334 107.615L49.9821 112.276H51.7086C52.0539 112.276 52.3129 112.19 52.5719 112.017C52.8308 111.845 53.0898 111.586 53.1761 111.24C53.4351 110.55 53.7804 109.859 54.212 109.169C54.6437 108.478 55.0753 107.874 55.5932 107.27C56.8881 105.716 58.5283 104.507 60.3411 103.644C62.1539 102.781 64.1394 102.349 66.2112 102.349C68.283 102.349 70.2685 102.781 72.0813 103.644C73.8941 104.507 75.5343 105.716 76.8291 107.27C77.2608 107.787 77.6924 108.392 78.124 108.996C78.4693 109.6 78.8146 110.205 79.0736 110.895V110.982C79.2462 111.327 79.5052 111.672 79.8505 111.845C80.1958 112.017 80.5411 112.19 80.8864 112.19H80.9727C81.4044 112.19 81.7497 112.104 82.0086 111.845C82.3539 111.586 82.6129 111.327 82.7856 110.895C83.0445 110.205 83.4762 109.6 83.8215 108.91C84.2531 108.305 84.6847 107.701 85.2027 107.097C86.4975 105.629 88.1377 104.507 89.8642 103.73C91.5907 102.953 93.4898 102.522 95.4753 102.522C97.4608 102.522 99.3599 102.953 101.086 103.73C102.899 104.507 104.453 105.716 105.748 107.097C106.266 107.615 106.698 108.219 107.129 108.823C107.561 109.428 107.906 110.118 108.165 110.723C108.338 111.154 108.683 111.499 109.028 111.758C109.374 112.017 109.719 112.104 110.151 112.104H112.395L116.107 107.183C116.452 106.752 116.884 106.579 117.316 106.579H175.24L184.045 93.8892C184.304 93.4576 184.822 93.1986 185.34 93.1986H202C202.863 93.1986 203.554 93.8892 203.554 94.7524V99.414C203.554 100.277 202.863 100.968 202 100.968H193.627C192.332 100.968 191.123 101.486 190.26 102.349C189.397 103.212 188.879 104.421 188.879 105.716V118.492H188.965C189.138 118.492 189.31 118.405 189.397 118.319H189.483C189.569 118.233 189.656 118.06 189.656 117.888V117.024C189.656 113.053 191.296 109.428 193.886 106.752C196.475 104.076 200.101 102.435 204.072 102.349C204.331 102.349 204.245 102.349 204.331 102.349C208.388 102.349 212.014 104.076 214.69 106.752C217.366 109.428 219.006 113.14 219.093 117.111C219.093 117.37 219.093 117.283 219.093 117.37V118.492H257.939V115.125C257.939 111.154 259.579 107.529 262.169 104.852C264.758 102.176 268.384 100.536 272.355 100.45C272.7 100.45 272.528 100.45 272.614 100.45C276.671 100.45 280.297 102.176 282.973 104.852C285.649 107.529 287.289 111.241 287.376 115.211C287.376 115.47 287.376 115.384 287.376 115.47V118.664L292.987 118.751ZM293.332 121.772H292.987H285.735C284.872 121.772 284.182 121.082 284.182 120.218V115.47C284.182 115.125 284.182 115.384 284.182 115.211C284.095 112.017 282.8 109.082 280.642 106.924C278.57 104.766 275.635 103.471 272.528 103.471C272.269 103.471 272.441 103.471 272.269 103.471C269.075 103.558 266.226 104.852 264.24 106.924C262.169 108.996 260.96 111.845 260.96 115.039V120.132C260.96 120.995 260.27 121.686 259.406 121.686H217.452C216.589 121.686 215.899 120.995 215.899 120.132V117.456C215.899 117.111 215.899 117.37 215.899 117.197C215.812 114.003 214.517 111.068 212.359 108.91C210.287 106.752 207.352 105.457 204.245 105.457C203.986 105.457 204.158 105.457 204.072 105.457C200.878 105.543 198.029 106.838 196.044 108.91C193.972 110.982 192.763 113.83 192.763 117.024V117.888C192.763 118.837 192.418 119.787 191.728 120.391L191.641 120.477C190.951 121.168 190.001 121.599 188.965 121.599H187.325C186.462 121.599 185.771 120.909 185.771 120.046V105.716C185.771 103.558 186.634 101.572 188.102 100.105C189.569 98.6371 191.469 97.7738 193.713 97.7738H200.533V96.22H186.203L177.398 109.082C177.139 109.514 176.621 109.859 176.016 109.859H118.179L114.553 114.693C114.294 115.125 113.776 115.384 113.258 115.384H110.237C109.201 115.384 108.251 115.039 107.388 114.521C106.525 114.003 105.921 113.14 105.489 112.19C105.23 111.672 104.971 111.154 104.626 110.723C104.28 110.205 103.935 109.773 103.59 109.341C102.554 108.219 101.345 107.356 99.9642 106.752C98.583 106.147 97.1155 105.802 95.5616 105.802C94.0078 105.802 92.5403 106.147 91.1591 106.752C89.7779 107.356 88.483 108.305 87.5334 109.341C87.1018 109.773 86.7565 110.205 86.4975 110.723C86.1522 111.24 85.8933 111.672 85.6343 112.276C85.2027 113.226 84.5984 114.003 83.7351 114.521C82.9582 115.039 82.0086 115.384 80.9727 115.384H80.8864C79.8505 115.384 78.9009 115.039 78.0377 114.521C77.2608 114.003 76.6565 113.226 76.2249 112.363L76.1385 112.276C75.9659 111.758 75.7069 111.24 75.3616 110.809C75.0163 110.291 74.7573 109.859 74.3257 109.428C73.2898 108.219 72.0813 107.27 70.6138 106.579C69.2326 105.975 67.6787 105.629 66.0385 105.629C64.3984 105.629 62.8445 105.975 61.4633 106.579C59.9958 107.27 58.7872 108.219 57.7513 109.428C57.406 109.859 56.9744 110.377 56.7154 110.895C56.3701 111.413 56.1112 111.931 55.9385 112.535C55.5932 113.399 54.9889 114.176 54.212 114.693C53.4351 115.211 52.5719 115.557 51.536 115.557H48.9462C48.4283 115.557 47.9103 115.298 47.6513 114.78L44.7163 110.032H30.559C30.3 110.032 30.0411 109.946 29.7821 109.859C29.0052 109.428 28.7462 108.478 29.1778 107.787L33.753 99.7593C34.012 99.2413 34.53 98.896 35.1342 98.896H74.3257L170.751 98.9824L178.088 88.1918C178.347 87.7601 178.865 87.4148 179.383 87.4148H225.049V70.2362C225.049 69.3729 225.74 68.6823 226.603 68.6823H232.387C233.25 68.6823 233.94 69.3729 233.94 70.2362V95.0114C233.94 95.8747 233.25 96.5653 232.387 96.5653H213.913V98.1191H246.026L246.717 53.5755C246.717 52.5396 247.148 51.6763 247.839 50.9857C248.529 50.2951 249.393 49.9498 250.428 49.9498H250.515L273.391 51.849C280.124 52.3669 285.908 55.3883 290.224 59.8772C294.627 64.4524 297.476 70.5815 298.08 77.4011C298.08 77.4875 298.08 77.4875 298.08 77.5738L299.72 114.607V114.952C299.72 116.852 298.943 118.492 297.735 119.787C296.871 120.909 295.231 121.686 293.332 121.772Z" fill="#374148"/>
<path d="M195.793 72.9696V38.647C195.793 37.8794 195.138 37.3311 194.484 37.3311H190.555C189.901 37.3311 189.464 36.8925 189.246 36.3442C188.482 33.6028 185.973 31.629 183.027 31.629H173.425C172.661 31.629 172.115 30.971 172.115 30.3131V16.935C172.115 14.9611 170.479 13.3163 168.515 13.3163H137.308C136.436 13.3163 135.781 13.9742 135.781 14.8515V30.2034C135.781 31.0807 135.126 31.7386 134.253 31.7386H129.78C128.907 31.7386 128.252 32.3966 128.252 33.2738V37.4408V45.5554C128.252 46.4326 127.597 47.0906 126.725 47.0906H121.596C120.505 47.0906 119.741 45.994 120.287 44.8974L138.072 6.51758C138.29 5.96929 138.945 5.53067 139.6 5.53067H176.916C177.789 5.53067 178.553 4.76307 178.553 3.88582V2.46028C178.553 1.58303 177.789 0.81543 176.916 0.81543H134.799C133.271 0.81543 131.853 1.47338 130.871 2.56994L121.596 13.3163C121.051 13.9742 120.178 14.4129 119.196 14.4129L29.287 14.1935C28.305 14.1935 27.323 14.6322 26.7774 15.3998L17.0664 28.0103C15.6479 29.7648 16.5208 32.5062 18.7031 33.0545L55.1467 42.9236L69.2222 46.7616L80.4608 49.832C80.6791 49.9416 80.8973 49.9416 81.0064 50.1609C81.6611 50.8189 82.2066 51.4768 82.8613 52.1348C83.516 52.9024 82.9704 54.2182 81.8793 54.2182H77.733C77.4057 54.2182 77.1875 54.1086 76.9692 53.8893C72.1683 49.7223 65.7306 47.3099 58.7474 47.7485C46.0904 48.5161 35.7247 58.9335 34.9609 71.6537C34.088 86.567 45.763 98.8485 60.3841 98.8485C73.805 98.8485 84.9344 88.2118 85.8074 74.8337C85.9165 73.8468 86.6802 73.0792 87.6623 73.0792H88.426C89.0807 73.0792 89.6263 73.6275 89.6263 74.2854V78.1234C89.6263 79.3296 90.6083 80.2069 91.6994 80.2069H122.469C124.324 80.2069 125.852 78.6717 125.852 76.8075V70.4474C125.852 66.3901 126.725 63.5391 128.252 60.0301C129.452 57.2886 131.089 54.8762 133.053 52.6831C138.291 46.8713 145.928 43.2526 154.548 43.2526C170.37 43.2526 183.245 55.9728 183.245 71.544V72.7502C183.245 73.6275 183.9 74.2854 184.772 74.2854H194.156C195.138 74.5047 195.793 73.8468 195.793 72.9696ZM155.639 25.9268V18.0315C155.639 17.0446 156.403 16.277 157.385 16.277H167.314C168.296 16.277 169.06 17.0446 169.06 18.0315V25.9268C169.06 26.9137 168.296 27.6813 167.314 27.6813H157.385C156.403 27.6813 155.639 26.9137 155.639 25.9268ZM23.6132 31.5193L35.3973 16.4963L38.1251 16.606L26.2319 32.3966L23.6132 31.5193ZM29.7235 33.0545L42.4897 16.7157H45.6539L32.6695 33.8221L29.7235 33.0545ZM43.799 36.5635L58.8565 17.1543H62.4573L47.0724 37.4408L43.799 36.5635ZM36.1611 34.9187L50.0184 17.1543H53.51L39.2163 35.6863L36.1611 34.9187ZM49.0364 71.3247C49.8002 66.6095 53.51 62.8811 58.2019 62.1135C65.8397 60.7976 72.3865 67.3771 71.1863 75.1627C70.4225 79.8779 66.7126 83.6062 62.0208 84.3738C61.3661 84.4835 60.7115 84.4835 60.1659 84.4835C53.2918 84.4835 47.9453 78.4524 49.0364 71.3247ZM129.016 73.5178C129.016 87.6636 140.473 99.0679 154.439 99.0679C168.515 99.0679 179.862 87.5539 179.862 73.5178C179.862 59.3721 168.406 47.9678 154.439 47.9678C140.473 47.9678 129.016 59.3721 129.016 73.5178ZM142.982 73.2985C142.982 67.0481 148.002 62.0039 154.221 62.0039C160.44 62.0039 165.46 67.0481 165.46 73.2985C165.46 79.549 160.44 84.5932 154.221 84.5932C148.002 84.5932 142.982 79.549 142.982 73.2985Z" fill="url(#paint0_linear)"/>
<defs>
<linearGradient id="paint0_linear" x1="16.3712" y1="50.0302" x2="195.822" y2="50.0302" gradientUnits="userSpaceOnUse">
<stop stop-color="#008DD2"/>
<stop offset="1" stop-color="#003C5F"/>
</linearGradient>
</defs>
</svg>
