<svg width="662" height="260" viewBox="0 0 662 260" fill="none" xmlns="http://www.w3.org/2000/svg">
<path d="M359 168H534" stroke="#2C373D" stroke-width="3" stroke-miterlimit="10" stroke-linecap="round" stroke-linejoin="round"/>
<path d="M596.271 127.38L560.596 169.426C558.947 171.345 557.992 173.613 557.645 176.143L556.429 186H171.99C171.209 186 170.601 185.389 170.601 184.604V171.781C170.601 171.694 170.601 171.519 170.515 171.519L154.37 128.95C152.981 125.199 155.672 121.274 159.664 121.274H173.205C173.987 121.274 174.594 120.663 174.594 119.878V86.7296C174.594 85.9445 175.202 85.3339 175.983 85.3339H187.875C188.656 85.3339 189.263 84.7232 189.263 83.9381V77.3957C189.263 76.6106 189.871 76 190.652 76H197.162C197.943 76 198.551 76.6106 198.551 77.3957V83.9381C198.551 84.7232 199.159 85.3339 199.94 85.3339H244.208C244.989 85.3339 245.597 85.9445 245.597 86.7296V119.878C245.597 120.663 246.205 121.274 246.986 121.274H256.707C257.402 121.274 258.009 121.797 258.009 122.495C258.617 129.037 264.172 134.184 270.856 134.184H513.55C520.234 134.184 525.789 129.037 526.397 122.495C526.483 121.797 527.004 121.274 527.699 121.274H593.32C596.271 121.186 598.094 124.763 596.271 127.38Z" stroke="#2C373D" stroke-width="3" stroke-miterlimit="10" stroke-linejoin="round"/>
<path d="M579.5 132C579.5 133.933 577.933 135.5 576 135.5C574.067 135.5 572.5 133.933 572.5 132C572.5 130.067 574.067 128.5 576 128.5C577.933 128.5 579.5 130.067 579.5 132Z" stroke="#2C373D" stroke-width="3"/>
<path d="M372.909 114.029H334.509C333.468 114.029 332.688 114.895 332.688 115.847V129.182C332.688 130.221 333.555 131.001 334.509 131.001H372.909C373.949 131.001 374.729 130.135 374.729 129.182V115.847C374.816 114.895 373.949 114.029 372.909 114.029ZM327.314 94.2H288.914C287.874 94.2 287.094 95.0659 287.094 96.0183V109.353C287.094 110.392 287.961 111.172 288.914 111.172H327.314C328.354 111.172 329.134 110.306 329.134 109.353V96.0183C329.134 94.9793 328.354 94.2 327.314 94.2ZM372.909 94.2H334.509C333.468 94.2 332.688 95.0659 332.688 96.0183V109.353C332.688 110.392 333.555 111.172 334.509 111.172H372.909C373.949 111.172 374.729 110.306 374.729 109.353V96.0183C374.816 94.9793 373.949 94.2 372.909 94.2ZM327.314 114.029H288.914C287.874 114.029 287.094 114.895 287.094 115.847V129.182C287.094 130.221 287.961 131.001 288.914 131.001H327.314C328.354 131.001 329.134 130.135 329.134 129.182V115.847C329.134 114.895 328.354 114.029 327.314 114.029ZM498.857 94.2H480.221C479.18 94.2 478.4 95.0659 478.4 96.0183V129.182C478.4 130.221 479.267 131.001 480.221 131.001H498.857C499.897 131.001 500.678 130.135 500.678 129.182V96.0183C500.678 94.9793 499.897 94.2 498.857 94.2ZM472.333 94.2H453.696C452.656 94.2 451.876 95.0659 451.876 96.0183V129.182C451.876 130.221 452.743 131.001 453.696 131.001H472.333C473.373 131.001 474.153 130.135 474.153 129.182V96.0183C474.153 94.9793 473.373 94.2 472.333 94.2ZM445.548 94.2H426.911C425.871 94.2 425.091 95.0659 425.091 96.0183V129.182C425.091 130.221 425.958 131.001 426.911 131.001H445.548C446.588 131.001 447.368 130.135 447.368 129.182V96.0183C447.455 94.9793 446.588 94.2 445.548 94.2ZM418.763 94.2H380.363C379.323 94.2 378.543 95.0659 378.543 96.0183V109.353C378.543 110.392 379.41 111.172 380.363 111.172H418.763C419.803 111.172 420.584 110.306 420.584 109.353V96.0183C420.584 94.9793 419.717 94.2 418.763 94.2ZM418.763 114.029H380.363C379.323 114.029 378.543 114.895 378.543 115.847V129.182C378.543 130.221 379.41 131.001 380.363 131.001H418.763C419.803 131.001 420.584 130.135 420.584 129.182V115.847C420.584 114.895 419.717 114.029 418.763 114.029Z" fill="url(#paint0_linear)"/>
<path d="M240 92H233V99H240V92Z" stroke="#2C373D" stroke-width="3" stroke-miterlimit="10" stroke-linejoin="round"/>
<path d="M229 92H222V99H229V92Z" stroke="#2C373D" stroke-width="3" stroke-miterlimit="10" stroke-linejoin="round"/>
<path d="M218 92H211V99H218V92Z" stroke="#2C373D" stroke-width="3" stroke-miterlimit="10" stroke-linejoin="round"/>
<path d="M207 92H200V99H207V92Z" stroke="#2C373D" stroke-width="3" stroke-miterlimit="10" stroke-linejoin="round"/>
<path d="M291 227.852L284.925 236.889H243.875L239.189 243H235.804C234.155 243 232.68 241.967 232.072 240.504C231.465 239.213 230.684 237.922 229.642 236.889C227.125 234.135 223.394 232.328 219.315 232.328C215.236 232.328 211.591 234.049 208.987 236.889C207.946 238.008 207.165 239.213 206.557 240.59C205.95 242.053 204.561 243 202.912 243H202.825C201.176 243 199.788 241.967 199.18 240.504C198.66 239.213 197.879 237.922 196.924 236.889C194.407 233.877 190.588 232.07 186.336 232.07C182.083 232.07 178.265 233.963 175.748 236.889C174.793 238.008 173.926 239.385 173.405 240.762C172.884 242.139 171.582 243 170.107 243H167.243L163.424 236.889H136V227.852H184.253V222H195.535V227.852H272.515V222H283.363V227.852H291V227.852Z" stroke="#2C373D" stroke-width="3" stroke-miterlimit="10" stroke-linejoin="round"/>
<path d="M323 224H311V226H323V224Z" fill="#2C373D"/>
<path d="M421.191 244C421.364 247.464 418.59 250.408 415.036 250.408H406.888V245.039C406.888 236.813 400.127 229.799 391.892 229.973C383.917 230.146 377.416 236.64 377.416 244.693V250.408H330.348V247.377C330.348 239.151 323.587 232.137 315.352 232.224C307.377 232.397 300.876 238.891 300.876 246.944V247.897C300.876 249.282 299.749 250.321 298.449 250.321H296.629V234.302C296.629 230.406 299.836 227.202 303.737 227.202H313.098H324.8H364.241L365.107 175.594C365.107 174.295 366.234 173.17 367.535 173.17L393.192 175.248C407.582 176.46 418.07 187.977 419.284 202.35L421.191 244ZM412.696 207.546C413.823 207.546 414.603 206.507 414.429 205.468L412.696 197.068C411.916 193.259 408.535 190.488 404.721 190.488H397.526V207.546H412.696Z" fill="white"/>
<path d="M414.429 205.468C414.689 206.507 413.822 207.546 412.695 207.546H397.526V190.488H404.72C408.621 190.488 411.915 193.259 412.695 197.069L414.429 205.468Z" fill="white"/>
<path d="M415.122 250.408C418.59 250.408 421.45 247.464 421.277 244.001L419.37 202.524C418.069 188.237 407.581 176.634 393.279 175.422L367.621 173.344C366.321 173.344 365.194 174.383 365.194 175.768L364.327 227.376H324.887H313.185H303.823C299.922 227.376 296.715 230.579 296.715 234.476V250.495H298.535C299.922 250.495 300.963 249.369 300.963 248.07V247.118C300.963 239.065 307.377 232.571 315.438 232.398C323.673 232.225 330.434 239.238 330.434 247.551V250.582H377.502V244.867C377.502 236.814 383.917 230.32 391.978 230.146C400.213 229.973 406.974 236.987 406.974 245.213V250.495H415.122V250.408Z" stroke="#2C373D" stroke-width="3" stroke-miterlimit="10" stroke-linejoin="round"/>
<path d="M397.526 207.546V190.488H404.72C408.621 190.488 411.915 193.259 412.695 197.069L414.429 205.468C414.689 206.507 413.822 207.546 412.695 207.546H397.526Z" stroke="#2C373D" stroke-width="3" stroke-miterlimit="10" stroke-linejoin="round"/>
<path d="M315.5 256C320.747 256 325 251.523 325 246C325 240.477 320.747 236 315.5 236C310.253 236 306 240.477 306 246C306 251.523 310.253 256 315.5 256Z" stroke="#2C373D" stroke-width="3" stroke-miterlimit="10" stroke-linejoin="round"/>
<path d="M315.5 250.469C317.985 250.469 320 248.455 320 245.969C320 243.484 317.985 241.469 315.5 241.469C313.015 241.469 311 243.484 311 245.969C311 248.455 313.015 250.469 315.5 250.469Z" stroke="#2C373D" stroke-width="3" stroke-miterlimit="10" stroke-linejoin="round"/>
<path d="M392.5 256C397.747 256 402 251.523 402 246C402 240.477 397.747 236 392.5 236C387.253 236 383 240.477 383 246C383 251.523 387.253 256 392.5 256Z" stroke="#2C373D" stroke-width="3" stroke-miterlimit="10" stroke-linejoin="round"/>
<path d="M392.5 250.469C394.985 250.469 397 248.455 397 245.969C397 243.484 394.985 241.469 392.5 241.469C390.015 241.469 388 243.484 388 245.969C388 248.455 390.015 250.469 392.5 250.469Z" stroke="#2C373D" stroke-width="3" stroke-miterlimit="10" stroke-linejoin="round"/>
<path d="M356.787 155H138.126C136.389 155 135 156.397 135 158.144V220.856C135 222.603 136.389 224 138.126 224H183.283H282.54H311.804H323.528H356.874C358.611 224 360 222.603 360 220.856V158.144C360 156.397 358.524 155 356.787 155ZM194.572 224H271.685H194.572Z" fill="url(#paint1_linear)"/>
<path d="M145.881 212H143.119C142.522 212 142 211.399 142 210.712V162.288C142 161.601 142.522 161 143.119 161H145.881C146.478 161 147 161.601 147 162.288V210.712C147 211.399 146.552 212 145.881 212Z" fill="white"/>
<path d="M158.657 212H155.343C154.627 212 154 211.399 154 210.712V162.288C154 161.601 154.627 161 155.343 161H158.657C159.373 161 160 161.601 160 162.288V210.712C160 211.399 159.373 212 158.657 212Z" fill="white"/>
<path d="M170.657 212H167.343C166.627 212 166 211.399 166 210.712V162.288C166 161.601 166.627 161 167.343 161H170.657C171.373 161 172 161.601 172 162.288V210.712C172 211.399 171.373 212 170.657 212Z" fill="white"/>
<path d="M183.657 212H180.343C179.627 212 179 211.399 179 210.712V162.288C179 161.601 179.627 161 180.343 161H183.657C184.373 161 185 161.601 185 162.288V210.712C185 211.399 184.463 212 183.657 212Z" fill="white"/>
<path d="M196.657 213H193.343C192.627 213 192 212.387 192 211.687V162.313C192 161.613 192.627 161 193.343 161H196.657C197.373 161 198 161.613 198 162.313V211.687C198 212.475 197.373 213 196.657 213Z" fill="white"/>
<path d="M209.657 212H206.343C205.627 212 205 211.399 205 210.712V162.288C205 161.601 205.627 161 206.343 161H209.657C210.373 161 211 161.601 211 162.288V210.712C211 211.399 210.373 212 209.657 212Z" fill="white"/>
<path d="M222.881 212H220.119C219.522 212 219 211.399 219 210.712V162.288C219 161.601 219.522 161 220.119 161H222.881C223.478 161 224 161.601 224 162.288V210.712C224 211.399 223.478 212 222.881 212Z" fill="white"/>
<path d="M235.881 212H233.119C232.522 212 232 211.399 232 210.712V162.288C232 161.601 232.522 161 233.119 161H235.881C236.478 161 237 161.601 237 162.288V210.712C237 211.399 236.478 212 235.881 212Z" fill="white"/>
<path d="M249.657 212H246.343C245.627 212 245 211.399 245 210.712V162.288C245 161.601 245.627 161 246.343 161H249.657C250.373 161 251 161.601 251 162.288V210.712C251 211.399 250.373 212 249.657 212Z" fill="white"/>
<path d="M261.657 213H258.343C257.627 213 257 212.387 257 211.687V162.313C257 161.613 257.627 161 258.343 161H261.657C262.373 161 263 161.613 263 162.313V211.687C263 212.475 262.373 213 261.657 213Z" fill="white"/>
<path d="M274.657 212H271.343C270.627 212 270 211.399 270 210.712V162.288C270 161.601 270.627 161 271.343 161H274.657C275.373 161 276 161.601 276 162.288V210.712C276 211.399 275.373 212 274.657 212Z" fill="white"/>
<path d="M286.657 213H283.343C282.627 213 282 212.387 282 211.687V162.313C282 161.613 282.627 161 283.343 161H286.657C287.373 161 288 161.613 288 162.313V211.687C288 212.475 287.463 213 286.657 213Z" fill="white"/>
<path d="M299.657 212H296.343C295.627 212 295 211.399 295 210.712V162.288C295 161.601 295.627 161 296.343 161H299.657C300.373 161 301 161.601 301 162.288V210.712C301 211.399 300.373 212 299.657 212Z" fill="white"/>
<path d="M312.657 213H309.343C308.627 213 308 212.387 308 211.687V162.313C308 161.613 308.627 161 309.343 161H312.657C313.373 161 314 161.613 314 162.313V211.687C314 212.475 313.463 213 312.657 213Z" fill="white"/>
<path d="M324.881 212H322.119C321.522 212 321 211.399 321 210.712V162.288C321 161.601 321.522 161 322.119 161H324.881C325.478 161 326 161.601 326 162.288V210.712C326 211.485 325.478 212 324.881 212Z" fill="white"/>
<path d="M337.657 212H334.343C333.627 212 333 211.399 333 210.712V162.288C333 161.601 333.627 161 334.343 161H337.657C338.373 161 339 161.601 339 162.288V210.712C339 211.399 338.373 212 337.657 212Z" fill="white"/>
<path d="M350.657 212H347.343C346.627 212 346 211.399 346 210.712V162.288C346 161.601 346.627 161 347.343 161H350.657C351.373 161 352 161.601 352 162.288V210.712C352 211.485 351.373 212 350.657 212Z" fill="white"/>
<path d="M219.5 256C224.747 256 229 251.523 229 246C229 240.477 224.747 236 219.5 236C214.253 236 210 240.477 210 246C210 251.523 214.253 256 219.5 256Z" stroke="#2C373D" stroke-width="3" stroke-miterlimit="10" stroke-linejoin="round"/>
<path d="M219.5 250.469C221.985 250.469 224 248.455 224 245.969C224 243.484 221.985 241.469 219.5 241.469C217.015 241.469 215 243.484 215 245.969C215 248.455 217.015 250.469 219.5 250.469Z" stroke="#2C373D" stroke-width="3" stroke-miterlimit="10" stroke-linejoin="round"/>
<path d="M186.5 256C191.747 256 196 251.523 196 246C196 240.477 191.747 236 186.5 236C181.253 236 177 240.477 177 246C177 251.523 181.253 256 186.5 256Z" stroke="#2C373D" stroke-width="3" stroke-miterlimit="10" stroke-linejoin="round"/>
<path d="M186.5 250.469C188.985 250.469 191 248.455 191 245.969C191 243.484 188.985 241.469 186.5 241.469C184.015 241.469 182 243.484 182 245.969C182 248.455 184.015 250.469 186.5 250.469Z" stroke="#2C373D" stroke-width="3" stroke-miterlimit="10" stroke-linejoin="round"/>
<path d="M486.397 56.039H441.111C441.111 57.6066 439.812 59 438.254 59H403.359C401.8 59 400.501 57.6937 400.501 56.1261V56.039C400.501 56.039 383.011 56.6487 372.014 53.8619C365.78 52.2072 363.615 51.4234 357.207 48.8979C333.482 39.4054 318.849 35.9219 318.849 35.9219C318.849 35.9219 328.547 34.4414 325.516 27.3003C323.958 23.4685 314 1 314 1L323.265 1.69669C326.902 1.95795 330.192 3.69969 332.963 6.13813C361.623 31.2192 358.939 32.3514 374.525 32.3514C394.354 32.3514 439.812 32.5255 461.806 32.5255C471.331 32.5255 489.254 31.6547 495.142 40.3634L499.905 42.1922C504.147 43.7598 507.265 55.1682 486.397 56.039Z" fill="white" stroke="#2C373D" stroke-width="2" stroke-miterlimit="10" stroke-linejoin="round"/>
<path d="M496 41H485.953C485.433 41 485 40.3333 485 39.5556V37.6667C485 37.3333 485.173 37 485.433 37H492.016" stroke="#2C373D" stroke-width="2" stroke-miterlimit="10" stroke-linejoin="round"/>
<path d="M419.198 49.433L413.91 48.4805V43.8913L419.198 43.0254" fill="white"/>
<path d="M419.198 49.433L413.91 48.4805V43.8913L419.198 43.0254" stroke="#2C373D" stroke-width="2" stroke-miterlimit="10" stroke-linejoin="round"/>
<path d="M433.067 51.6844H423.272C420.325 51.6844 417.984 49.3465 417.984 46.4025C417.984 43.4584 420.325 41.1205 423.272 41.1205H433.067C434.974 41.1205 436.448 42.6791 436.448 44.4975V48.3074C436.534 50.1258 434.974 51.6844 433.067 51.6844Z" fill="white" stroke="#2C373D" stroke-width="2" stroke-miterlimit="10" stroke-linejoin="round"/>
<path d="M430.814 41.0337H424.659V51.5977H430.814V41.0337Z" stroke="#2C373D" stroke-width="2" stroke-miterlimit="10" stroke-linejoin="round"/>
<path d="M383 46.4692L418 32.4692" stroke="#2C373D" stroke-width="2" stroke-miterlimit="10" stroke-linejoin="round"/>
<path d="M353.857 43.0983C354.546 42.9179 355.235 43.0081 355.838 43.1886C359.972 44.9026 374.788 52.2096 390.809 52.1194C392.704 52.1194 394.082 54.104 393.996 55.9984C393.996 55.9984 380.731 56.1789 368.414 52.6607C359.972 50.3152 353.254 47.1578 349.377 45.4438C348.861 45.1732 348.861 44.3613 349.464 44.1809L353.857 43.0983Z" fill="white" stroke="#2C373D" stroke-width="2" stroke-miterlimit="10"/>
<path d="M401 54L402.049 53.1818C403.098 52.3636 404.148 52 405.459 52H433" stroke="#2C373D" stroke-width="2" stroke-miterlimit="10" stroke-linecap="round" stroke-linejoin="round"/>
<path d="M394 42H401.119C401.466 42 401.814 41.907 402.161 41.814L421 34H413.186" stroke="#2C373D" stroke-width="2" stroke-miterlimit="10" stroke-linejoin="round"/>
<path d="M405.952 48C423.079 43.1466 439.861 39.7051 458.459 37.0577C462.351 36.5283 461.4 31.5866 458.113 32.0278H458.199C437.698 35.2929 420.484 39.8816 405 45.3527" fill="white"/>
<path d="M405.952 48C423.079 43.1466 439.861 39.7051 458.459 37.0577C462.351 36.5283 461.4 31.5866 458.113 32.0278H458.199C437.698 35.2929 420.484 39.8816 405 45.3527" stroke="#2C373D" stroke-width="2" stroke-miterlimit="10" stroke-linejoin="round"/>
<path d="M318 35.6306L325.47 34.7792L352.137 34.013C359.434 33.7576 360.302 37.3332 352.571 37.5886C349.444 37.6738 337.37 38.1846 326.86 37.9292C321.04 37.7589 319.129 37.163 319.129 37.163L318 35.6306Z" stroke="#2C373D" stroke-width="2" stroke-miterlimit="10" stroke-linejoin="round"/>
<path d="M374 46.6787C380.389 45.5175 399.467 44.2733 405.068 45.5175C407.694 46.0981 408.044 48.5864 403.581 48.9182C399.03 49.25 383.889 48.5864 374 46.6787Z" fill="white" stroke="#2C373D" stroke-width="2" stroke-miterlimit="10" stroke-linejoin="round"/>
<path fill-rule="evenodd" clip-rule="evenodd" d="M310 36.948C313.477 35.3799 325.4 34.5087 328.794 35.2928C330.367 35.6413 330.698 37.4707 327.966 37.8192C325.317 38.1677 316.127 38.0806 310 36.948Z" fill="white" stroke="#2C373D" stroke-width="2" stroke-miterlimit="10" stroke-linejoin="round"/>
<path d="M468.889 43H471.111C471.63 43 472 43.4706 472 44.1294V49.8706C472 50.5294 471.63 51 471.111 51H468.889C468.37 51 468 50.5294 468 49.8706V44.1294C468 43.4706 468.37 43 468.889 43Z" stroke="#2C373D" stroke-width="2" stroke-miterlimit="10" stroke-linejoin="round"/>
<path d="M315 5L325.662 29H335.891C336.758 29 337.278 28.04 336.844 27.3418L324.622 6.92C324.015 5.96 323.062 5.34909 321.935 5.34909L315 5Z" stroke="#2C373D" stroke-width="2" stroke-miterlimit="10" stroke-linejoin="round"/>
<path d="M334 22H332" stroke="#2C373D" stroke-width="2" stroke-miterlimit="10" stroke-linecap="round" stroke-linejoin="round"/>
<path d="M328 12H326" stroke="#2C373D" stroke-width="2" stroke-miterlimit="10" stroke-linecap="round" stroke-linejoin="round"/>
<path d="M597 258H171" stroke="#2C373D" stroke-width="3" stroke-miterlimit="10" stroke-linecap="round" stroke-linejoin="round"/>
<path d="M162 258H115" stroke="#2C373D" stroke-width="3" stroke-miterlimit="10" stroke-linecap="round" stroke-linejoin="round"/>
<path d="M107 258H85" stroke="#2C373D" stroke-width="3" stroke-miterlimit="10" stroke-linecap="round" stroke-linejoin="round"/>
<path d="M169 121H230" stroke="#2C373D" stroke-width="3" stroke-miterlimit="10" stroke-linecap="round" stroke-linejoin="round"/>
<path d="M585 211L580.426 208.276C575.68 205.468 569.812 205.383 564.98 208.106L564.03 208.617C559.112 211.34 553.157 211.255 548.325 208.276C543.665 205.468 537.883 205.212 533.051 207.766L530.807 208.957C525.975 211.511 520.193 211.255 515.533 208.447L515.36 208.362C510.701 205.468 504.832 205.297 500 207.936" stroke="#008DD2" stroke-width="3" stroke-miterlimit="10" stroke-linecap="round" stroke-linejoin="round"/>
<path d="M484 207.481C479.313 204.42 473.518 204.327 468.746 207.295L467.809 207.852C462.951 210.82 457.071 210.727 452.299 207.481C447.697 204.42 441.988 204.142 437.216 206.924L435 208.223" stroke="#008DD2" stroke-width="3" stroke-miterlimit="10" stroke-linecap="round" stroke-linejoin="round"/>
<path d="M556 185.838C558.407 185.745 560.813 185.003 562.962 183.705L563.908 183.148C568.807 180.18 574.738 180.273 579.551 183.519C584.193 186.58 589.952 186.858 594.765 184.076L597 182.777" stroke="#008DD2" stroke-width="3" stroke-miterlimit="10" stroke-linecap="round" stroke-linejoin="round"/>
<path d="M210 52V85" stroke="#2C373D" stroke-width="3" stroke-miterlimit="10" stroke-linecap="round" stroke-linejoin="round"/>
<path d="M120 172.41C115.207 169.436 109.281 169.346 104.4 172.23L103.442 172.77C98.4741 175.654 92.4609 175.564 87.5805 172.41C82.8744 169.436 77.0355 169.166 72.1551 171.869L69.8892 173.131C65.0089 175.834 59.1699 175.564 54.4638 172.59L54.2895 172.5C50.3678 169.977 45.5746 169.436 41.3043 170.878C38.8641 171.689 36.3368 171.959 33.8095 171.959H2" stroke="#008DD2" stroke-width="3" stroke-miterlimit="10" stroke-linecap="round" stroke-linejoin="round"/>
<path d="M97 191.295L96.046 191.852C91.1025 194.82 85.1183 194.727 80.2615 191.481C75.5782 188.42 69.7674 188.142 64.9106 190.924C63.4363 191.759 61.7884 192.223 60.1406 192.223H31" stroke="#008DD2" stroke-width="3" stroke-miterlimit="10" stroke-linecap="round" stroke-linejoin="round"/>
<path d="M660 183.567L617.906 183.394C615.053 183.394 612.201 182.788 609.435 181.836C605.459 180.452 601.051 180.798 597.247 182.788L595 184" stroke="#008DD2" stroke-width="3" stroke-miterlimit="10" stroke-linecap="round" stroke-linejoin="round"/>
<defs>
<linearGradient id="paint0_linear" x1="287.089" y1="112.633" x2="500.712" y2="112.633" gradientUnits="userSpaceOnUse">
<stop stop-color="#008DD2"/>
<stop offset="1" stop-color="#003C5F"/>
</linearGradient>
<linearGradient id="paint1_linear" x1="134.952" y1="189.494" x2="359.97" y2="189.494" gradientUnits="userSpaceOnUse">
<stop stop-color="#1B75BC"/>
<stop offset="1" stop-color="#003C5F"/>
</linearGradient>
</defs>
</svg>
