<svg width="16" height="16" viewBox="0 0 16 16" fill="none" xmlns="http://www.w3.org/2000/svg">
<path fill-rule="evenodd" clip-rule="evenodd" d="M7.7325 15.3334C3.68241 15.3334 0.39917 12.0502 0.39917 8.00008C0.39917 3.94999 3.68241 0.666748 7.7325 0.666748C11.7826 0.666748 15.0658 3.94999 15.0658 8.00008C15.0658 12.0502 11.7826 15.3334 7.7325 15.3334ZM12.6655 11.4165C13.3382 10.447 13.7325 9.26956 13.7325 8.00008C13.7325 4.68637 11.0462 2.00008 7.7325 2.00008C4.41879 2.00008 1.7325 4.68637 1.7325 8.00008C1.7325 9.26956 2.12676 10.447 2.7995 11.4165C3.5498 10.4255 5.3129 10.0001 7.7325 10.0001C10.1521 10.0001 11.9152 10.4255 12.6655 11.4165ZM11.709 12.4933C11.5138 11.7916 10.1121 11.3334 7.7325 11.3334C5.35292 11.3334 3.95117 11.7916 3.75605 12.4933C4.8147 13.4309 6.20713 14.0001 7.7325 14.0001C9.25788 14.0001 10.6503 13.4309 11.709 12.4933ZM7.7325 4.00008C6.11857 4.00008 5.06584 5.17059 5.06584 6.66675C5.06584 8.95166 6.23975 10.0001 7.7325 10.0001C9.21123 10.0001 10.3992 8.98649 10.3992 6.80008C10.3992 5.28113 9.34197 4.00008 7.7325 4.00008ZM6.39917 6.66675C6.39917 8.17959 6.94464 8.66675 7.7325 8.66675C8.51764 8.66675 9.06584 8.19901 9.06584 6.80008C9.06584 5.96703 8.54294 5.33342 7.7325 5.33342C6.88833 5.33342 6.39917 5.8773 6.39917 6.66675Z" fill="black"/>
</svg>
