<svg width="16" height="16" viewBox="0 0 16 16" fill="none" xmlns="http://www.w3.org/2000/svg">
<path fill-rule="evenodd" clip-rule="evenodd" d="M2.66659 1.33325H13.3333C14.0696 1.33325 14.6666 1.93021 14.6666 2.66659V13.3333C14.6666 14.0696 14.0696 14.6666 13.3333 14.6666H2.66659C1.93021 14.6666 1.33325 14.0696 1.33325 13.3333V2.66659C1.33325 1.93021 1.93021 1.33325 2.66659 1.33325ZM2.66659 2.66659V13.3333H13.3333V2.66659H2.66659ZM7.42196 8.00285H8.66658V11.9999H9.99992V8.00285H11.3215V6.66952H9.99992V5.99992C9.99992 5.63173 10.2984 5.33325 10.6666 5.33325H11.3333V3.99992H10.6666C9.56202 3.99992 8.66658 4.89535 8.66658 5.99992V6.66952H7.42196V8.00285Z" fill="#00AAEC"/>
</svg>
