<svg width="13" height="12" viewBox="0 0 13 12" fill="none" xmlns="http://www.w3.org/2000/svg">
<path fill-rule="evenodd" clip-rule="evenodd" d="M6.71815 0.487901C7.30851 0.198937 7.82349 0.103759 8.62242 0.103769C10.6669 0.112236 12.1802 1.83654 12.1802 4.033C12.1802 5.70952 11.2454 7.32899 9.50427 8.89498C8.59034 9.71697 7.42345 10.5304 6.58777 10.9632L6.10963 11.2108L5.63149 10.9632C4.7958 10.5304 3.62892 9.71697 2.71499 8.89498C0.973837 7.32899 0.0390625 5.70952 0.0390625 4.033C0.0390625 1.81305 1.53818 0.10376 3.60113 0.10376C4.37139 0.10376 4.9128 0.207939 5.51461 0.505595C5.72414 0.609227 5.921 0.732152 6.10409 0.874038C6.29453 0.723726 6.49958 0.594885 6.71815 0.487901Z" fill="#DADADA"/>
</svg>
