<svg width="16" height="16" viewBox="0 0 16 16" fill="none" xmlns="http://www.w3.org/2000/svg">
<path fill-rule="evenodd" clip-rule="evenodd" d="M14.0796 3.00543L15.0228 3.11558L14.5988 3.96525C14.3921 4.3796 14.1851 4.79395 13.9779 5.2083C13.9534 5.29606 13.9102 5.373 13.8464 5.47317C13.8197 5.51502 13.7285 5.64816 13.7243 5.65455C13.7002 5.69064 13.6824 5.7191 13.6696 5.74191V7.33427C13.6696 11.4089 9.72627 13.9982 6.00228 13.9982C5.24026 13.9982 4.6613 13.9617 3.99835 13.817C2.90735 13.5789 2.09543 13.1057 1.7239 12.2786L1.34139 11.427L2.27098 11.3415C3.11192 11.2642 3.84104 11.104 4.40098 10.8895C2.86376 10.6423 2.00232 9.96711 2.00232 8.69918V8.03251H2.66899C2.81546 8.03251 2.94754 8.02062 3.06561 7.99881C1.91192 7.30902 1.33407 6.20245 1.33407 4.6676C1.33394 4.60218 1.33394 4.60218 1.33355 4.53223C1.32921 3.7586 1.37077 3.34523 1.58255 2.81765C1.71828 2.47952 1.91447 2.16651 2.17852 1.8797L2.68159 1.33325L3.1707 1.89223C4.78255 3.73432 6.37589 4.85189 8.0027 4.98707C8.00965 3.28728 9.29428 2.00093 11.0028 2.00093C11.7993 2.00093 12.5218 2.30326 13.0896 2.8484C13.4003 2.91226 13.7304 2.96465 14.0796 3.00543ZM12.6057 4.10793L12.4013 4.06165L12.2602 3.90677C11.9189 3.53228 11.4905 3.33427 11.0028 3.33427C10.0275 3.33427 9.33601 4.02919 9.33601 5.00093C9.33601 5.15974 9.3319 5.25953 9.31212 5.39068C9.23318 5.91403 8.93963 6.33427 8.33599 6.33427C6.3373 6.33427 4.53416 5.26353 2.77585 3.43477C2.68521 3.71032 2.66389 3.99357 2.66686 4.52476C2.66727 4.59581 2.66727 4.59581 2.66741 4.6676C2.66741 6.03294 3.22055 6.77977 4.53023 7.19604L4.99496 7.34375V7.83139C4.99496 8.42271 4.43474 8.97935 3.61505 9.22867C3.9908 9.51376 4.75926 9.6676 6.00252 9.6676H6.66919V10.3343C6.66919 11.2894 5.57167 12.0373 3.91376 12.4278C4.45444 12.5935 5.17436 12.6649 6.00228 12.6649C9.07856 12.6649 12.3363 10.5258 12.3363 7.33427V5.6676C12.3363 5.47174 12.393 5.30174 12.4874 5.12498C12.5242 5.05587 12.5648 4.98998 12.6149 4.91483C12.6244 4.90069 12.6594 4.84943 12.6872 4.80845L12.74 4.70278C12.8256 4.53155 12.9112 4.36032 12.9968 4.1891C12.8638 4.16391 12.7334 4.13686 12.6057 4.10793Z" fill="#70787C"/>
</svg>
